/* XPM */
static char *char_m_xpm[] = {
/* columns rows colors chars-per-pixel */
"32 32 49 1 ",
"  c #000000", 
". c #040404",
"X c #090909",
"o c #0E0E0E",
"O c #101010",
"+ c #171717", 
"@ c #1A1A1A", 
"# c #1F1F1F", 
"$ c #292929", 
"% c #2D2D2D",
"& c #313131",
"* c #343434",
"= c #383838", 
"- c #3F3F3F",
"; c #444444", 
": c #484848",
"> c #4C4C4C",
", c #585858",
"< c #5C5C5C", 
"1 c #626262",
"2 c #666666",
"3 c #6F6F6F",
"4 c #727272",
"5 c #757575", 
"6 c #7C7C7C", 
"7 c #828282", 
"8 c #868686",
"9 c #8A8A8A", 
"0 c #8E8E8E",
"q c #979797", 
"w c #989898",
"e c #9C9C9C",
"r c #AAAAAA",
"t c #AFAFAF",
"y c #B3B3B3",
"u c #B4B4B4",
"i c #BBBBBB",
"p c #BEBEBE",
"a c #C3C3C3",
"s c #C4C4C4",
"d c #CACACA",
"f c #CCCCCC",
"g c #D0D0D0",
"h c #D4D4D4",
"j c #DADADA",
"k c #DDDDDD",
"l c #E3E3E3",
"z c #E7E7E7",
"x c #E9E9E9",
/* pixels */
"                                ",
" oqrrrr5%.            o8rrrre%. ",
" wzzzzzzk$            6zzzzzzl- ",
".yzzzzzzz*            azzzzzzz, ",
".yzzzzzzz>o          $jzzzzzzz, ",
".uzzzzzzzza0:     o3ejzzzzzzzz, ",
".uzzzzzzzzzzd     tzzzzzzzzzzz, ",
".uzzzzzzzzzzf    Ogzzzzzzzzzzz, ",
".uzzzzzzzzzzf@X  *lzzzzzzzzzzz, ",
".uzzzzzzzzzzzzi><hzzzzzzzzzzzz, ",
".uzzzzzzzzzzzzzzzzzzzzzzzzzzzz, ",
".uzzzzzzzzzzzzzzzzzzzzzzzzzzzz, ",
".izzzzzzzzzzzzzzzzzzzzzzzzzzzz, ",
".uzzzzzzzzdrdzzzzzkyukzzzzzzzz, ",
".uzzzzzzzw#.+uzzzk$XX2lzzzzzzz, ",
".uzzzzzzz*   ;zzza.   azzzzzzx, ",
".uzzzzzzl&   $kzze    yzzzzzzx, ",
".uzzzzzzl&    4a4+    pzzzzzzx, ",
".uzzzzzzl&     X.     szzzxzzz, ",
".uzzzzzzl&            szzzxzzz, ",
".uzzzzzzl&            fzzzzzzx, ",
".uzzzzzzl&            fzzzzzzx, ",
".uzzzzzzl&            fzzzzzzx< ",
".uzzzzzzl&            gzzzzzzz1 ",
".izzzzzzl&            fzzzzzzz, ",
"Xpzzzzzzl&            fzzzzzzz, ",
"Xpzzzzzzl&            szzzzzzz, ",
".izzzzzzl&            uzzzzzzz, ",
".izzzzzzl&            yzzzzzzz, ",
" qlzxzzzf#            5lzzzzzg% ",
" O377986=             X377775O  ",
"                                "
};
