/* XPM */
static char *char_a_xpm[] = {
/* columns rows colors chars-per-pixel */
"32 32 49 1 ",
"  c #000000",
". c #060606",
"X c #0F0F0F",
"o c #151515",
"O c #101010",
"+ c #161616",
"@ c #181818",
"# c #1E1E1E",
"$ c #222222",
"% c #242424",
"& c #282828",
"* c #2F2F2F",
"= c #333333",
"- c #353535",
"; c #3B3B3B",
": c #3D3D3D",
"> c #464646",
", c #494949",
"< c #4D4D4D",
"1 c #515151",
"2 c #565656",
"3 c #5C5C5C",
"4 c #6A6A6A",
"5 c #7A7A7A",
"6 c #7F7F7F",
"7 c #838383",
"8 c #858585",
"9 c #898989",
"0 c #8F8F8F",
"q c #909090",
"w c #979797",
"e c #9B9B9B",
"r c #9C9C9C",
"t c #A0A0A0",
"y c #A6A6A6",
"u c #AAAAAA",
"i c #B4B4B4",
"p c #BEBEBE",
"a c #C2C2C2",
"s c #D3D3D3",
"d c #D7D7D7",
"f c #D8D8D8",
"g c #DFDFDF",
"h c #E0E0E0",
"j c #E6E6E6",
"k c #E8E8E8",
"l c #ECECEC",
"z c #F1F1F1",
"x c #F4F4F4",
/* pixels */
"                                ",
"                                ",
"        X9tttrq965790e.         ",
"        ykkkkkklllllllX         ",
"       olkjjjjjjjkkkkkX         ",
"       4jkkjkllzzxkkjk68.       ",
"    o:5gjkjkt,>>,<ekkkjlr-=     ",
"    ukkjkkjpX     .9kkjjjkl     ",
"   $fjjkkklq       <kjjjjjz     ",
"   $sjjjjklw       <kkjjjjz     ",
"   #sjjjjklw       <kkjjjjz     ",
"   $sjjjjklw       <kkkkkjz     ",
"   $djjjjklw       <kjjjjjz     ",
"   $sjjjjklw       <kjjjjjz     ",
"   %djjjjklw       <kjjjjjz     ",
"   &djjjjklw       <kjjjjjz     ",
"   &fjjjjkkr       <kjjjjjz     ",
"   *fjjjjkks+      7kjjjjjz     ",
"   *fjjjjkkku642<39jjjjjjjz     ",
"   *fjjjjkkkjjjjjjjjjjjjjjz     ",
"   *fjjjjkkkjjjjjjjjjjjjjjz     ",
"   *fjjjjkkklzzzlzljjjjjjjz     ",
"   &fjjjjkkh7;===;7jjjjjjjz     ",
"   *fjjjjkji.      7kjjjjjz     ",
"   &fjjjjklq       1kjjjjjz     ",
"   &fjjjjklq       <kjjjjjz     ",
"   &fjjjjklq       1kjjjjjz     ",
"   &djjjjklq       2kjjjjjz     ",
"   *gjjjkkz8       2ljjjjjz     ",
"   Xuklllla#       $akkklli     ",
"    .@%%%$.         X$%%&-O     ",
"                                "
};
