/* XPM */
static char *char_n_xpm[] = {
/* columns rows colors chars-per-pixel */
"32 32 48 1 ",
"  c #000000",
". c #060606",
"X c #090909",
"o c #141414",
"O c #161616",
"+ c #1D1D1D",
"@ c #242424",
"# c #2C2C2C",
"$ c #313131",
"% c #343434",
"& c #3A3A3A",
"* c #404040",
"= c #454545",
"- c #4B4B4B",
"; c #4C4C4C",
": c #515151",
"> c #565656",
", c #5C5C5C",
"< c #606060",
"1 c #656565",
"2 c #6A6A6A",
"3 c #707070",
"4 c #777777",
"5 c #7C7C7C",
"6 c #828282",
"7 c #878787",
"8 c #8C8C8C",
"9 c #919191",
"0 c #969696",
"q c #9C9C9C",
"w c #A1A1A1",
"e c #A6A6A6",
"r c #ABABAB",
"t c #B0B0B0",
"y c #B5B5B5",
"u c #BABABA",
"i c #C0C0C0",
"p c #C5C5C5",
"a c #CACACA",
"s c #CFCFCF",
"d c #D4D4D4",
"f c #D9D9D9",
"g c #DEDEDE",
"h c #E4E4E4",
"j c #E9E9E9",
"k c #EEEEEE",
"l c #F3F3F3",
"z c #F8F8F8",
/* pixels */
"   .@=;*@+.          O+O+O+     ",
"  .0hhlkjj9.        -sjjjjj9O   ",
"  %jkjkljjy$        pjkjkkjd=   ",
"  %jlhkljky%        dkjkkjkf;   ",
"  *jljkljky$        djkjkjkf:   ",
"  *lljlkjkt%        djjkjkjf:   ",
"  *lkjljkjr$        djkjkjkf>   ",
"  4ljkljjjw$        dkjkjkjf<   ",
"  1jjkhjkjk8        djkjkjjg1   ",
"  -jkjjkjkjhi4=     dkjkjkkg<   ",
"  *jjkjkjkjkkj6.    dkkjkkjf,   ",
"  =jkjkjkjkjjhh>   .fjjkjkkf,   ",
"  *jjkjkjkjkjkj4   $jkkkjkjf:   ",
"  =hkjkjkjkjkjkjq--ujkjjkjkd;   ",
"  *jjkjkjkjkjkjkjhjjjkjkjkkf;   ",
"  =jkjkjkjkjkjkjkkjkkjkjkjjf:   ",
"  =jjkjkjkjjjkkjjjkkkkjkjkjf:   ",
"  *jkjkjkjkjgahkkkkjjkkjkjjf,   ",
"  *jjkjkjkju;+;akkjkkjkjjkjg1   ",
"  *jkjkjkjh4   ;kkjjjkjkkjkf1   ",
"  *jjkjkjke#   .kkjkjkkjkjjg<   ",
"  =jkjkjkje#    qjkjkjjkjkjf,   ",
"  =hjkjkjkr$    X-5skjkjkjkf>   ",
"  *jkjkjkjt%       =jjjkjkjf;   ",
"  =jjkjkkjy%        fkkjkjjf;   ",
"  *jkjkjjky%        dkjjjkkf;   ",
"  =hjkjkkjt%        djkkkjkf:   ",
"  =jkjjkkjr$        djkjjkjf>   ",
"  *hjkkjjke#       .sjjjjkjf,   ",
"  %fkjjkjjqO        ijkkkkjf:   ",
"  .8ddddds2         -pssddsqo   ",
"    oOooOX           .ooooo     "
};
