/* XPM */
static char *char_b_xpm[] = {
/* columns rows colors chars-per-pixel */
"32 32 57 1 ",
"  c #000000",
". c #070707",
"X c #0C0C0C",
"o c #131313",
"O c #151515",
"+ c #1B1B1B",
"@ c #1F1F1F",
"# c #232323",
"$ c #272727",
"% c #2B2B2B",
"& c #2F2F2F",
"* c #313131",
"= c #353535",
"- c #3A3A3A",
"; c #3F3F3F",
": c #444444",
"> c #494949",
", c #4B4B4B",
"< c #4E4E4E",
"1 c #515151",
"2 c #555555",
"3 c #585858",
"4 c #5C5C5C",
"5 c #606060",
"6 c #646464",
"7 c #686868",
"8 c #6C6C6C",
"9 c #707070",
"0 c #747474",
"q c #787878",
"w c #7C7C7C",
"e c #808080",
"r c #848484",
"t c #898989",
"y c #8D8D8D",
"u c #919191",
"i c #959595",
"p c #999999",
"a c #9D9D9D",
"s c #A2A2A2",
"d c #A6A6A6",
"f c #AAAAAA",
"g c #AEAEAE",
"h c #B2B2B2",
"j c #B6B6B6",
"k c #BABABA",
"l c #BEBEBE",
"z c #C3C3C3",
"x c #C7C7C7",
"c c #CBCBCB",
"v c #CFCFCF",
"b c #D3D3D3",
"n c #D7D7D7",
"m c #DBDBDB",
"M c #DFDFDF",
"N c #E3E3E3",
"B c #E8E8E8",
/* pixels */
"                                ",
"                                ",
"       ...............          ",
"     Xrzlkgdgfdfghgghky2        ",
"     >mmmmmmmmmmmmmmmmmx&       ",
"     :mmmmmmmmmmmmmmmmmc2       ",
"     -mMMMMmmmpuuuizMmmkq<O     ",
"     ;mMMMMmB2     OgMMMMMN0    ",
"     ;mMMMMz:       :mMmmmms$   ",
"     :mMMMMc3       &vMmmmnr#   ",
"     :mMMMMbt       =nMmmmn4O   ",
"     ;mMMMMna       =nMmmmm<o   ",
"     ;mMMMMby       =nMmMMm3O   ",
"     ;mMMMMx3       4MMMMmBeO   ",
"     :mMMMMmMv7=-==3bmMmMq<.    ",
"     :mMMMMMmMMMNNNmmmMd-       ",
"     :mMMMMMmmmmmmmmmmMl%       ",
"     :mMMMMmmMMMMMMMmnmbhO      ",
"     :mMMMMmNs:====5mmmmNl5O    ",
"     :mMMMMMN@      8MMmmmm9o   ",
"     :mMMMMx>       *nmmmmmi$   ",
"     :mmmmmz:       :mmmmmms$   ",
"     ;mmmmmc6       ;mmmmmmw@   ",
"     2nmmmmbu       ;mMmmmm2o   ",
"     1nmmmmnlo      >MmMmmM>.   ",
"     4nmmmmmN&     OgMmmNNz<    ",
"     ,nmmmmmmMMziasMMmmmj#      ",
"     1nmmmmmmmmmmmmmmmmd+       ",
"     >NMMMMMMMMmMMMMMMMhO       ",
"     X0ipiiiiiiiiiiiiiu2.       ",
"            ..      ..          ",
"                                "
};
