/* XPM */
static char *char_o_xpm[] = {
/* columns rows colors chars-per-pixel */
"32 32 54 1 ",
"  c #000000",
". c #040404",
"X c #090909",
"o c #0A0A0A",
"O c #101010",
"+ c #1A1A1A",
"@ c #1E1E1E",
"# c #202020",
"$ c #252525",
"% c #282828",
"& c #2A2A2A",
"* c #2C2C2C",
"= c #323232",
"- c #353535",
"; c #3A3A3A",
": c #3B3B3B",
"> c #3C3C3C",
", c #3E3E3E",
"< c #4B4B4B",
"1 c #505050",
"2 c #525252",
"3 c #5B5B5B",
"4 c #5C5C5C",
"5 c #616161",
"6 c #676767",
"7 c #747474",
"8 c #7B7B7B",
"9 c #838383",
"0 c #848484",
"q c #898989",
"w c #8D8D8D",
"e c #969696",
"r c #9B9B9B",
"t c #9F9F9F",
"y c #A0A0A0",
"u c #A7A7A7",
"i c #AAAAAA",
"p c #ACACAC",
"a c #B1B1B1",
"s c #B7B7B7",
"d c #BBBBBB",
"f c #C0C0C0",
"g c #C3C3C3",
"h c #CACACA",
"j c #CECECE",
"k c #D0D0D0",
"l c #D9D9D9",
"z c #E2E2E2",
"x c #DFDFDF",
"c c #E8E8E8",
"v c #EAEAEA",
"b c #E6E6E6",
"n c #EEEEEE",
"m c #F1F1F1",
/* pixels */
"        .ooOoooooooooOo         ",
"       -sllllkjkkkkklxj<        ",
"       gbbbbbbbbbbbbbbb0X       ",
"      ozbbbbbbbbbbbbbbb0        ",
"     .6bbbbbvvvvvvbbbbbb7.      ",
"   @wsbbbbbh,#@#%$1kbbbbbht>    ",
"  Xkbbbbbbx;       :vbbbbbbuO   ",
"  *vbbbbbbx#       @xbbbbbbq    ",
"  %vbbbbbb8        #cbbbbbbv-   ",
"  %vbbbbbbk$       $cbbbbbbi.   ",
"  &vbbbbbbt.       #cbbbbbbk*   ",
"  &vbbbbbba@       #cbbbbbbkO   ",
"  %vbbbbbngX       #cbbbbbbd%   ",
"  $vbbbbnne+       $cbbbbbbc@   ",
"  $vbbbbbnkO       $cbbbbbbi+   ",
"  #vbbbbbb9X       #cbbbbbbv*   ",
"  #cbbbbbbx$       #xbbbbbby.   ",
"  #cbbbbbb8        #xbbbbbbv;   ",
"  @cbbbbbbl#       #xbbbbbbi.   ",
"  $cbbbbbbr.       #xbbbbbbk=   ",
"  @cbbbbbba@       #xbbbbbbjo   ",
"  @cbbbbbbfX       #xbbbbbbd&   ",
"  @cbbbbbbe+       #cbbbbbbc@   ",
"  #vbbbbbbkO       #xbnnnnnp@   ",
"  $vbbbbbb0X       #bmmmmmmn-   ",
"  .dbbbbbbv,       5mmbbbbbwX   ",
"   +5wxbbbbv621123wnbvbvzq:.    ",
"      4bbbbbbbbbbmmnvbbnqO      ",
"      Ozbbbbbbbbbmmbbnmx:       ",
"       ibbbbbbbbnmnvbmn9.       ",
"       #quuuuuuughsudhqO        ",
"                +#O O$.         "
};
