/* XPM */
static char *char_q_xpm[] = {
/* columns rows colors chars-per-pixel */
"32 32 54 1 ",
"  c #000000",
". c #070707",
"X c #0B0B0B",
"o c #0E0E0E",
"O c #101010",
"+ c #161616",
"@ c #1D1D1D",
"# c #212121",
"$ c #252525",
"% c #282828",
"& c #2F2F2F",
"* c #323232",
"= c #373737",
"- c #393939",
"; c #3B3B3B",
": c #404040",
"> c #434343",
", c #464646",
"< c #484848",
"1 c #4B4B4B",
"2 c #505050",
"3 c #535353",
"4 c #565656",
"5 c #5A5A5A",
"6 c #5D5D5D",
"7 c #606060",
"8 c #646464",
"9 c #686868",
"0 c #6C6C6C",
"q c #717171",
"w c #747474",
"e c #787878",
"r c #7C7C7C",
"t c #808080",
"y c #858585",
"u c #898989",
"i c #8C8C8C",
"p c #919191",
"a c #959595",
"s c #9A9A9A",
"d c #9E9E9E",
"f c #A3A3A3",
"g c #A7A7A7",
"h c #ACACAC",
"j c #B1B1B1",
"k c #B5B5B5",
"l c #BABABA",
"z c #BEBEBE",
"x c #C3C3C3",
"c c #C7C7C7",
"v c #CCCCCC",
"b c #D1D1D1",
"n c #D5D5D5",
"m c #DADADA",
/* pixels */
"         oooOOoooOOoOoo         ",
"       Xtlxccxlzzxzcxxh*        ",
"       1nnnnnnbbnbnnnnml&       ",
"       qnnnnnnnnnnnnnnnny       ",
"      @knnnnnnmnnnmnnnnv<       ",
"   X4rxmnnbvt;&&%%;ybnnnnbu&    ",
"   0nnnnnnnpX      .pnnnnnnz*   ",
"  .gbnnnnnx=        7nbnnnnndo  ",
"  .hnnnnnnbw        7nbnnnnb4   ",
"  .jnnnbnbx$        7nnnnbnnho  ",
"  .knnnbnnne        7nbnnnnb5   ",
"  .jbnnnnnc=        7nnnnbnbso  ",
"  .hnnnnnbv8        7nnnnnnne   ",
"  .jnbbnnnb1        8nnnnbnbto  ",
"  .jnnnnnnc3        8nnnbnnbu.  ",
"  .jnnbnbnb5        8bnbnnmm0o  ",
"  .knnnnnnc<        wnnbnnnbpX  ",
"  .jnbnbnnn9       *znnnbnbb7.  ",
"  .jnnnnbnx&    X4dcnnbnnnnnfO  ",
"  .jnnnbnnne    8bnbbnnnbbbb5   ",
"  .knnnnbnx$    inbnbnnbmbnbfo  ",
"  .knnnnnnbw   .unnbbbbnmbnb,   ",
"  .jnbnbnnc-    ynnbbbbnblw<o   ",
"  .jnnnnnnb7    inbbbnbnh#      ",
"  Xjnnnnnnv2    snbnnbnc>       ",
"   inbnbnbbso  XznnmbbbnaX      ",
"   $ihvnnnnt3Ootnbbnvchxbqo.    ",
"     X1cnbnbnnnnnnbnh2.*fmnh=   ",
"       rnnbnbnnnbnbl,   -bnx-   ",
"       3bnnnnnbbbbnho   +cnnaX  ",
"       +svvvvcbvvvl&     exk*   ",
"        X&**-11=,:%.      &o    "
};
