/* XPM */
static char *char_i_xpm[] = {
/* columns rows colors chars-per-pixel */
"32 32 26 1 ",
"  c #000000",
". c #070707",
"X c #0B0B0B",
"o c #0E0E0E",
"O c #111111",
"+ c #151515",
"@ c #191919",
"# c #2F2F2F",
"$ c #3E3E3E",
"% c #626262",
"& c #6F6F6F",
"* c #8C8C8C",
"= c #767676",
"- c #797979",
"; c #808080",
": c #858585",
"> c #898989",
", c #8E8E8E",
"< c #C1C1C1",
"1 c #C5C5C5",
"2 c #BEBEBE",
"3 c #D5D5D5",
"4 c #BBBBBB",
"5 c #B6B6B6",
"6 c #D8D8D8",
"7 c #E7E7E7",
/* pixels */
"            #3676662$           ",
"           .17767766-X          ",
"           +47776776;X          ",
"           O47777776:o          ",
"           +46767776:X          ",
"           O47777677>o          ",
"           O47777676>o          ",
"           o47777776>o          ",
"           o47777776>X          ",
"           o47777776>o          ",
"           O47777776>X          ",
"           O37777776>o          ",
"           +47777776>X          ",
"           O47776766:X          ",
"           O47777676:X          ",
"           +57777776-o          ",
"           o37777776;X          ",
"           o47676766-X          ",
"           o47767676-X          ",
"           o47777776*X          ",
"           o47767676*X          ",
"           o47777776&.          ",
"           o47767776&.          ",
"           X37776766&X          ",
"           o47677776&X          ",
"           O47776766&X          ",
"           O47777776&.          ",
"           O47777676&X          ",
"           o46777776*X          ",
"           o47777776*.          ",
"           .<7777776%.          ",
"            @,<1<<<=O           "
};
