/* XPM */
static char *char_n_xpm[] = {
/* columns rows colors chars-per-pixel */
"32 32 47 1 ",
"  c #000000",
". c #040404",
"X c #090909",
"o c #0E0E0E",
"O c #111111",
"+ c #151515",
"@ c #191919",
"# c #1E1E1E",
"$ c #232323",
"% c #282828",
"& c #363636",
"* c #383838",
"= c #3C3C3C",
"- c #424242",
"; c #494949",
": c #4F4F4F",
"> c #545454",
", c #5E5E5E",
"< c #636363",
"1 c #676767",
"2 c #717171",
"3 c #747474",
"4 c #787878",
"5 c #868686",
"6 c #8E8E8E",
"7 c #919191",
"8 c #989898",
"9 c #999999",
"0 c #A3A3A3",
"q c #A6A6A6",
"w c #ABABAB",
"e c #B2B2B2",
"r c #B5B5B5",
"t c #BABABA",
"y c #BFBFBF",
"u c #C1C1C1",
"i c #C6C6C6",
"p c #CBCBCB",
"a c #CECECE",
"s c #D2D2D2",
"d c #D5D5D5",
"f c #D8D8D8",
"g c #DFDFDF",
"h c #E2E2E2",
"j c #E7E7E7",
"k c #ECECEC",
"l c #EFEFEF",
/* pixels */
"    O#=;$@O          .@@@@@X    ",
"   &shjkhhs         Xqjjjjju2.  ",
"   wkjjkhjg         >jjjjhjhs+  ",
"   rkjhkjjg         <jhjjjjjd@  ",
"   tkjjjjjg         <jhjjjhjf@  ",
"   ukkjlhhg         <jjjhjjjf@  ",
"   ajhkjjjh         <jjjjjjjd+  ",
"  Odjjkjjjg.        ,jhjjjjjf@  ",
"  oahhjhjjhp=       ,jhjhjhjd+  ",
"  .ujhjjjjjjg5-.    <jjjjjjjf@  ",
"   yjjjjjhhjjjjr.   <jjjjjjjd@  ",
"   ujjhjjjjjjjhd%   1hhjjhjjd@  ",
"   ujjhjjjjjjhjh:   8jjjjjjhf@  ",
"   ujjjjjhjhjjjh8-*4hjjjhjjjd@  ",
"   yhjjjjhjjjjjjjhhjhjjjjjjjf+  ",
"   ujjhjjjjjjhjjjjjjjjjhjjjjf@  ",
"   yjjjjjjhjhjjjjjjjjjjhjjhjd@  ",
"   tjhjjhjjjgpajhjjjhjjjjjjjd@  ",
"   yjhjhjjjh3@$5jjjhjjjjhjjjd@  ",
"   tjjjjjjj4X  .ujjjjhjjjjhjd@  ",
"   yjjjjhjg     7jjjjhjhhjjhf@  ",
"   yhjjhjjg     &dhjjjjjjjjjf@  ",
"   yjjjjjjg      $;8hjjjjjjjf+  ",
"   yjhjjhjh        .qjjhhjjjf@  ",
"   yjjjhhjg         ,jjjjjjhd+  ",
"   yjjjjjjg         ,jjhjjjjf@  ",
"   yjjjjjjh         ,jjjjjjjd@  ",
"   ujjhjjjg         ,jjjhjjhf@  ",
"   yhjjjjjg         ,jjjjjjjd@  ",
"   qjhjjjjg         :hhjjjjhuo  ",
"   %eappppq         X6ipiap8*   ",
"    .OoXoo            XoXXo.    "
};

