/* XPM */
static char *char_h_xpm[] = {
/* columns rows colors chars-per-pixel */
"32 32 44 1 ",
"  c #000000",
". c #070707",
"X c #0B0B0B",
"o c #0E0E0E",
"O c #111111",
"+ c #151515",
"@ c #191919",
"# c #1D1D1D",
"$ c #272727",
"% c #101010",
"& c #2F2F2F",
"* c #131313",
"= c #343434",
"- c #414141",
"; c #494949",
": c #4E4E4E",
"> c #535353",
", c #555555",
"< c #5A5A5A",
"1 c #595959",
"2 c #646464",
"3 c #666666",
"4 c #6A6A6A",
"5 c #7B7B7B",
"6 c #737373",
"7 c #7B7B7B",
"8 c #838383",
"9 c #8E8E8E",
"0 c #929292",
"q c #959595",
"w c #A5A5A5",
"e c #9D9D9D",
"r c #B6B6B6",
"t c #C3C3C3",
"y c #C6C6C6",
"u c #CFCFCF",
"i c #DDDDDD",
"p c #E0E0E0",
"a c #E6E6E6",
"s c #DDDDDD",
"d c #D8D8D8",
"f c #F0F0F0",
"g c #E6E6E6",
"h c #EAEAEA",
/* pixels */
"                                ",
"   ygggg             0ggggfh    ",
"   gggggggd*        >fggfgff    ",
"   gggggggd*        5gfgfgfg    ",
"   hggggggd*        <ggfgggf    ",
"   gggggggs*        9fgfgggg    ",
"   gggggggd*        qgfggggg    ",
"   gggggggd*        3ggggggg    ",
"   gggggggd*        6ggggggf    ",
"   hggggggd*        <fgggggg    ",
"   gggggggd&        <ggggggg    ",
"   hggggggd;        1fgggggf    ",
"  .ggggggggw        <ggggggf    ",
"  .hggggggfd        <ggggggg    ",
"  ogggggggfgfgdfsipufggggggg    ",
"  +hggggggggfhfggggggggggggg    ",
"  @hhggggggfgggggggggggggggg    ",
"  #gggghggggdaaaaasfgggggggf    ",
"  @gggghhhgi:@oX.X@rgggggggg    ",
"  #gggghhgg>        aggggggg    ",
"  @ggghgghd=        2ggggggf    ",
"  #hggggggd=        3ggggggg    ",
"  +hggggggd-        5ggggggg    ",
"  Oghgggggd=        4ggggggg    ",
"  Ogggggggd*        2ggggggg    ",
"  +gggggggd*        1ggggggf    ",
"  @gggggggd*         4ggggggg   ",
"  #gggggggd*         7ggggggg   ",
"  #gggggggd*         0ggggggg   ",
"  %gggggggs%         qggggggg   ",
"  sgggggfeo          $fhggggf   ",
"  #3333              -33333:    "
};
