/* XPM */
static char *char_l_xpm[] = {
/* columns rows colors chars-per-pixel */
"32 32 33 1 ",
"  c #000000", 
". c #0B0B0B",
"X c #0E0E0E",
"o c #121212",
"O c #262626", 
"+ c #2A2A2A",
"@ c #2F2F2F",
"# c #353535",
"$ c #3C3C3C",
"% c #4C4C4C",
"& c #515151", 
"* c #585858",
"= c #5D5D5D",
"- c #636363", 
"; c #646464",
": c #686868",
"> c #6F6F6F",
", c #717171",
"< c #787878", 
"1 c #868686",
"2 c #898989",
"3 c #989898",
"4 c #A2A2A2",
"5 c #BFBFBF", 
"6 c #C6C6C6",
"7 c #C8C8C8",
"8 c #CECECE",
"9 c #D5D5D5",
"0 c #DADADA", 
"q c #DEDEDE",
"w c #E2E2E2",
"e c #E6E6E6",
"r c #E9E9E9",
/* pixels */
"     +<<<<<,@                   ",
"    Oqeeeeee8.                  ",
"    %eeeeeeewX                  ",
"    %eeeeeeewX                  ",
"    %eeeeeeewX                  ",
"    %eeeeeewwX                  ",
"    %eeeeeweqX                  ",
"    %eeeeewwqX                  ",
"    %weeeereqX                  ",
"    &werwweewX                  ",
"    =weweeeewX                  ",
"    3eeeeeeewX                  ",
"    3eeeeeeewX                  ",
"    ;reeeeeewX                  ",
"    1weeeeeewX                  ",
"    2eeeeeeewX                  ",
"    =eeeeeeewX                  ",
"    *eeeeeeewX                  ",
"    *eeeeeeewX                  ",
"    *eeeeeeewX                  ",
"    =eeeeeeewX                  ",
"    =eeeeeeewX                  ",
"    *eeeeeeewX                  ",
"    =eeeeeeewX                  ",
"    -eeeeeeewX                  ",
"    -eeeeeeeeX                  ",
"    *reeeeeee#Oo..XX....        ",
"    =eeeeeeeeee86777766654X     ",
"    -eeeeeeeeeeeeeeeeeeeee$     ",
"    ;eeeeeeeeeeeeeeeeeeeee$     ",
"    +9eeeeeeeeeeeeeeeeeee0@     ",
"     @;;::>,:::::;::,:::-#      "
};
