/* XPM */
static char *char_s_xpm[] = {
/* columns rows colors chars-per-pixel */
"32 32 55 1 ",
"  c #000000",
". c #040404",
"X c #080808",
"o c #0C0C0C",
"O c #101010",
"+ c #151515",
"@ c #1A1A1A",
"# c #1D1D1D",
"$ c #222222",
"% c #272727",
"& c #2F2F2F",
"* c #313131",
"= c #363636",
"- c #393939",
"; c #414141",
": c #434343",
"> c #494949",
", c #4C4C4C",
"< c #515151",
"1 c #535353",
"2 c #585858",
"3 c #5F5F5F",
"4 c #626262",
"5 c #666666",
"6 c #6A6A6A",
"7 c #6C6C6C",
"8 c #717171",
"9 c #767676",
"0 c #7B7B7B",
"q c #818181",
"w c #868686",
"e c #8B8B8B",
"r c #919191",
"t c #939393",
"y c #989898",
"u c #9E9E9E",
"i c #A0A0A0",
"p c #A9A9A9",
"a c #ADADAD",
"s c #B4B4B4",
"d c #B7B7B7",
"f c #BBBBBB",
"g c #BFBFBF",
"h c #C3C3C3",
"j c #C7C7C7",
"k c #CBCBCB",
"l c #D1D1D1",
"z c #D5D5D5",
"x c #D8D8D8",
"c c #DDDDDD",
"v c #E4E4E4",
"b c #E9E9E9",
"n c #ECECEC",
"m c #F0F0F0",
"M c #EFEFEF",
/* pixels */
"                                ",
"         XooooXooooOOOo.        ",
"       .3dffgghhjjjjkjjy+       ",
"       =bbnnbbbbbbbbbbbv*       ",
"       2nbbnbbnnnbnnnbbv*       ",
"      +pbnbbbvvbbbbbbnnb8&      ",
"   .>qdbnbncy>****;rvbbnbz05    ",
"   ,vbbbbnbr.      opbnbbnbj    ",
"   9bnbnnbnr        8nbnbnbh    ",
"   8nbnbnbnr        ;zbbbnng    ",
"   8bnbnbnbr        .-55586:    ",
"   7nbnbnbbr                    ",
"   7bnbnbnbr                    ",
"   1vbbbnbne                    ",
"   X7ilbbnbcu*@@@+OOO@O.        ",
"     X=gnbnbbcxxxxxxcxzp+       ",
"       4bnbnbnbnbbnbbnbv*       ",
"       :vbnbbnbnbnnbbnbv*       ",
"       Xwhjjjjjjjjlbnbnbh3      ",
"        .oO++OO+++#6bbnbbvhy    ",
"                   Xrnbnbbbh    ",
"                    7bnbbnbh    ",
"                    7bbnnbbh    ",
"    &2211>.        .8bnbbnnh    ",
"   ,cnbbbvl5        0bbnnbbh    ",
"  XfmmMmmnbe       .wnbnbnbh    ",
"  .8cbnmMmnr       odbnbnbbh    ",
"   .>9sbbmmxa1>>>,,yvbbnbf0<    ",
"      $fbnmmvbbbbbbnbnbve$      ",
"       6nbbmbbnbnbnbnbnv*       ",
"       <bbbmnbbbbnbnbbbc%       ",
"       Orhajjsaaaasaaap6X       ",
"        oOoOOoXXXoXXXoX         "
};
