/* XPM */
static char *char_f_xpm[] = {
/* columns rows colors chars-per-pixel */
"32 32 47 1 ",
"  c #000000",
". c #060606",
"X c #0C0C0C",
"o c #131313",
"O c #161616",
"+ c #1A1A1A",
"@ c #1E1E1E",
"# c #252525",
"$ c #282828",
"% c #2D2D2D",
"& c #303030",
"* c #353535",
"= c #3A3A3A",
"- c #3E3E3E",
"; c #414141",
": c #464646",
"> c #4E4E4E",
", c #535353",
"< c #555555",
"1 c #5A5A5A",
"2 c #5E5E5E",
"3 c #676767",
"4 c #696969",
"5 c #6D6D6D",
"6 c #737373",
"7 c #767676",
"8 c #7B7B7B",
"9 c #838383",
"0 c #858585",
"q c #8B8B8B",
"w c #8D8D8D",
"e c #959595",
"r c #9D9D9D",
"t c #A4A4A4",
"y c #AEAEAE",
"u c #B6B6B6",
"i c #B9B9B9",
"p c #BDBDBD",
"a c #C0C0C0",
"s c #C5C5C5",
"d c #C7C7C7",
"f c #D2D2D2",
"g c #D7D7D7",
"h c #D8D8D8",
"j c #DDDDDD",
"k c #E2E2E2",
"l c #E7E7E7",
/* pixels */
"       .+#@@######@#@####$@     ",
"      Xrkkkkkkjkkkkkkkjkkkt6    ",
"      -kkkkkjjkkjkjkjkkkkkku=   ",
"      ,kjkkkkkkjkkjkkkkkkjkw.   ",
"      <kkkjjjkkkdaaaaaaaaai5    ",
"      1kkkkkkkju=oXX..XX.XX     ",
"      4kkjkkkjj>                ",
"      4kkkjjkk8.                ",
"      3kkkkjjkh%                ",
"      3kkkkkkk7X                ",
"      2kkkjkkjg#                ",
"      2kkkjkkk9+                ",
"      1kjkjkkkd@                ",
"      1kkkkkkjku#Oo+O+o         ",
"      <kkkkjkkkkkhgkkkd2        ",
"      ,kjkkkjkkjkkkkkjk2X       ",
"      -kkkkkjkkkkkkkkkkt.       ",
"      =kjkjkkkjkkdgdggiO        ",
"      *kkkkjkjks2&%%%%X         ",
"      &kkjkjkkj1                ",
"      %kkkjkkj8.                ",
"      &kjkjkkjh$                ",
"      &kkjkkkk8o                ",
"      =kkkkjkld#                ",
"      ;kkjkkkj0O                ",
"      >kkkkjkks+                ",
"      <kjkkjkke@                ",
"      2kkkkkkjto                ",
"      2kjkkkkka%                ",
"      1kkkjkkkw.                ",
"      Oakkjkjkq                 ",
"       .:,>,>*.                 "
};
