/* XPM */
static char *char_r_xpm[] = {
/* columns rows colors chars-per-pixel */
"32 32 56 1 ",
"  c #000000",
". c #040404",
"X c #090909",
"o c #0E0E0E",
"O c #131313",
"+ c #151515",
"@ c #191919",
"# c #1E1E1E",
"$ c #202020",
"% c #272727",
"& c #313131",
"* c #2D2D2D",
"= c #343434",
"- c #393939",
"; c #3C3C3C",
": c #414141",
"> c #494949",
", c #4E4E4E",
"< c #515151",
"1 c #555555",
"2 c #585858",
"3 c #5D5D5D",
"4 c #606060",
"5 c #656565",
"6 c #676767",
"7 c #6C6C6C",
"8 c #717171",
"9 c #767676",
"0 c #7E7E7E",
"q c #838383",
"w c #868686",
"e c #898989",
"r c #8C8C8C",
"t c #919191",
"y c #939393",
"u c #969696",
"i c #9B9B9B",
"p c #9E9E9E",
"a c #A3A3A3",
"s c #A7A7A7",
"d c #ACACAC",
"f c #B2B2B2",
"g c #B6B6B6",
"h c #BABABA",
"j c #BEBEBE",
"k c #C3C3C3",
"l c #C8C8C8",
"z c #CCCCCC",
"x c #D1D1D1",
"c c #D5D5D5",
"v c #D8D8D8",
"b c #DDDDDD",
"n c #E2E2E2",
"m c #DADADA",
"M c #E7E7E7",
"N c #EFEFEF",
/* pixels */
"   .:1111<<111112211111&        ",
"  .tmMMmMMmMMMMMMmMMMMmz=       ",
"  @vMNMMMMMMMMNMMNMMNMNm0       ",
"  @bNMNMNMNMMMMNMMMMMNNm7       ",
"  $bMMMNMNMMnkjjjjzmMMNMn7@     ",
"  @vMMNMNMMx:X....X2mMMNMMch=   ",
"  @bMMMNNMn3       .iNMMMMMMfo  ",
"  #bNMNMMNm3        wNMNMNMm8.  ",
"  #bNMNNMNb;        wNMNNMMMf+  ",
"  $bMNMMMMx,        wMNMMNMMw   ",
"  #bNMNMMMz@        wNMNNMMMp+  ",
"  $bMNMMMMm7        wMMMMMMMu.  ",
"  #vMMMMMMb*        wMMMNMNMt+  ",
"  #vNMNMNMm5        rMMMMMNMpX  ",
"  @vMMMNMNn;       .wNNMNNMm9o  ",
"  @vNMNMNMm3        rNMNNNMMfo  ",
"  @vNMNMMNm4        uNMNNNMm4X  ",
"  @vMNMNMMMc,      ;vNNNNMvf:   ",
"  @vNMNMNMMMnhhhghjbNNNNb7+.    ",
"  @vMNMNMNMMMMMMMMMMMNNn9X      ",
"  @vNMNMNMNMMMNMMMMNNNNMq       ",
"  #bMNMNMNMNMMMNMMMMNMMMh@      ",
"  #vNMNMNMNms511238jNMMNzs7o    ",
"  #vMNMNMNMa+      +kMNMMMmpX   ",
"  #vMNMNNMM8        wMNMMMMMu   ",
"  #bMMNMMNb*        wMMNMMNmrO  ",
"  #bMNMNNMh-        qMNMNMNMaX  ",
"  #vNMNMMMv-        wMMMMNMM9o  ",
"  &bMNMMMMd#        wMMMNMMMfo  ",
"  #vNMMNMMb;        8MMMMMMm4.  ",
"  .wbbmnnnwX        @jnnmnnk1   ",
"   .=,:::&.          O::;,:&    "
};
