/* XPM */
static char *char_t_xpm[] = {
/* columns rows colors chars-per-pixel */
"32 32 44 1 ",
"  c #000000",
". c #040404",
"X c #090909",
"o c #0D0D0D",
"O c #101010",
"+ c #151515",
"@ c #1B1B1B",
"# c #1C1C1C",
"$ c #232323",
"% c #262626",
"& c #2B2B2B",
"* c #2F2F2F",
"= c #323232",
"- c #363636",
"; c #3A3A3A",
": c #404040",
"> c #444444",
", c #484848",
"< c #4C4C4C",
"1 c #515151",
"2 c #545454",
"3 c #585858",
"4 c #5F5F5F",
"5 c #616161",
"6 c #646464",
"7 c #686868",
"8 c #6F6F6F",
"9 c #787878",
"0 c #828282",
"q c #8A8A8A",
"w c #A3A3A3",
"e c #A6A6A6",
"r c #B3B3B3",
"t c #B6B6B6",
"y c #B8B8B8",
"u c #BCBCBC",
"i c #C0C0C0",
"p c #C9C9C9",
"a c #CFCFCF",
"s c #D3D3D3",
"d c #D5D5D5",
"f c #DADADA",
"g c #DEDEDE",
"h c #E6E6E6",
/* pixels */
"   O488888888888888888888881.   ",
"  Orhhhhhhhhhhhhhhhhhhhhhhhi4   ",
"  ;ghhhhhhhhhhhhhhhhhhhhhhhf<   ",
"  $ahhhhhhhhhhhhhhhhhhhhhhhhq.  ",
"   >errrrughhhhhhhhhhstrrrr0X   ",
"         .:shhhhhhhhw@.         ",
"           9hhhhhhhd=           ",
"           7hhhhhhhi%           ",
"           6hhhhhhhp#           ",
"           5hhhhhhha=           ",
"           5hhhhhhhiO           ",
"           4hhhhhhhd;           ",
"           3hhhhhhhyo           ",
"           3hhhhhhhd:           ",
"           3hhhhhhhyO           ",
"           3hhhhhhhd=           ",
"           2hhhhhhht+           ",
"           2hhhhhhhd*           ",
"           2hhhhhhhy@           ",
"           2hhhhhhhs%           ",
"           2hhhhhhhi%           ",
"           2hhhhhhhp@           ",
"           1hhhhhhha=           ",
"           2hhhhhhhiO           ",
"           :hhhhhhhd;           ",
"           >hhhhhhhyo           ",
"           ,hhhhhhhd-           ",
"           <hhhhhhhtO           ",
"           2hhhhhhhd=           ",
"           >hhhhhhh0            ",
"           oefggggs8.           ",
"            X&****$.            "
};

