/* XPM */
static char *char_c_xpm[] = {
/* columns rows colors chars-per-pixel */
"32 32 58 1 ",
"  c #000000",
". c #040404",
"X c #070707",
"o c #0A0A0A",
"O c #0D0D0D",
"+ c #101010",
"@ c #171717",
"# c #191919",
"$ c #1E1E1E",
"% c #202020",
"& c #272727",
"* c #2A2A2A",
"= c #2D2D2D",
"- c #323233",
"; c #373737",
": c #383839",
"> c #3F3F3F",
", c #434343",
"< c #464646",
"1 c #4B4B4B",
"2 c #4C4C4C",
"3 c #575757",
"4 c #5A5A5A",
"5 c #5D5D5D",
"6 c #616161",
"7 c #676767",
"8 c #696969",
"9 c #6F6F6F",
"0 c #717171",
"q c #777777",
"w c #7D7D7D",
"e c #7F7F7F",
"r c #838383",
"t c #848484",
"y c #8A8A8A",
"u c #8E8E8E",
"i c #909090",
"p c #949494",
"a c #9B9B9B",
"s c #9C9C9C",
"d c #A2A2A2",
"f c #A3A3A4",
"g c #A4A4A4",
"h c #AAAAAA",
"j c #B3B3B3",
"k c #B5B5B5",
"l c #BBBBBB",
"z c #C3C3C3",
"x c #C5C5C5",
"c c #C8C8C8",
"v c #CDCDCD",
"b c #D1D1D1",
"n c #D6D6D6",
"m c #D9D9D9",
"M c #DDE0E0",
"N c #E2E2E2",
"B c #E4E4E4",
"V c #E8E8E8",
/* pixels */
"                                ",
"                                ",
"        +1555545677780;+        ",
"       Xylxxxxxxxcccccj2o       ",
"       +zNBBBBBBBVBBBBc3o       ",
"     X+>nBBBNnbbbnmBBBx9*+X     ",
"    +&<gNBBMvaiipahnBBBci2&X    ",
"   OwnBBBBMd,X  X @6BBBBBNm-X   ",
"   ;sBBBBBMi#     X$MBBBBBB2o   ",
"   >dBBBBBBa&      oibmmmnl*X   ",
"   >dBBBBBBf:       -34444<O    ",
"   >dBBBBBBd-        oooooX     ",
"   :dBBBBBNp@                   ",
"   >dBBBBBbeo                   ",
"   >dBBBBBnr+                   ",
"   >dBBBBBMi$                   ",
"   >dBBBBBMu@                   ",
"   >dBBBBBmtO                   ",
"   ,gVBBBBbeO                   ",
"   ,gBBBBBny$                   ",
"   <gBBBBBBp#                   ",
"   <gBBBBBbeo                   ",
"   <hBBBBBbr+       ,adddp%     ",
"   <hBBBBBmu#      odmMMMni$X   ",
"   :sNBBBBMi$     X%MBBBBBM;X   ",
"   $rvmNBBMp=OoooO#2NBBBNmc:o   ",
"    @;6xBBBMciwqqeibBBBbd3*X    ",
"      o-mBBBBNNNNNNBBBv8#X      ",
"       +cNBBBBBBBBBBBBv4o       ",
"       X7gkkkkkkkkkkkjw=        ",
"        %2344444444443=O        ",
"                                "
};
