/* XPM */
static char *char_j_xpm[] = {
/* columns rows colors chars-per-pixel */
"32 32 47 1 ",
"  c #000000",
". c #060606",
"X c #0B0B0B",
"o c #0C0C0C",
"O c #111111",
"+ c #131313",
"@ c #191919",
"# c #202020",
"$ c #242424",
"% c #282828",
"& c #2D2D2D",
"* c #323232",
"= c #353535",
"- c #3A3A3A",
"; c #3C3C3C",
": c #414141",
"> c #434343",
", c #464646",
"< c #484848",
"1 c #4C4C4C",
"2 c #525252",
"3 c #555555",
"4 c #585858",
"5 c #5B5B5B",
"6 c #5F5F5F",
"7 c #646464",
"8 c #6A6A6A",
"9 c #707070",
"0 c #747474",
"q c #767676",
"w c #7B7B7B",
"e c #808080",
"r c #858585",
"t c #8E8E8E",
"y c #959595",
"u c #9D9D9D",
"i c #A7A7A7",
"p c #B6B6B6",
"a c #BDBDBD",
"s c #C5C5C5",
"d c #C8C8C8",
"f c #D0D0D0",
"g c #D7D7D7",
"h c #DDDDDD",
"j c #E1E1E1",
"k c #E6E6E6",
"l c #EDEDED",
/* pixels */
"                       <255o    ",
"                     5jklhhp    ",
"                    #hhllhhh    ",
"                    -hhljjjk    ",
"                    $hjkkhhl    ",
"                    $jhhlkkl    ",
"                    *lhhhjjh    ",
"                    =lljhhhh    ",
"                    #lllkkk<    ",
"                    #hllllkl    ",
"                    #hhhhjh1    ",
"                    $jjjjjjd    ",
"                    $jjjhjj5    ",
"                    $jjhjjhi    ",
"                    %jjjjjh9    ",
"                    &hjjhjjt    ",
"                    *jjjhjhq    ",
"                    %jhjjjjq    ",
"    .$$@            $jhjhjjt    ",
"  .5jjhj            #jjhjhh9    ",
"  $jjhjhjj0         +jjjjjju    ",
"  >jhjjjjh3         Xjjhhjh7    ",
"  ;jhjjhjhe         Xjjjjhji    ",
"  ;hjjjjjj<         Xhjhjjj4    ",
"  ,hjjjhhjt         ohjjjjja    ",
"  2jjjjjjh:         ojjhjjj2    ",
"  &hjhhjhjs         +jjjhjjd    ",
"   *3tjhjhj8        fjjjht2@    ",
"     .rhjjhjjhgggggjjjjj>.      ",
"      @jjjjhhhjjjjjjjjh7        ",
"      Xgjhjjjjjjjjjhjhjh        ",
"       2paaaaaaapaaaasp>        "
};
