/* XPM */
static char *char_d_xpm[] = {
/* columns rows colors chars-per-pixel */
"32 32 47 1 ",
"  c #000000",
". c #050505",
"X c #0A0A0A",
"o c #0C0C0C",
"O c #131313",
"+ c #141414",
"@ c #1A1A1A",
"# c #1E1E1E",
"$ c #212121",
"% c #262626",
"& c #2D2D2D",
"* c #373737",
"= c #3B3B3B",
"- c #3C3C3C",
"; c #454545",
": c #494949",
"> c #515151",
", c #565656",
"< c #5C5C5C",
"1 c #626262",
"2 c #646464",
"3 c #6B6B6B",
"4 c #717171",
"5 c #747474",
"6 c #7E7E7E",
"7 c #818181",
"8 c #848484",
"9 c #8D8D8D",
"0 c #999999",
"q c #A1A1A1",
"w c #A8A8A8",
"e c #ADADAD",
"r c #B2B2B2",
"t c #B6B6B6",
"y c #B8B8B8",
"u c #BEBEBE",
"i c #C1C1C1",
"p c #C7C7C7",
"a c #CACACA",
"s c #CFCFCF",
"d c #D4D4D4",
"f c #D6D6D6",
"g c #D8D8D8",
"h c #DFDFDF",
"j c #E2E2E2",
"k c #E6E6E6",
"l c #E8E8E8",
/* pixels */
"  .,ypppppppppaaappppppy2X      ",
"  %fkkkkkkkkkkkkkkjkkkkkg*.     ",
"  =kjkkkkkkkkklkkkkkkkkkj1      ",
"  -kkkkkkkkklkklkkkkkkkkkq+  .  ",
"  =kkkkkkkkkg077778ejkkkkjw4:o  ",
"  =klkkkkklh>X    .+9kkkkkkkg3. ",
"  =klkkkklku+       *kkkkkkkkyO ",
"  -kkkkkklkro       #kkkkkkkkio ",
" .-klkkklkkro       $lkkkkkkkio ",
"  =kklklkkkrX       $kkkkkkkkiO ",
"  =klklkkkkro       $kkkkkkkkio ",
"  =kklkkkkkrX       $lkkkkkkkuO ",
"  =kklkkkkkrX       $lkkkkkkkio ",
" .;kkkkkkkkrX       $kkkkkkkkuO ",
" O;kkkkkkkkrX       $kkkkkkkkio ",
"Oo=kkkkkkkkeo       $kkkkkkkkuO ",
"o =kkkkkkkkro       $lkkkkkkkio ",
". =klkkkkkkrX       $kkkkkkkkiO ",
"  =kkkkkkkkro       $lkkkkkkkuo ",
"  =klkkkkkkrX       $kkkkkkkkiOo",
" .-klkkkkkkeX       $kkkkkkkku#X",
"  =kkkkkkkkro       $lkkkkkkkp@ ",
"  =kkkkkkkkrX       $lkkkkkkliO ",
"  =kkkkkkkkro       $kkkkkklkio ",
"  =kkkkkkkkro       %kkkkkkkkiO ",
"  =klkkkkkki+       -lkkkklkkrX ",
" .-kkkkkkkkj5@XXooo%ekkklkkja:. ",
"  =klkkkkkkkjptyyyysklklkh6*&X  ",
"  =kkkkkkkkkkkkklkkkkklkk9o .O. ",
"  *kkkkkkkkkkkkkkkkkklkkj<.  .+ ",
"  #skkkkkkkkkkkkkkkkkkkkf&    .+",
"  .-qytytytytytyttyuyttw:      ."
};
