/* XPM */
static char *char_g_xpm[] = {
/* columns rows colors chars-per-pixel */
"32 32 52 1 ",
"  c #000000",
". c #070707",
"X c #0B0B0B",
"o c #0D0D0D",
"O c #111111",
"+ c #161616",
"@ c #191919",
"# c #1E1E1E",
"$ c #1A1A1A",
"% c #272727",
"& c #2A2A2A",
"* c #313131",
"= c #353535",
"- c #404040",
"; c #424242",
": c #474747",
"> c #535353",
", c #555555",
"< c #5F5F5F",
"1 c #595959",
"2 c #646464",
"3 c #666666",
"4 c #6C6C6C",
"5 c #777777",
"6 c #797979",
"7 c #7E7E7E",
"8 c #898989",
"9 c #8E8E8E",
"0 c #8A8A8A",
"q c #959595",
"w c #989898",
"e c #909090",
"r c #A0A0A0",
"t c #A3A3A3",
"y c #AEAEAE",
"u c #B7B7B7",
"i c #B2B2B2",
"p c #C1C1C1",
"a c #C6C6C6",
"s c #C9C9C9",
"d c #D5D5D5",
"f c #D7D7D7",
"g c #D2D2D2",
"h c #DDDDDD",
"j c #DCDCDC",
"k c #CACACA",
"l c #E1E1E1",
"z c #DDDDDD",
"x c #D9D9D9",
"c c #E6E6E6",
"v c #E0E0E0",
"b c #E7E7E7",
/* pixels */
"       .8ywwq0990qqwewq>        ",
"       avvvvvvvvvvvcvvvz-       ",
"      @vvvvvvvvvvvvvvvvhO       ",
"      2vvvvvvbvvvvvvvvvvso      ",
"   O;5xvvvvxr54444wlvbvvvp;*.   ",
"  +hvvvvvvc5.   . .>cvbvvvvc6   ",
"  0vvvvvvvhO       Xgvvvvvvv8X  ",
"  rvvvvvvvwO        ivvbvvvby   ",
"  evvvbbvvjO        &akkkkkt.   ",
"  evvvvvvv9o         XO+O+O     ",
"  rvvvvbvvk@                    ",
"  ebbbvvvv5.                    ",
"  ebvvbvvvl#                    ",
"  evvbvvvv5      ->>>>>>>,,-    ",
"  evvbvvvvz$    tvvvbvvvvvvv>   ",
"  wvvvbbvv6    $vvvvvvvvbvbvjX  ",
"  0vvbbvbvk$   @xvvvvvvbvbvv2   ",
"  0vvvvvbvw     1dkvvvvvvbbvdX  ",
"  0vvvvbvvf#     o$evvbbbbvv9.  ",
"  qvvvvbvvpX       +kvvvvvvvuX  ",
"  qvvvvvbvp@       .fvvvbvvvt   ",
"  wvvvbvvvdo       .gvbvvvvvw.  ",
"  evvvbvvvr+       .gvvvvbbvp.  ",
"  evvvvvvvho       .fvvbvvvv6X  ",
"  evvvvvvvqo        gvvbbvvva.  ",
"  5vvvvvvvl%       +kvvvvvvv<.  ",
"  o7azvvvvvh*@OOoo$rvvvvvzs,+   ",
"    X$dvvvcvcljjhhxvvvvvl;o.    ",
"      ;cvvvvvvvvvvvvvvvv3       ",
"      Ocbvvvvvvvvvvvvvbv<       ",
"       ubvvvvvvvvvvvvvvq        ",
"        =:::::::::::::&         "
};
