/* XPM */
static char *char_p_xpm[] = {
/* columns rows colors chars-per-pixel */
"32 32 50 1 ",
"  c #000000",
". c #060606",
"X c #0B0B0B",
"o c #121212",
"O c #141414",
"+ c #1A1A1A",
"@ c #1C1C1C",
"# c #212121",
"$ c #2B2B2B",
"% c #2F2F2F",
"& c #313131",
"* c #343434",
"= c #3B3B3B",
"- c #424242",
"; c #494949",
": c #4E4E4E",
"> c #565656",
", c #585858",
"< c #606060",
"1 c #6B6B6B",
"2 c #6F6F6F",
"3 c #747474",
"4 c #787878",
"5 c #7A7A7A",
"6 c #7E7E7E",
"7 c #828282",
"8 c #878787",
"9 c #8B8B8B",
"0 c #8E8E8E",
"q c #909090",
"w c #979797",
"e c #9B9B9B",
"r c #9E9E9E",
"t c #A1A1A1",
"y c #A6A6A6",
"u c #AAAAAA",
"i c #B2B2B2",
"p c #B6B6B6",
"a c #B9B9B9",
"s c #BEBEBE",
"d c #C3C3C3",
"f c #C4C4C4",
"g c #CACACA",
"h c #CECECE",
"j c #D2D2D2",
"k c #D6D6D6",
"l c #DBDBDB",
"z c #DEDEDE",
"x c #E3E3E3",
"c c #E6E6E6",
/* pixels */
"                                ",
"    =534432333234577895o        ",
"   >xccccccccccccccccccdo       ",
"   ycccccccccccccccccccc7       ",
"   ucccccccccccccccccccl#       ",
"   uccccccccjq66660hccccj0=o    ",
"   yccccccca@      %jcccxccfo   ",
"   tccccccc7        rccccccci   ",
"   eccccccct        wccccccz$   ",
"   wccccccj@        qccccccxi.  ",
"   0ccccccz9        0ccccccx:   ",
"   8ccccccz-        0ccccccx0.  ",
"   7cccccck1        0ccccccx4   ",
"   9ccccccc<        9ccccccz1.  ",
"   7ccccccj;        9cccccccq   ",
"   6ccccccc8        0ccccccz-   ",
"   0cccccch@        rcccccccu   ",
"   0ccccccca.      @kccccccl+   ",
"   wcccccccczw22224hcccccu,%.   ",
"   wcccccccccccccccccccciX      ",
"   wccccccccccccccccccck$       ",
"   eccccccccccccccccccxp&       ",
"   ecccccccclywwwwwwwwq:        ",
"   ecccccccgo                   ",
"   eccccccc8                    ",
"   ecccccch#                    ",
"   rccccccct                    ",
"   tccccccj+                    ",
"   uccccccz0                    ",
"   eccccccz*                    ",
"   $fzzzzzs%                    ",
"    O&&&&&O                     "
};
