/* XPM */
static char *char_7_xpm[] = {
/* columns rows colors chars-per-pixel */
"32 32 56 1 ",
"  c #000000",
". c #020202",
"X c #0B0B0B",
"o c #050505",
"O c #070707",
"+ c #0A0A0A",
"@ c #1E1E1E",
"# c #232323",
"$ c #272727",
"% c #282828",
"& c #2F2F2F",
"* c #313131",
"= c #343434",
"- c #3A3A3A",
"; c #414141",
": c #464646",
"> c #1D1D1D",
", c #4E4E4E",
"< c #202020",
"1 c #565656",
"2 c #585858",
"3 c #252525",
"4 c #646464",
"5 c #6A6A6A",
"6 c #6D6D6D",
"7 c #2D2D2D",
"8 c #767676",
"9 c #808080",
"0 c #848484",
"q c #898989",
"w c #8E8E8E",
"e c #929292",
"r c #959595",
"t c #3C3C3C",
"y c #A2A2A2",
"u c #A7A7A7",
"i c #444444",
"p c #B2B2B2",
"a c #B4B4B4",
"s c #484848",
"d c #C1C1C1",
"f c #4E4E4E",
"g c #4F4F4F",
"h c #525252",
"j c #545454",
"k c #565656",
"l c #575757",
"z c #585858",
"x c #565656",
"c c #5A5A5A",
"v c #EAEAEA",
"b c #EFEFEF",
"n c #5F5F5F",
"m c #F4F4F4",
"M c #F9F9F9",
"N c #636363",
/* pixels */
"                                ",
".-11111111<<12<1111<111<<11<1,* ",
"X9kzzzzzxzlllxkxlzzlxxzzzlzlzj8X",
"owbMMMMMMMMMMNMNmMMMNMMMMMMMMb0.",
"XqvmnnmnnnbMMMmMMmMMmmmmmmMmmc9.",
"oenNMNMNMvsspsssaaaspfbMMMMMMc0X",
"ownmmMMMna1-=&**&&&**1gMMmMmmvq.",
"XwnMMMMMnu#          %sMMMMMNv9X",
"XenMMMMNmu@        . &sNMmmMmv9X",
"X6fhhhhhg0+      o*=-2gNMmzhjf4.",
".=:;;;;;;&X      $tdsgvmMvr<>:*.",
"                 =kNmmNMMx5o. . ",
"                 =jMmmNMMx6o    ",
"             o#%$2jMMnczzh4O    ",
"             *waidbMMzw32<%X    ",
"             :jnbnMNml<         ",
"             :kmmmnMMl,         ",
"         .oO+3lMMMvvcg:         ",
"         -9weabmMzr884$         ",
"         2knmmMmnf@             ",
"         3zMMmmmMh@             ",
"         2cmmmmMng+             ",
"         3vMMMmMMg+             ",
"         2cMmMMMmg+             ",
"         2vMmMMMMf+             ",
"         2vMMMmMMg+             ",
"         3vMmmMMMf@             ",
"         2cMMMMMmg+             ",
"         2xMMNMMMg+             ",
"         4kbbmmmnf+             ",
"         <eyyuyuy0O             ",
"         .XXXXXXoX              "
};
