/* XPM */
static char *char_8_xpm[] = {
/* columns rows colors chars-per-pixel */
"32 32 61 1 ",
"  c #000000",
". c #060606",
"X c #0B0B0B",
"o c #0C0C0C",
"O c #070707",
"+ c #151515",
"@ c #1B1B1B",
"# c #0F0F0F",
"$ c #222222",
"% c #252525",
"& c #2A2A2A",
"* c #2C2C2C",
"= c #313131",
"- c #343434",
"; c #393939",
": c #3E3E3E",
"> c #1A1A1A",
", c #464646",
"< c #4C4C4C",
"1 c #212121",
"2 c #5D5D5D",
"3 c #272727",
"4 c #282828",
"5 c #686868",
"6 c #6C6C6C",
"7 c #717171",
"8 c #777777",
"9 c #7B7B7B",
"0 c #7C7C7C",
"q c #808080",
"w c #353535",
"e c #888888",
"r c #313131",
"t c #929292",
"y c #3A3A3A",
"u c #949494",
"i c #979797",
"p c #9B9B9B",
"a c #B8B8B8",
"s c #ACACAC",
"d c #B2B2B2",
"f c #B7B7B7",
"g c #5D5D5D",
"h c #BFBFBF",
"j c #C8C8C8",
"k c #CECECE",
"l c #CCCCCC",
"z c #D5D5D5",
"x c #868686",
"c c #DDDDDD",
"v c #565656",
"b c #F6F6F6",
"n c #E1E1E1",
"m c #949494",
"M c #EFEFEF",
"N c #5E5E5E",
"B c #F9F9F9",
"V c #FDFDFD",
"C c #989898",
"Z c #FFFFFF",
"A c #C0C0C0",
/* pixels */
"     .XoXooooooooooooX          ",
"     <psssddddadfsdfd0X         ",
"     5NCVCCVVCVCVVCVVgO         ",
"     5BCCCVCCZZZCCCVCh*         ",
" @%$%qVCCVbnnmbnbbbcnf,$$#X     ",
" 2paplCVBh743445234467ypu0$     ",
" wBBBCCVByO          ;vCVl=     ",
" eCCCVCZBuo          :nZCk=     ",
" qVAZCCZBi#XX        :nAAk-     ",
" qNCCVCZVzuer2o      :nCZl-     ",
" qVZZZCCCZVBNiO      :nZZj=     ",
" 0BZZCVCZCZBCs+      ;vVCj=     ",
" 0MBNVZCCCZZCf#      -cVBg=     ",
" ,898fNZCZCAVvw57756599982+     ",
"  . X8NCCZCCZCVVBBVNBf%.        ",
"     6NVVVVCAZZCZZAZCg$         ",
"     5mVNBVVNBZVZCAZZh%         ",
" ,898ewqwwqqqsVZZZAZZnt9908992@ ",
" 0mNMi+XoXXXo3mZZZZZZCBMNBMMNh= ",
" qVZBuX      1MZZVZZCZZAAZZZZz; ",
" qCZVi.      1vVBBBNBVCCZZZCZx; ",
" 9VZCyX      =9terretfBZZZVVCc; ",
" 9BAVuX              :nZZCZCZz- ",
" wBCBu.              :nZCVVVCz; ",
" qNCMuo... . .. .....>bVCZCVCk; ",
" 1eter755657567656456iNCZmfyiq& ",
"     7cmmmnmnMmnnmmbnBCCZk<++@X ",
"     6NZZZZZZZZZCZZZZCCCCl=     ",
"     5bBVBBBBBBBBBBBVBBBNj=     ",
"     <ryyyyuuuyyyuuuyutiu0%     ",
"     O@+@+@++@++@++++++@@@X     ",
"                                "
};
