/* XPM */
static char *char_5_xpm[] = {
/* columns rows colors chars-per-pixel */
"32 32 59 1 ",
"  c #000000",
". c #060606",
"X c #080808",
"o c #0D0D0D",
"O c #101010",
"+ c #161616",
"@ c #1F1F1F",
"# c #222222",
"$ c #262626",
"% c #282828",
"& c #2F2F2F",
"* c #323232",
"= c #353535",
"- c #383838",
"; c #3C3C3C",
": c #424242",
"> c #474747",
", c #484848",
"< c #4F4F4F",
"1 c #565656",
"2 c #5E5E5E",
"3 c #656565",
"4 c #696969",
"5 c #717171",
"6 c #767676",
"7 c #787878",
"8 c #7F7F7F",
"9 c #808080",
"0 c #858585",
"q c #888888",
"w c #8F8F8F",
"e c #909090",
"r c #979797",
"t c #9A9A9A",
"y c #9D9D9D",
"u c #A2A2A2",
"i c #A4A4A4",
"p c #AAAAAA",
"a c #ADADAD",
"s c #B0B0B0",
"d c #B5B5B5",
"f c #BBBBBB",
"g c #BEBEBE",
"h c #C1C1C1",
"j c #C4C4C4",
"k c #C8C8C8",
"l c #CFCFCF",
"z c #D1D1D1",
"x c #D4D4D4",
"c c #D9D9D9",
"v c #DCDCDC",
"b c #E3E3E3",
"n c #E6E6E6",
"m c #EAEAEA",
"M c #EDEDED",
"N c #F0F0F0",
"B c #F6F6F6",
"V c #F8F8F8",
"C c #FCFCFC",
/* pixels */
"                                ",
"  XoooXXXXoXoooXoXooooOOOX      ",
" .1uiuuyttttyyyyyyyyyuipi9O     ",
" X9MBBBBBBBBNBBBBVBBBBBVVk%     ",
" .qNBVBVVBBBBVVCVVVVVVCCCk#     ",
" .8NVBVBBBbxxxcxvccccxxcxiO     ",
" .9NBBBBBne<****=*****&*=&o     ",
" .0MVBVBBb2.                    ",
" .9MVVVVVb3.                    ",
" X0NCVVVVn7o.  . .   .  .       ",
" X9NCVCVVVxieweeewwwwweww7o     ",
" .0NVVVVVCVBVBVVBVVBBNBBVk@     ",
" XwNVVBVVCCCVCVBVVCVNVVVVz$     ",
" X5jllllllzzlzzllkllkxNCVj=ooo  ",
" X-<,,,,,,,<>,:>>>>:>2lVBmhaaw+ ",
"  ..  .   .          OdCVBBBBl= ",
"                     XdVVBVVVl% ",
"                     XsCVBVBVz& ",
"                     XsVVBBBVl= ",
"                     osVBNVBBl$ ",
"                     XsVBNBBBl& ",
" .#&*&&&&$o          odVNBBBBl= ",
" X6gjkjkkp&          XpVVVBVBl# ",
" orMBVBBVb,          oaVBBNBBz* ",
" oeMBVVBBv%          osVNVBBBl& ",
" X6fhhbVBm7X.. ... ..$zVBBkggy# ",
" .*;=;pBVCbgssddssssshMVBx4=-=o ",
"     .wNNVVVVVVVVVVVBBNBCk>.    ",
"     .wMNBNNBNNBBBNBNNNNBj,.    ",
"     X4upiaapaappppiiiuupw>X    ",
"      @#$##$$$$#$$%$$##$%$+     ",
"                                "
};
