/* XPM */
static char *char_6_xpm[] = {
/* columns rows colors chars-per-pixel */
"32 32 57 1 ",
"  c #000000", 
". c #060606",
"X c #080808", 
"o c #0E0E0E",
"O c #121212", 
"+ c #141414", 
"@ c #181818",
"# c #1D1D1D",
"$ c #222222",
"% c #252525",
"& c #2B2B2B", 
"* c #2C2C2C",
"= c #303030", 
"- c #373737",
"; c #383838", 
": c #3D3D3D", 
"> c #404040", 
", c #5B5B5B",
"< c #5E5E5E", 
"1 c #626262",
"2 c #656565",
"3 c #6B6B6B", 
"4 c #6C6C6C",
"5 c #717171",
"6 c #747474",
"7 c #787878", 
"8 c #7E7E7E",
"9 c #818181",
"0 c #878787", 
"q c #8A8A8A", 
"w c #8E8E8E",
"e c #939393",
"r c #9D9D9D",
"t c #A0A0A0",
"y c #A7A7A7",
"u c #A8A8A8", 
"i c #ADADAD", 
"p c #AFAFAF", 
"a c #B6B6B6",
"s c #B9B9B9",
"d c #BCBCBC",
"f c #C1C1C1",
"g c #C6C6C6",
"h c #CACACA",
"j c #CECECE",
"k c #D2D2D2",
"l c #D6D6D6", 
"z c #DBDBDB", 
"x c #DEDEDE", 
"c c #E0E0E0", 
"v c #E6E6E6",
"b c #EAEAEA", 
"n c #EDEDED", 
"m c #F2F2F2", 
"M c #F7F7F7", 
"N c #F9F9F9",
"B c #FCFCFC", 
/* pixels */
"                                ",
"                                ",
"         Osghjjhhhhhhhjgd1.     ",
"         >vMBBBBBBBBBNNNn7o     ",
"         &vMmMMNNNNNNNNMv5o     ",
"         6bMMxsdddddddfsp1o     ",
"      ukjzMmMi:*******-&=$X     ",
"     XxNBNNmme@                 ",
"     XxMNNmMne@                 ",
"  .%%1bMNcadp2o                 ",
"  yljxNNMu;-=@.                 ",
" XzNMNmMMt.                     ",
" OcNNNMNNuX                     ",
" +cNMmMMmf*OOOOOOOOOOOO@&X      ",
" #cNMMNNNMxxxxzxzczxcxxxh2      ",
" $cMMNNNNNNBBNmNMBMNNMNNb6      ",
" +cMMNNNNMmNNMmNmMMNmNBNb4      ",
" OcMMNNNNxiuuyyuyuyyulNNny&#@o  ",
" OcMMNNNmt=######$##%emNNmvcj<X ",
" OcMMNNNMtX          8MMNMMNv2. ",
" +xNNNNNMyX          7MmNMMNc1X ",
" +xMMMNMMyX          7MMNMNMv1X ",
" +vMNNMNmtX          2mNBNNNv2X ",
" ozmMNmNmrX          8MNMmMmc2. ",
" XkMMMNMnro          7NMNMMMc3o ",
" .9wwimNMk3-=-------:dNMmswq0:. ",
"    .,cMNMvnbbbnnnbnbmMMv6#O+o  ",
"     ,vMNNBBNNBNNNNBBBNBb4o     ",
"     <kbbbnnbbnbvbbbnbvbl6o     ",
"     %,32<<<<,<,,12334453>X     ",
"                     .ooo.      ",
"                                "
};
