/* XPM */
static char *char_4_xpm[] = {
/* columns rows colors chars-per-pixel */
"32 32 59 1 ",
"  c #000000",
". c #040404",
"X c #0B0B0B",
"o c #0E0E0E",
"O c #101010",
"+ c #151515",
"@ c #181818",
"# c #1E1E1E",
"$ c #212121",
"% c #252525",
"& c #2A2A2A",
"* c #2E2E2E",
"= c #323232",
"- c #343434",
"; c #393939",
": c #3D3D3D",
"> c #404040",
", c #444444",
"< c #515151",
"1 c #585858",
"2 c #5A5A5A",
"3 c #5F5F5F",
"4 c #646464",
"5 c #6B6B6B",
"6 c #6C6C6C",
"7 c #707070",
"8 c #767676",
"9 c #787878",
"0 c #7F7F7F",
"q c #818181",
"w c #868686",
"e c #8B8B8B",
"r c #8E8E8E",
"t c #929292",
"y c #959595",
"u c #9A9A9A",
"i c #9C9C9C",
"p c #A0A0A0",
"a c #A3A3A3",
"s c #AAAAAA",
"d c #ACACAC",
"f c #B3B3B3",
"g c #B5B5B5",
"h c #B9B9B9",
"j c #BDBDBD",
"k c #C0C0C0",
"l c #C5C5C5",
"z c #CACACA",
"x c #D2D2D2",
"c c #D5D5D5",
"v c #DADADA",
"b c #E1E1E1",
"n c #E4E4E4",
"m c #EAEAEA",
"M c #EDEDED",
"N c #F1F1F1",
"B c #F7F7F7",
"V c #FBFBFB",
"C c #FDFDFD",
/* pixels */
"               .XXXXoXXXX       ",
"             $0rttyyytrrt4o     ",
"             2bMNMMNMMMMms%     ",
"             4MVVBBVVBNBNg&     ",
"            .8mBBBBNBBVVBg&.    ",
"         =468hNBBNBBBBNNMd%     ",
"         qbmMNBBBBBBBBVBNd$.    ",
"         eNBVVVVVBBBBBBBNf&     ",
"         wMBBBMMmMBBCNBVBg%     ",
"     $333gNBBzutyhNVVBVVBf&.    ",
"     qbnbmVNmt%#%9nVBBBVBf%     ",
"  . XyNBVBVNmtOoO6nVNBBVNg%.    ",
"    XtMBVMMNmr+OO6nBNVBVBf&.    ",
" $,:<kNBBlyuy2+oO6bBBVVVBg%     ",
".evvvNVBne&&$@Xo+5nBVBVVMf$     ",
".dBVCVVVM8oOOO+++7mNBMBVMj%     ",
" pNVVVVVm8OoXoooO7mNBBVBNh$     ",
" yNBBVBVMp4212224imBVBBBNz5*&+  ",
" pNBBBBVVncxxvcxvbNVBMBBVMcxxiO ",
" pNVVBBVBBVBNVVNVBNVBBVVVBVBBj& ",
" pNCVBBBBBBBNBBBBBBVBVBNVVBBBk$ ",
".0ghhhghhghghhghhcMNVBVVBnhjlwO ",
" $-;-;-;--==---;:emBBBVVNh<-;&X ",
"  o.X...    . XXo5nVBBBBBs%...  ",
"                o6bBVVBVBd%.    ",
"                O7bBBBBVBf%     ",
"                o7nVBNBVNd%     ",
"                o7mVBBBVNd*.    ",
"                +qnVVBBVBd*     ",
"                +6fkljjkhy-o    ",
"                 %::>:>>;&+.    ",
"                 .X.X... ..     "
};
