/* XPM */
static char *char_0_xpm[] = {
/* columns rows colors chars-per-pixel */
"32 32 61 1 ",
"  c #000000",
". c #050505",
"X c #0A0A0A",
"o c #0D0D0D",
"O c #121212",
"+ c #171717",
"@ c #191919",
"# c #1D1D1D",
"$ c #212121",
"% c #262626",
"& c #2F2F2F",
"* c #313131",
"= c #353535",
"- c #3B3B3B",
"; c #3D3D3D",
": c #404040",
"> c #464646",
", c #4A4A4A",
"< c #4E4E4E",
"1 c #515151",
"2 c #545454",
"3 c #585858",
"4 c #5D5D5D",
"5 c #626262",
"6 c #646464",
"7 c #696969",
"8 c #6D6D6D",
"9 c #727272",
"0 c #777777",
"q c #7A7A7A",
"w c #7E7E7E",
"e c #828282",
"r c #878787",
"t c #8A8A8A",
"y c #8D8D8D",
"u c #929292",
"i c #959595",
"p c #989898",
"a c #9F9F9F",
"s c #A2A2A2",
"d c #A5A5A5",
"f c #AFAFAF",
"g c #B2B2B2",
"h c #B9B9B9",
"j c #BFBFBF",
"k c #C3C3C3",
"l c #C5C5C5",
"z c #C8C8C8",
"x c #CFCFCF",
"c c #D6D6D6",
"v c #DADADA",
"b c #DBDBDB",
"n c #E1E1E1",
"m c #E7E7E7",
"M c #ECECEC",
"N c #EEEEEE",
"B c #F5F5F5",
"V c #F7F7F7",
"C c #FAFAFA",
"Z c #FCFCFC",
"A c #FDFDFD",
/* pixels */
"                                ",
"          3w988000ywerO         ",
"         ozBVVBBVBCBBm4         ",
"         XxZZCZCZCCCZN;         ",
"         XlBNMBNBMVZZN;         ",
"     o<144etytrertzZZCi;>3O     ",
"     ;cMNk;XoOooo#sCZZVMNmq.    ",
"     -mCZd.      XsZCCCZCC:     ",
"     &mZZg$      oaBBVCCZB6X    ",
" O*=#0MCCjO      .3ppdbCZVu;:4O ",
" 1xmvMZCCdO       .#O@dCCZBnbbe.",
" 6BZVZCVCl$           tVBVZZZZ5.",
" 4BCVCZZZs.           uCCCVCVCyX",
" 4NCCBVCCf#           tCCZBCZZq ",
" 5NZCVCZZjO           tCZZCZZCi+",
" 5BZVCCCZsO           wCZCZCZCuX",
" 4BZVVCCZl%           wCZCZCZCuo",
" 4BCCCCCZs.           rCZCZCZZpO",
" 2BZCVCCZf$           yCZCZCZZu.",
" <BCCCCCZjO           yCZCACAZp+",
" :BZCVCCZso           uCZCZVZZu.",
" =cnvnCVZx-           uVZZMvvbwo",
" +<<<yBZCmgew7O       yCZVd3,2$ ",
"  X..<nZZZCCZl+       wZZBt+..  ",
"     >nZZZCVZj%       0CCVtX    ",
"     :xnnMCZZz-       8bMbeo    ",
"     +753wvCZMh08976789699:.    ",
"      X  +xAZZCBCCVVCl& .X.     ",
"         ocAVAZZZZZZZV>         ",
"         ohnbnbnnmnnmv=         ",
"          ,65552233342@         ",
"           .                    "
};
