/* XPM */
static char *char_1_xpm[] = {
/* columns rows colors chars-per-pixel */
"32 32 52 1 ",
"  c #000000",
". c #060606",
"X c #090909",
"o c #0F0F0F",
"O c #121212",
"+ c #151515",
"@ c #1A1A1A",
"# c #1E1E1E",
"$ c #202020",
"% c #242424",
"& c #292929",
"* c #2C2C2C",
"= c #333333",
"- c #343434",
"; c #393939",
": c #3C3C3C",
"> c #444444",
", c #4B4B4B",
"< c #565656",
"1 c #5A5A5A",
"2 c #5B5B5B",
"3 c #686868",
"4 c #717171",
"5 c #7E7E7E",
"6 c #848484",
"7 c #8E8E8E",
"8 c #929292",
"9 c #949494",
"0 c #989898",
"q c #A0A0A0",
"w c #A4A4A4",
"e c #AFAFAF",
"r c #B1B1B1",
"t c #B6B6B6",
"y c #BBBBBB",
"u c #BCBCBC",
"i c #C0C0C0",
"p c #C6C6C6",
"a c #C7C7C7",
"s c #CECECE",
"d c #D1D1D1",
"f c #D5D5D5",
"g c #DBDBDB",
"h c #DFDFDF",
"j c #E4E4E4",
"k c #E7E7E7",
"l c #EAEAEA",
"z c #EEEEEE",
"x c #F2F2F2",
"c c #F7F7F7",
"v c #FBFBFB",
"b c #FDFDFD",
/* pixels */
"               . ..             ",
"           .19899905X           ",
"           @avxxcxxp=           ",
"           +abcccvba$           ",
"           +pvvvcccu$           ",
"       o1336kxcvcxvd-           ",
"       :fxzzcxcccccpO           ",
"       -gccvxxccxcba*           ",
"       -dlklcxvcccbs%           ",
"       #466qkvccccvi@           ",
"        .oX;dvxcccvs*           ",
"           &dvcvcxbi+           ",
"           *dbcvccv7o           ",
"           &sbccccvu#           ",
"           &dvccccvqX           ",
"           #svvccvb9+           ",
"           #svccccvu+           ",
"           @avccxcb7.           ",
"           @avcxcxvt@           ",
"           +accxxcveo           ",
"           @avcxxcb8+           ",
"           @avccxcva#           ",
"           @acccccvu#           ",
"           @avxxxxvs*           ",
"           OabcxxxvuO           ",
"    X......%dxcxxxcg4OOO@$##    ",
"   $ruuuupypzzcxxlzzfupadddy;   ",
"   :kvvvcvcvbvvvvcvvvvbvbcvg-   ",
"   ,hbcccccccccccccccccccxcg<   ",
"   ;qtrrtrrrrrrrerrrrrrrerrw>.  ",
"   O*%#$#+@+OOO++@@$%&%&*=--@   ",
"                                "
};
