/* XPM */
static char *char_3_xpm[] = {
/* columns rows colors chars-per-pixel */
"32 32 58 1 ",
"  c #000000",
". c #040404",
"X c #0B0B0B",
"o c #0F0F0F",
"O c #131313",
"+ c #141414",
"@ c #191919",
"# c #1C1C1C",
"$ c #232323",
"% c #242424",
"& c #282828",
"* c #2C2C2C",
"= c #323232",
"- c #373737",
"; c #393939",
": c #3F3F3F",
"> c #414141",
", c #434343",
"< c #4A4A4A",
"1 c #4E4E4E",
"2 c #515151",
"3 c #555555",
"4 c #5B5B5B",
"5 c #5E5E5E",
"6 c #6B6B6B",
"7 c #6F6F6F",
"8 c #727272",
"9 c #7B7B7B",
"0 c #838383",
"q c #878787",
"w c #8E8E8E",
"e c #929292",
"r c #949494",
"t c #9A9A9A",
"y c #9C9C9C",
"u c #A7A7A7",
"i c #AAAAAA",
"p c #AEAEAE",
"a c #B2B2B2",
"s c #B4B4B4",
"d c #B9B9B9",
"f c #BEBEBE",
"g c #C0C0C0",
"h c #C7C7C7",
"j c #CACACA",
"k c #CDCDCD",
"l c #D0D0D0",
"z c #D4D4D4",
"x c #DADADA",
"c c #DDDDDD",
"v c #E5E5E5",
"b c #E6E6E6",
"n c #E9E9E9",
"m c #EFEFEF",
"M c #F2F2F2",
"N c #F6F6F6",
"B c #F9F9F9",
"V c #FCFCFC",
/* pixels */
"                                ",
"     XO+++ooooooooooOooOoO+++o  ",
"    .8sddssaipapsiaaaapspdddwo  ",
"    .iNNBBBBBBBNVBBBNBNVNBNMg*  ",
"    .iBBBBBVBBBBBBBVBVVVNNNBh=  ",
"    .qhllllkkkkjjMBBVBVBmkhze$  ",
"     &>>>>::;;;:1kBBVBBMk5-<=O  ",
"                .sBNVVVNg#      ",
"                .aBNNNBmg@      ",
"             oOO#fNNmkkhto      ",
"            .0dfdMBVc4-:-.      ",
"            .dNBNBNBl*          ",
"            .sBBVBNBl&          ",
"         o%@-hVBBNNNk<#$@       ",
"         8jglmBVBNBBnlhgeo      ",
"        .pBNNNNBNNBBNNBNl%      ",
"         uBBNBBVBBBBBBBNj$      ",
"         9dgfgdfdddfhMVBl2&-=o  ",
"         #&=&*&%$%$#-kBBNlkky$  ",
"                    ohVBNNNNf&  ",
" . .                OhNBNNNMg&  ",
" %33<11<*.          ogVMMNNNd*  ",
" 3xxxxzzf&          OgNBNMNNd*  ",
" 6NMVBNVm&          OgBBNMNNd*  ",
" 6NNMBMVb$          ohBBBNBNs*  ",
" >ppibBVm7***&*&&%&%>zBBnfad9@  ",
" O$$$aMBNxzxxzcccxblbBNBh1@$#.  ",
"     rMNNNBBVBVBVBVVVBBNg*      ",
"     ymmMMMNMMmMMMMMNMMMg-      ",
"    .8eetrrreeereererrrr0-X     ",
"     @#@@##@@+@@@#@##$$##+.     ",
"                                "
};
