/* XPM */
static char *char_9_xpm[] = {
/* columns rows colors chars-per-pixel */
"32 32 61 1 ",
"  c #000000",
". c #030303",
"X c #080808",
"o c #0A0A0A",
"O c #111111",
"+ c #151515",
"@ c #181818",
"# c #0B0B0B",
"$ c #222222",
"% c #272727",
"& c #2A2A2A",
"* c #2F2F2F",
"= c #313131",
"- c #151515",
"; c #1E1E1E",
": c #3E3E3E",
"> c #191919",
", c #464646",
"< c #1E1E1E",
"1 c #1E1E1E",
"2 c #212121",
"3 c #282828",
"4 c #1E1E1E",
"5 c #2E2E2E",
"6 c #313131",
"7 c #282828",
"8 c #2E2E2E",
"9 c #333333",
"0 c #353535",
"q c #383838",
"w c #3B3B3B",
"e c #3C3C3C",
"r c #3E3E3E",
"t c #3F3F3F",
"y c #434343",
"u c #464646",
"i c #191919",
"p c #494949",
"a c #4B4B4B",
"s c #4D4D4D",
"d c #505050",
"f c #535353",
"g c #555555",
"h c #575757",
"j c #5B5B5B",
"k c #5D5D5D",
"l c #5E5E5E",
"z c #626262",
"x c #656565",
"c c #676767",
"v c #6A6A6A",
"b c #6C6C6C",
"n c #6E6E6E",
"m c #707070",
"M c #737373",
"N c #757575",
"B c #797979",
"V c #7C7C7C",
"C c #808080",
"Z c #828282",
"A c #858585",
/* pixels */
"                                ",
"     %ruyyiuiurrwwewrtyuii=     ",
"     5VZZZZZCCZZCVCCZCCZCM1     ",
"     4VCZZZZZAAZCZZZZCZZZN1     ",
"     7VVCVbnmMnbnmnnnmCZZM5     ",
" $60tzCCBh94588647787wxCZCkw05# ",
".pNNNVCZmqX  ... ....+dVZZBNBm9.",
".dZZZCCZN9           OfVZCVCAV0 ",
"ofZZZZAAN8.          +fCZZCZZBq.",
"odCZCZAZB8           osCZCZZCBw.",
"XdZZZAZZB9.          +fCZCZCZBq ",
"XfZCZZCCB9.          +fCZZZZCBq ",
"OdCVVZZZN7           osCZZZZCBw ",
"oqgfgnZZBs%OXX.X.X...&lVZCZCZBw ",
" @&$=aBAAVxlklklklkkjxVZCZZZCBq ",
"     9BVVZAAAAAAAAAZZCCCZZZZZBq ",
"     9BCCCZCZCCZZCZZVCCZZZZZZVq ",
"     >hzxlzzzlzzzzzzzcBZZZZZZBq ",
"     X*::>:::::>>>>:>lZCZZCZCZw ",
"                      iAAZZZZBq.",
"                      pZAZCCZB0 ",
"                     XaZZZMvcx5.",
"                  2yepmAAVd751X ",
"                 okVVVZZZM7.    ",
"                 .kZVZZCVN4     ",
"                 .zZBCBNNv1     ",
"     @343<:::;::-7MACMa9q9%     ",
"     rmmMMNNNMNMMNBCAv,..o      ",
"    .pCZZAAAAAZZACCZZc;         ",
"    XtbmMmMMMMMMNMMMmz:         ",
"    .1erreerrerrtttrr0%         ",
"      OooooOOOOO+OOOOo          "
};
