/* XPM */
static char *char_2_xpm[] = {
/* columns rows colors chars-per-pixel */
"32 32 52 1 ",
"  c #000000",
". c #040404",
"X c #0B0B0B",
"o c #0F0F0F",
"O c #121212",
"+ c #161616",
"@ c #191919",
"# c #1F1F1F",
"$ c #202020",
"% c #272727",
"& c #2A2A2A",
"* c #2C2C2C",
"= c #313131",
"- c #373737",
"; c #383838",
": c #414141",
"> c #4A4A4A",
", c #5A5A5A",
"< c #5F5F5F",
"1 c #606060",
"2 c #676767",
"3 c #7D7D7D",
"4 c #828282",
"5 c #868686",
"6 c #8E8E8E",
"7 c #939393",
"8 c #959595",
"9 c #999999",
"0 c #9E9E9E",
"q c #A0A0A0",
"w c #A4A4A4",
"e c #AAAAAA",
"r c #AEAEAE",
"t c #B1B1B1",
"y c #B6B6B6",
"u c #B9B9B9",
"i c #BFBFBF",
"p c #C3C3C3",
"a c #C6C6C6",
"s c #C8C8C8",
"d c #D1D1D1",
"f c #D7D7D7",
"g c #DBDBDB",
"h c #DCDCDC",
"j c #E4E4E4",
"k c #EAEAEA",
"l c #EEEEEE",
"z c #F3F3F3",
"x c #F4F4F4",
"c c #F9F9F9",
"v c #FCFCFC",
"b c #FDFDFD",
/* pixels */
"                                ",
"      O*%@@++++OOOO+++++#O      ",
"     osjhjjhkjhjjjjhjjhjg5      ",
"     #hzxvbvvvbvccvvvvcvv8X     ",
"     &hcvxxvccccccxxxxvvx5.     ",
"  +%&1lcbjtwqwe000000yzvca>OX   ",
" opghjvbvi>$+OO..XooX=jvcxkhg3  ",
" &jxbvvvc8o          #gvccxcv8X ",
" &gxcxxcx7X          #jbxvxcv0o ",
" O60000q02o       O++:kvvcxcc8o ",
"  +####$$+       @agglccvxxbv6X ",
"                 &kbcvvvbvvcv6X ",
"                 $gvcbbvcvxxx9o ",
"          O&&$+#&,jvcvbvchq9q1. ",
"         +agghjjjkvvvcccbi-#%O  ",
"         &gccvxcvvvvvcvxx7X     ",
"         $fbvvvvvvvvvcccx6X     ",
"      o$&2kvccvvvvvvvhe001X     ",
"     +ihhjvvxvvvvvvvvu;##+      ",
"     &gvxcvvcvvvvvvvv9o         ",
"     =hvccvvcczxxcccc9o         ",
"  .Oo2hccvvccjrwwwwwq<          ",
" Xijhkvccbcxvy*...oo+o          ",
" @fcvccxxcvvb0O                 ",
" $hcvvcbvvvvc0O                 ",
" *hxccxvcvcvve*ooooO+OooO+$=-X  ",
" =jzccxvccvvvzfhjjjjjjjhjkkjg3X ",
" ;hvbvvvvvvvcvvvcvvbvvvvvvvvv8X ",
" =dzxxzxzzzzzzxzxzzzzzxxxzzzz9O ",
" @466666666666766666666666666,X ",
"  XooooXoOOO+++++++++@+++++++o  ",
"                                "
};
