/* XPM */
static char *char_5_xpm[] = {
/* columns rows colors chars-per-pixel */
"32 32 64 1 ",
"  c #000000",
". c #070707",
"X c #090909",
"o c #0C0C0C",
"O c #121212",
"+ c #161616",
"@ c #1B1B1B",
"# c #1D1D1D",
"$ c #232323",
"% c #252525",
"& c #2B2B2B",
"* c #2F2F2F",
"= c #333333",
"- c #343434",
"; c #393939",
": c #3E3E3E",
"> c #404040",
", c #464646",
"< c #494949",
"1 c #4E4E4E",
"2 c #515151",
"3 c #545454",
"4 c #575757",
"5 c #5B5B5B",
"6 c #606060",
"7 c #646464",
"8 c #666666",
"9 c #6C6C6C",
"0 c #6F6F6F",
"q c #737373",
"w c #777777",
"e c #7E7E7E",
"r c #818181",
"t c #838383",
"y c #888888",
"u c #8B8B8B",
"i c #909090",
"p c #939393",
"a c #959595",
"s c #999999",
"d c #9D9D9D",
"f c #A2A2A2",
"g c #A7A7A7",
"h c #ABABAB",
"j c #AFAFAF",
"k c #B2B2B2",
"l c #B6B6B6",
"z c #BABABA",
"x c #BEBEBE",
"c c #C3C3C3",
"v c #C8C8C8",
"b c #CCCCCC",
"n c #D0D0D0",
"m c #D4D4D4",
"M c #D9D9D9",
"N c #DFDFDF",
"B c #E4E4E4",
"V c #E6E6E6",
"C c #E9E9E9",
"Z c #EDEDED",
"A c #F2F2F2",
"S c #F7F7F7",
"D c #FBFBFB",
"F c #FDFDFD",
/* pixels */
"                                ",
" o5qqq00866575556666790qq7$     ",
"X-mZZZZZZZZCCCCZZZZZZZCZAm2     ",
"X;BSSSSSSSSSSDDDDDSSSSFFFN2     ",
"X*MSSSSSSSVCVZCCZZZZZCZZZb1     ",
"X=MSSSSSSMayruyyyytttttyyw*     ",
"X;NSSSSSSk;@+$#$$$##@@@$@@.     ",
"X;MSSSSSSl*XoOooX......oX.      ",
"X-MSSSDDSk;OOo+OO.    ooX       ",
".=NSDDDDSmr7746431,,<2762<O     ",
"X;NDDDDDDSNNNNBBBNNNBBVBBv>     ",
"X,VSSSSSDFDDDFFSSSDSAASADN2.    ",
"X-NAAAAAASSAASAAAASAZSDDDM3XXX. ",
".+idfdffffgffgfffdfdskVDDBt&=%+.",
"  $##$$$$$%%$$$$%%%%#:xDSANbnl: ",
"                     $lDDSDSDN& ",
"                     %lDSSDSDN+ ",
"                     %kDDADSDN% ",
"                     %kSSASSSV8 ",
"                     %jSSASSSV8.",
"                     $hSSASASV9.",
"  o@#+OOo.           @gSASSSSB9.",
"X%fcczlzkeO          OpSSSSDSB8.",
"o;NASSASAz$          odSSSASSV8.",
"o-MSDDSSSl*.         .sSASSSDB9.",
"o$jnvMSSAc3@oooooooX.XjDSSMvbk4.",
"X%<,;wVDDZvjgjjjhkhgagVSSBe-;:#.",
" X.oo3NASDSSSDDDSDSDAAASDm3.XX  ",
"  .oo4MSSSSSSSSSSSSSSASADm6o.   ",
"   XO:hvxvvvvvvvvvvvccxzch4o    ",
"     X-,,>>>>>>>>>>:;;--;-@     ",
"      XoX..   ..      ..XX.     "
};
