/* XPM */
static char *char_6_xpm[] = {
/* columns rows colors chars-per-pixel */
"32 32 51 1 ",
"  c #000000",
". c #040404",
"X c #090909",
"o c #050505",
"O c #070707",
"+ c #090909",
"@ c #181818",
"# c #121212",
"$ c #222222",
"% c #151515",
"& c #2A2A2A",
"* c #2F2F2F",
"= c #191919",
"- c #343434",
"; c #3A3A3A",
": c #191919",
"> c #494949",
", c #4C4C4C",
"< c #505050",
"1 c #565656",
"2 c #232323",
"3 c #656565",
"4 c #2E2E2E",
"5 c #8B8B8B",
"6 c #8E8E8E",
"7 c #3B3B3B",
"8 c #9A9A9A",
"9 c #3E3E3E",
"0 c #404040",
"q c #414141",
"w c #AAAAAA",
"e c #444444",
"r c #464646",
"t c #B7B7B7",
"y c #474747",
"u c #C1C1C1",
"i c #4B4B4B",
"p c #C8C8C8",
"a c #CECECE",
"s c #535353",
"d c #DFDFDF",
"f c #555555",
"g c #575757",
"h c #585858",
"j c #EFEFEF",
"k c #F3F3F3",
"l c #F6F6F6",
"z c #F9F9F9",
"x c #636363",
"c c #636363",
"v c #636363",
/* pixels */
"                                ",
"          O==--&@+@@#%=--*      ",
"          rggjjhhhhhhhhhht      ",
"         Xiccvvvcvvcvvxxcs      ",
"          uxlzzxxxxxxxxxzp      ",
"       oo%sxzktqwwwwwwww06      ",
"      8ffgzzzf1XXOO@@@@$@#      ",
"     .dcccxxxa=                 ",
"     .sxxclxzp=                 ",
"  @%#*gxxkttt5#                 ",
" .rdpfzccs,*=+                  ",
" +gcxxlxxwX                     ",
" #gccczxc0                      ",
" $gxxzxxxr@..  .....XXoXOo      ",
" $fxxxccxxdapaipppapaaaaaq      ",
" @fxxxxccxcvcclxzxxzvxxcca      ",
" +fxxxcccxlccczcxxccxxccca      ",
" Odxxcxxczapppuaipiiiszcxf#.oX  ",
" +dxxxccxs3=$#@@+OO+O*ixxxguuq: ",
" Odxxcxcxw+          .exxcccch1 ",
" odxxxccc9           .txzclxcg1 ",
" Xdxxzxxx9           .txzczcxg< ",
" .fzxxxxx9           .rxccxxxj1 ",
" .fzxczxc9           Xrxcxzcxg< ",
" .dxccxxx7            rcxxxxxg2 ",
" .rddgxcz0X      .   .yxxxgddt> ",
"  ;;;1fxxxu97870qq989wlxxg4-*#o ",
"   X.@sxzcxccccccccvccxzxa&     ",
"   . #axxccccxxcxxxccccxcp      ",
"     #0pipppppppiiiippiup9      ",
"      +%%%%&%%%&%&&&&&**=%      ",
"                                "
};
