/* XPM */
static char *cannon_diag4_xpm[] = {
/* columns rows colors chars-per-pixel */
"40 40 148 2 ",
"   c #000000",
".  c #0C030D",
"X  c #0C0B0E",
"o  c #0D0F10",
"O  c #110711",
"+  c #140D16",
"@  c #150E19",
"#  c #0D1114",
"$  c #121115",
"%  c #181117",
"&  c #17111A",
"*  c #1A131D",
"=  c #191B1B",
"-  c #171520",
";  c #1A1722",
":  c #1F1E2A",
">  c #211A23",
",  c #231F2A",
"<  c #351D22",
"1  c #1C252D",
"2  c #1D2730",
"3  c #1D2831",
"4  c #272027",
"5  c #25222C",
"6  c #28232D",
"7  c #272929",
"8  c #3D262A",
"9  c #2E302F",
"0  c #202230",
"q  c #2B2730",
"w  c #252A35",
"e  c #2C2C37",
"r  c #2C2D38",
"t  c #342D35",
"y  c #3F2A30",
"u  c #362F38",
"i  c #29313E",
"p  c #323133",
"a  c #373038",
"s  c #3A333B",
"d  c #402B2E",
"f  c #7B3527",
"g  c #2E3643",
"h  c #2D3946",
"j  c #353C47",
"k  c #3F3E47",
"l  c #313D48",
"z  c #453D45",
"x  c #34414F",
"c  c #384554",
"v  c #3C4B59",
"b  c #45464E",
"n  c #4A434B",
"m  c #4E484D",
"M  c #4C4B54",
"N  c #424F5A",
"B  c #46525C",
"V  c #48515C",
"C  c #55535B",
"Z  c #5F5A5F",
"A  c #495661",
"S  c #4B5B66",
"D  c #565A61",
"F  c #5D5B61",
"G  c #515D6B",
"H  c #625D63",
"J  c #5F6467",
"K  c #55626E",
"L  c #5C636B",
"P  c #566471",
"I  c #586671",
"U  c #5E6C75",
"Y  c #676469",
"T  c #65656B",
"R  c #776868",
"E  c #6B6F74",
"W  c #736E71",
"Q  c #667077",
"!  c #64717A",
"~  c #6C757D",
"^  c #767A79",
"/  c #7C797D",
"(  c #87392B",
")  c #AC624F",
"_  c #8D736D",
"`  c #AF7263",
"'  c #B17B6E",
"]  c #6C7A84",
"[  c #717C84",
"{  c #787F83",
"}  c #827E82",
"|  c #7B8285",
" . c #738188",
".. c #79858C",
"X. c #7D898E",
"o. c #7D8B92",
"O. c #80868C",
"+. c #868889",
"@. c #858D91",
"#. c #8B9295",
"$. c #8B959A",
"%. c #8E989D",
"&. c #929596",
"*. c #919798",
"=. c #939A9C",
"-. c #A48680",
";. c #B08F87",
":. c #9CA09D",
">. c #9AA2A3",
",. c #9DA6AB",
"<. c #9EA8AC",
"1. c #A4A6A3",
"2. c #A4A9A6",
"3. c #A9A9A6",
"4. c #A2AAAA",
"5. c #A9AEAB",
"6. c #A6AFB3",
"7. c #ABB3B6",
"8. c #B4BAB6",
"9. c #B2B7BA",
"0. c #B5BBB9",
"q. c #BBBBBA",
"w. c #BFC1BC",
"e. c #C1C1BE",
"r. c #BDC2C2",
"t. c #C2C1C1",
"y. c #C6C8C2",
"u. c #C9C8C7",
"i. c #C2C7C8",
"p. c #C3C9C8",
"a. c #CBCCCA",
"s. c #CFD0CB",
"d. c #CFD2D1",
"f. c #D3D6D5",
"g. c #D5D9D6",
"h. c #D7DBD8",
"j. c #DBDDDB",
"k. c #DEE1DE",
"l. c #E2E4DF",
"z. c #E4E5E2",
"x. c #E6E9E4",
"c. c #EAECE7",
"v. c #EBEEEA",
"b. c #EEF0EC",
"n. c #F2F3EE",
"m. c #F4F6F1",
"M. c #F6F8F3",
"N. c #F9FBF6",
/* pixels */
"                                                                                ",
"                                                                                ",
"                                                                                ",
"                                                                                ",
"                                                                                ",
"                                                                                ",
"                  .                                                             ",
"                  . O . . $                                                     ",
"                O . . . . 1.t                                                   ",
"              . . . . . o s.8.7                                                 ",
"            . . . . . . * l.9.7.7                                               ",
"            . . . . . . m x.7.b.2.t                                             ",
"            . . O . . n x.d.9.N.f.@.;                                           ",
"              q k M Y z.f.<.m.k.p.>.=.a X     3 J { 9 o                         ",
"              $ ! [ o.7.,.m.j.r.m.d.p.y.a   3 U Y C Q }                         ",
"                + A ] >.j.j.r.m.v.$.j.n.e.a h C ; w x x w *                     ",
"                  # S o.%.6.m.v.$.<.M.N.b.w.a . x ] M 1 U *.@                   ",
"                    $ G ] %.d.$.,.M.v.p.N.b.q.t + ! S Z M I O.4                 ",
"                      & c S P ,.m.v.0.b.M.N.h.| 6 * $.n.{ V c.g.4               ",
"                        & P @.4.g.0.b.M.M.M.c.X.b g k q.m._ W z.g.4             ",
"                          * I o.,.h.M.M.M.b.%.p.F W 9.u q.m./ W x.} .           ",
"                            & P o.4.k.M.b.$.p.v.{ 6  .j.n e.m./ C w             ",
"                            1 ; K o.4.f.$.r.m.h.@.B d s.x.n w.m./ .             ",
"                          2 L r & G S K 6.b.k.=.S 5.u z a.x.n q.m./ .           ",
"                        # U Y = @ @ l v U 9.=.D 5.a q.j.z d.x.n e.n.Y .         ",
"                        p #.@ v P > w - > h S 5.a q.m.p.p.z a.z.n -.R -         ",
"                          J g e o.N q E ~ ; +.u q.M.r.g G a.z a.z.d ' >         ",
"                          ^ ..i , 7.5.t A #., &.M.r.r : { z.j.z ;.) > .         ",
"                            = h j H v.2.a :.*.a u.#.0 [ z.M.M.j.y ` Y           ",
"                            X V ..j H v.2.u :.&.a t.4.z.M.M.M.M.j.t .           ",
"                              @ V o.E H v.1.a :.&.a u.M.z.c.M.M.b.n             ",
"                                + 3.0.H H v.1.a =.&.u u.n.M.M.b.m               ",
"                                  % 2.0.Y H c.4.t =.&.y u.M.b.m .               ",
"                                    % 1.| 5 H c.1.t _ ( 8 e.n                   ",
"                                      @ o . . H q.f < 5.W .                     ",
"                                                6 s Z * .                       ",
"                                                  X                             ",
"                                                                                ",
"                                                                                ",
"                                                                                "
};
