/* XPM */
static char *cannon_left_xpm[] = {
/* columns rows colors chars-per-pixel */
"40 40 139 2 ",
"   c #000000",
".  c #0C030D",
"X  c #0C0B0D",
"o  c #120D13",
"O  c #150F18",
"+  c #151416",
"@  c #19131A",
"#  c #1A1B1B",
"$  c #35181B",
"%  c #1C1621",
"&  c #1C1923",
"*  c #1D1C29",
"=  c #241C25",
"-  c #211D28",
";  c #1F202E",
":  c #262327",
">  c #25212C",
",  c #2B242D",
"<  c #242532",
"1  c #2C2730",
"2  c #242A37",
"3  c #272E3C",
"4  c #2C2D3A",
"5  c #302730",
"6  c #312A32",
"7  c #382D33",
"8  c #27313E",
"9  c #34333D",
"0  c #3A343C",
"q  c #61261D",
"w  c #431F20",
"e  c #75433B",
"r  c #2B3543",
"t  c #2F3A45",
"y  c #333A42",
"u  c #3A3C46",
"i  c #433B44",
"p  c #36404C",
"a  c #3F464B",
"s  c #364554",
"d  c #3F4854",
"f  c #3D4E5B",
"g  c #434544",
"h  c #40414A",
"j  c #4B444C",
"k  c #434A53",
"l  c #4B4C55",
"z  c #544E54",
"x  c #45545E",
"c  c #4B525B",
"v  c #565057",
"b  c #51525A",
"n  c #585058",
"m  c #7A4D47",
"M  c #6A5454",
"N  c #6F5959",
"B  c #425260",
"V  c #4C5A64",
"C  c #4E5E6A",
"Z  c #5C5D65",
"A  c #615C62",
"S  c #54606B",
"D  c #59646C",
"F  c #556571",
"G  c #5A6975",
"H  c #5F707A",
"J  c #646365",
"K  c #696368",
"L  c #6E6B6E",
"P  c #6A6B71",
"I  c #706F72",
"U  c #67737B",
"Y  c #6F767C",
"T  c #767577",
"R  c #787477",
"E  c #73777B",
"W  c #8E483A",
"Q  c #935D51",
"!  c #B47262",
"~  c #677680",
"^  c #6D7B83",
"/  c #717E85",
"(  c #748087",
")  c #76838C",
"_  c #7C868C",
"`  c #7C888F",
"'  c #7D8991",
"]  c #858486",
"[  c #888487",
"{  c #838688",
"}  c #888488",
"|  c #828D93",
" . c #918D92",
".. c #869196",
"X. c #8A9396",
"o. c #879198",
"O. c #8B969B",
"+. c #8E999D",
"@. c #979596",
"#. c #9E9B9C",
"$. c #AC9E98",
"%. c #BDA095",
"&. c #959DA1",
"*. c #9E9CA0",
"=. c #A09CA0",
"-. c #9CA4A5",
";. c #9EA7A9",
":. c #A4A5A4",
">. c #A9A7A7",
",. c #A9ADAB",
"<. c #ADB3AF",
"1. c #A5ADB2",
"2. c #ADB4B2",
"3. c #B1B6B6",
"4. c #B9BEBB",
"5. c #C4B9B7",
"6. c #BEC4C4",
"7. c #C5C6C4",
"8. c #C9C3C0",
"9. c #C6CBC6",
"0. c #C3C9C9",
"q. c #CACDCA",
"w. c #CED1CB",
"e. c #D1D4CE",
"r. c #CDD1D1",
"t. c #D2D5D3",
"y. c #D5D9D3",
"u. c #D9DCD5",
"i. c #DADDDA",
"p. c #DFE1DD",
"a. c #E1E4DD",
"s. c #E3E6E2",
"d. c #E7EAE5",
"f. c #EAECE7",
"g. c #EBEDE9",
"h. c #EFF1ED",
"j. c #F1F3EE",
"k. c #F5F6F2",
"l. c #F6F8F4",
/* pixels */
"                                                                                ",
"                                                                                ",
"                                                                                ",
"                                                                                ",
"                                                                                ",
"                                                                                ",
"                                                                                ",
"                                                                                ",
"                                                                                ",
"                                              .   . .   .   X                   ",
"                                        g J X k E k >.>.>.:.=                   ",
"                                    # _ D ) r C +.G d.a.a.p.d o                 ",
"                                    x Z % > - 1 i i j i j j i 0 0 6 % .         ",
"                                  . V v r ~ / &.k.k.k.k.j.j.j.h.k.5.N 5         ",
"                                    f y * y u l R R R R I R R R R M q i X       ",
"            . + # + + # = + : = : : 1 , = = - r *.E 8.q.q.q.q.q.q.q.! 5.A       ",
"        . . = >.t.;.0.4.4.( -.u.u.y.e.e.r.' Y 6 A Z @.@.#.#.#.#.#.#.m W v       ",
"        . . . 6 e.0.r.j.r.t.2.6.l.k.k.l.l.t.o.3.l 2 T 0 $.&.=.=.#.*.#.*. .X     ",
"      . . . . . 5 g.1.j.r.s.s.` l.i.a.l.l.k.| g.7.V ,.n l.;.c O.l.l.l.l.i.O     ",
"      . . . . . X h.1.h.r.s.f.^ l.y.i.l.l.l.| l.t.V ,.v l.o.& ' l.k.k.k.i.o     ",
"      . . . . . o f.1.g.q.s.f./ l.y.i.l.l.j.' l.t.V ,.v k.o.& ' l.f.j.l.i.o     ",
"        . . . . o f.1.g.w.s.d./ l.y.i.l.l.j.| j.e.V ,.v l.&.9 | l.s.h.l.i.O     ",
"      . . . . . P +.| 3.O.;...U 3.2.2.2.2.2.C ' S s -.z g.i.t.t.g.g.f.f.t.O     ",
"        O . o V ` G ^ / ) F x ) ` ) ) ) ) B s 2 , - 0 9 0 0 0 0 0 0 $ w , .     ",
"          + # h a y y 9 3 ; 9 y 9 9 9 9 9 < < 8 _ C <.2.<.<.<.2.<.<.Q %.L       ",
"                      X X X X X X o t < o % & > 0 6 0 0 0 0 0 0 0 7 $ 0 ,       ",
"                                    V l r H Y ..q.q.q.w.q.q.q.q.9.$.e K .       ",
"                                    V c * u a b [ } [ } ] [ [ { ] L 4 o         ",
"                                    a X.k c 8 p S k [ E E E t + o X +           ",
"                                    X : Y ,.&.V ..S w.e.w.q.1 X                 ",
"                                          . X @ @ @ @ @ @ @ #                   ",
"                                                                                ",
"                                                                                ",
"                                                                                ",
"                                                                                ",
"                                                                                ",
"                                                                                ",
"                                                                                ",
"                                                                                ",
"                                                                                "
};
