/* XPM */
static char *cannon_diag2_xpm[] = {
/* columns rows colors chars-per-pixel */
"40 40 146 2 ",
"   c #000000",
".  c #070608",
"X  c #0B030C",
"o  c #060809",
"O  c #0D090E",
"+  c #0F0511",
"@  c #0F0810",
"#  c #100612",
"$  c #110912",
"%  c #161717",
"&  c #1A151D",
"*  c #191A1A",
"=  c #1A1621",
"-  c #1D1A25",
";  c #1D1C29",
":  c #221C26",
">  c #1A2126",
",  c #182128",
"<  c #202121",
"1  c #23212D",
"2  c #232735",
"3  c #2D2B36",
"4  c #312C35",
"5  c #26323D",
"6  c #2B313F",
"7  c #313232",
"8  c #3B3037",
"9  c #36333C",
"0  c #3B343B",
"q  c #432425",
"w  c #482424",
"e  c #7E4237",
"r  c #2F3847",
"t  c #3B3740",
"y  c #313845",
"u  c #3D3941",
"i  c #343D49",
"p  c #423C43",
"a  c #453F48",
"s  c #36414E",
"d  c #3C434D",
"f  c #3C4551",
"g  c #3D4A55",
"h  c #3F4E59",
"j  c #434346",
"k  c #43424A",
"l  c #4E494F",
"z  c #52464E",
"x  c #59494C",
"c  c #424751",
"v  c #404E57",
"b  c #4D4A51",
"n  c #444E5A",
"m  c #534D54",
"M  c #4F5454",
"N  c #49535F",
"B  c #4F585F",
"V  c #545254",
"C  c #555857",
"Z  c #5B555B",
"A  c #455561",
"S  c #485561",
"D  c #4F5F6A",
"F  c #545D66",
"G  c #5D5A60",
"H  c #615B62",
"J  c #53616B",
"K  c #566570",
"L  c #5A6B76",
"P  c #686165",
"I  c #63656B",
"U  c #6E696E",
"Y  c #7B6967",
"T  c #636D75",
"R  c #6E6F74",
"E  c #6D7077",
"W  c #62727C",
"Q  c #72767B",
"!  c #8D4134",
"~  c #965E52",
"^  c #A15F51",
"/  c #876560",
"(  c #907B78",
")  c #CA735D",
"_  c #6B7A83",
"`  c #747D83",
"'  c #75838B",
"]  c #79848C",
"[  c #848585",
"{  c #80898E",
"}  c #9A8480",
"|  c #928D8D",
" . c #848E93",
".. c #869096",
"X. c #8D9293",
"o. c #8B959B",
"O. c #8E989C",
"+. c #919195",
"@. c #939B9C",
"#. c #9F9E9D",
"$. c #A09E9D",
"%. c #949EA2",
"&. c #96A0A5",
"*. c #9AA3A4",
"=. c #9FA7AD",
"-. c #9FA8AE",
";. c #A4A3A4",
":. c #A2A8A7",
">. c #A0A7A8",
",. c #A7ADAE",
"<. c #ACABAB",
"1. c #AEB5B5",
"2. c #AFB6B8",
"3. c #B7BCB7",
"4. c #B0B7BA",
"5. c #B5BBBA",
"6. c #B9BEBB",
"7. c #B6BEC0",
"8. c #BCBFC1",
"9. c #BCC1C2",
"0. c #C2C5C1",
"q. c #C6CBC7",
"w. c #C6CBCB",
"e. c #C9CDCD",
"r. c #CCD1CD",
"t. c #D2D4CE",
"y. c #CACFD0",
"u. c #CED2D1",
"i. c #D1D6D4",
"p. c #D6D9D2",
"a. c #D9DCD7",
"s. c #D6DAD8",
"d. c #DBDEDB",
"f. c #DFE1DC",
"g. c #E1E3DE",
"h. c #DCE0E0",
"j. c #E3E5E2",
"k. c #E7E9E4",
"l. c #E9EBE7",
"z. c #EFF1ED",
"x. c #F2F3EE",
"c. c #EFF2F0",
"v. c #F3F5F1",
"b. c #F6F9F3",
"n. c #FAFBF7",
"m. c #FAFCF8",
/* pixels */
"                                                                                ",
"                                                                                ",
"                                                                                ",
"                            .                                                   ",
"                      X $ P 3 : .                                               ",
"                  . . | | q e 8.0 . . $ X                                       ",
"                . H ;.w ! Y 8 3.g.0 6 +.[ O                                     ",
"              . H v.b.;.8 >.[ u 3.j.a ` 0.[ O                                   ",
"            . H b.b.b.v.;.t ;.[ 0 3.k.p Q 0.[ X                                 ",
"            H b.b.b.j.k.b.;.u >.[ p 3.k.k +._ c X                               ",
"          . m z.b.b.v.b.s.1.;.u :.[ p 6.k.p n ] i .                             ",
"        . ;.^ z v.b.b.s.T 3 1.;.u :.[ p 6.g.p f 5 %                             ",
"        X Z ) } m z.s.T - i u.b.U 0 @.f p 0.O.- s ..C                           ",
"        p ~ x x.<.m y.c i y.v.;.p R 1 { F 9 S ` 1 d M                           ",
"        1 / ( G v.<.m e.i.b.;.u ,.A 5 : ; , 4 L s & %.*                         ",
"        @ +.z.#.G v.<.m z.;.p <.S >.*.F s r + - & Q F o                         ",
"          $ <.x.$.H x.<.p p ,.S >.f.x.o.J A n @ d J ,                           ",
"            + <.z.$.H x.<.k v *.f.v.4.*.r.*.' A = >                             ",
"          . y a <.z.$.G f.T - @.v.4.%.v.b.u.*.' N @                             ",
"          X ;.s.z <.z.$.0 e.m ` 7.*.v.b.b.n.e.*.' S O                           ",
"          . p l.p.z <.z.#.t r G  .b.b.b.b.l.5.r.=.' S @                         ",
"            . p l.g.4 <.z.R & 9  .j.n.b.l.3.z.c.O.K A r @                       ",
"              . a ] T 9 E D F X l e.x.b.9.x.x.O.&.9..._ v O                     ",
"                  1 *.D = I W r + m t.x.n.v.%.%.v.x.&.O.` h .                   ",
"                  . : 2 g 3 6 & F 2 V t.x.w.%.x.x.6.j.u.@._ g o                 ",
"                      . @.J p Q J , X m p.2.j.x.6.j.c.%.-.' ' J .               ",
"                        < 7 X.B >     . V O.5.9.j.c.&.h.a.H b d -               ",
"                            .           . 1 ,.s.m.-.h.d.0 X X X X .             ",
"                                          . k 3.z.2.f.8 X X X X X X             ",
"                                            . j 8.8.q.X X X X X X .             ",
"                                                j q.<.X X X X # X .             ",
"                                                  V | # X X X X                 ",
"                                                    % X X X X                   ",
"                                                      . . .                     ",
"                                                                                ",
"                                                                                ",
"                                                                                ",
"                                                                                ",
"                                                                                ",
"                                                                                "
};
