/* XPM */
static char *cannon_right_xpm[] = {
/* columns rows colors chars-per-pixel */
"40 40 157 2 ",
"   c #000000",
".  c #070208",
"X  c #0B030C",
"o  c #0C0B0D",
"O  c #0F0610",
"+  c #0F0C10",
"@  c #100711",
"#  c #120B13",
"$  c #170F19",
"%  c #141216",
"&  c #191119",
"*  c #17191A",
"=  c #191A1B",
"-  c #35181B",
";  c #1C1621",
":  c #1B1824",
">  c #1D1C29",
",  c #231C25",
"<  c #211D28",
"1  c #341C21",
"2  c #1D2227",
"3  c #1F202E",
"4  c #202021",
"5  c #25212C",
"6  c #2B242E",
"7  c #2B2D2D",
"8  c #242532",
"9  c #2D2730",
"0  c #242B33",
"q  c #272E3C",
"w  c #2C2D3A",
"e  c #322C34",
"r  c #382C33",
"t  c #27313E",
"y  c #2F353B",
"u  c #333433",
"i  c #34333C",
"p  c #3A343C",
"a  c #393B3B",
"s  c #61261D",
"d  c #431F20",
"f  c #75433B",
"g  c #2C3542",
"h  c #2F3A45",
"j  c #343944",
"k  c #3A3C46",
"l  c #433D45",
"z  c #3C4143",
"x  c #36404C",
"c  c #364554",
"v  c #3F4955",
"b  c #3D4E5B",
"n  c #40414A",
"m  c #4B444B",
"M  c #434A53",
"N  c #4B4C55",
"B  c #534C54",
"V  c #4B525B",
"C  c #565157",
"Z  c #525259",
"A  c #585158",
"S  c #7A4D47",
"D  c #6A5454",
"F  c #6F5959",
"G  c #435360",
"H  c #4C5A64",
"J  c #4D5D69",
"K  c #5C5D65",
"L  c #615C60",
"P  c #5E6060",
"I  c #55616C",
"U  c #556571",
"Y  c #5A6975",
"T  c #5F707A",
"R  c #666266",
"E  c #6A6B71",
"W  c #706F72",
"Q  c #6C7070",
"!  c #67737B",
"~  c #6D757C",
"^  c #777477",
"/  c #787477",
"(  c #73777B",
")  c #797C7B",
"_  c #8E483B",
"`  c #935D51",
"'  c #B57262",
"]  c #687780",
"[  c #6D7B83",
"{  c #717D85",
"}  c #748087",
"|  c #75838C",
" . c #7B868C",
".. c #7C888F",
"X. c #7D8A91",
"o. c #878487",
"O. c #888487",
"+. c #838688",
"@. c #888488",
"#. c #848C8D",
"$. c #828D93",
"%. c #908C92",
"&. c #869196",
"*. c #8B9397",
"=. c #879198",
"-. c #8B969B",
";. c #8E999D",
":. c #979597",
">. c #9D9B9B",
",. c #A09E9D",
"<. c #AC9E98",
"1. c #9BA09F",
"2. c #BDA095",
"3. c #959DA1",
"4. c #9A9DA0",
"5. c #A09DA0",
"6. c #9CA4A5",
"7. c #9EA7A9",
"8. c #A4A5A4",
"9. c #A8A7A7",
"0. c #A3A6A8",
"q. c #A0A8AB",
"w. c #AAADAA",
"e. c #ABB2AE",
"r. c #A5AEB3",
"t. c #ADB4B2",
"y. c #B1B6B5",
"u. c #B9BEBB",
"i. c #C4BAB8",
"p. c #BEC4C4",
"a. c #C5C6C4",
"s. c #C7C7C5",
"d. c #C6CBC6",
"f. c #CBCDCA",
"g. c #CDD1CB",
"h. c #D1D4CE",
"j. c #CDD2D1",
"k. c #D3D6D3",
"l. c #D5D9D3",
"z. c #D9DCD5",
"x. c #D4D8D8",
"c. c #DBDDDB",
"v. c #DFE2DE",
"b. c #E1E4DD",
"n. c #E2E5E2",
"m. c #E6E9E4",
"M. c #EAEDE7",
"N. c #EBEEE9",
"B. c #ECEEEA",
"V. c #EBEEEC",
"C. c #EEF0EE",
"Z. c #F0F2ED",
"A. c #F1F4EF",
"S. c #F3F5F1",
"D. c #F6F9F3",
"F. c #F7F9F4",
"G. c #F8FAF5",
/* pixels */
"                                                                                ",
"                                                                                ",
"                                                                                ",
"                                                                                ",
"                                                                                ",
"                                                                                ",
"                                                                                ",
"                                                                                ",
"                                                                                ",
"                  X X X X X X X X o                                             ",
"                . , f.g.g.h.I &.H 2 #.Q o .                                     ",
"          .     @ j ( ( ( +.M I x t H M *.z                                     ",
"        o w E o.o.@.@.O.@.@.@.O.Z n k > Z H %                                   ",
"      . L f <.d.d.f.f.f.f.f.f.g.&.[ T g Z H *                                   ",
"      & p - r p p p p p p p e p 5 : ; # 5 h %                                   ",
"      R 2.` t.t.t.t.t.t.t.e.J  .q 8 8 i i i i i i i 3 w y 0 0 i y + o           ",
"      5 d 1 i i i i i p p i 5 6 8 c G | | | | | | G U | { [ Y  .Z # O #         ",
"    . k.B.B.B.B.l.k.v.B.B 8.c I X.J t.t.t.t.t.y.! =.7.-.y.$.;.E X X X X X       ",
"    . c.D.Z.m.F.&.i 3.D.A w.J h.S.$.S.D.F.c.k.S.{ M.m.f.N.r.N.@ X X X X .       ",
"    . c.D.Z.M.F.X.: *.D.A w.H h.S.$.S.D.D.c.k.F.{ M.m.f.V.r.N.@ X X X X .       ",
"    . c.D.D.D.G...: *.D.A w.H h.S.$.S.D.F.c.k.F.{ M.m.f.V.r.B.@ X X X X .       ",
"    . c.D.F.F.G.-.V q.S.A w.H a.Z.$.S.G.G.n.c.F. .n.M.f.C.t.N.6 X X X X X       ",
"    o %.5.5.5.5.5.5.5.5.p W 0 N y.&.x.F.D.D.S.D.p.y.l.k.Z.j.d.k.e X X # #       ",
"      m _ S >.>.>.,.>.>.>.:.K R e ~ #.g.h.h.l.l.z.6.{ u.u.a.6.l.w., $ o         ",
"      C i.' f.f.f.f.f.f.f.a.~ 4.g < ; , 6 9 p e e e , 9 p 7 7 u u = +           ",
"      # B s D / ^ ^ ^ ^ / / / / N k j > k b =                                   ",
"      . p F a.Z.Z.Z.A.A.A.A.A.Z.;.} ] g Z H =                                   ",
"        o 5 p l p l m m m m l l 9 5 6 ; K I *                                   ",
"                + v v.b.b.m.Y ;.J J  .! 1.a                                     ",
"                  & 9.9.9.9.M ( M 0.) P                                         ",
"                  # % % % % # % % 4                                             ",
"                                                                                ",
"                                                                                ",
"                                                                                ",
"                                                                                ",
"                                                                                ",
"                                                                                ",
"                                                                                ",
"                                                                                ",
"                                                                                "
};
