/* XPM */
static char *cannon_diag3_xpm[] = {
/* columns rows colors chars-per-pixel */
"40 40 144 2 ",
"   c #000000",
".  c #070508",
"X  c #0C030D",
"o  c #060809",
"O  c #0C090D",
"+  c #0E0510",
"@  c #100612",
"#  c #110A13",
"$  c #131114",
"%  c #1D141F",
"&  c #1B1C1B",
"*  c #1B1621",
"=  c #171E25",
"-  c #1C1B24",
";  c #1E1C29",
":  c #221C27",
">  c #221E29",
",  c #3D1E20",
"<  c #1E2830",
"1  c #22222E",
"2  c #2A2B2B",
"3  c #262530",
"4  c #2D2731",
"5  c #242A38",
"6  c #322C34",
"7  c #392F37",
"8  c #322F3A",
"9  c #2C313E",
"0  c #36313B",
"q  c #3B353D",
"w  c #3D3A3F",
"e  c #442122",
"r  c #7E4136",
"t  c #2B3341",
"y  c #393640",
"u  c #3E3C45",
"i  c #303B49",
"p  c #383E4A",
"a  c #443D44",
"s  c #4D3F47",
"d  c #37414D",
"f  c #3B424C",
"g  c #364251",
"h  c #3F4753",
"j  c #3D4A56",
"k  c #464046",
"l  c #46424A",
"z  c #4A444B",
"x  c #4D494D",
"c  c #534449",
"v  c #434852",
"b  c #4C4B54",
"n  c #434E59",
"m  c #524B53",
"M  c #44525D",
"N  c #49535C",
"B  c #515656",
"V  c #50565F",
"C  c #5A535A",
"Z  c #5A5D5B",
"A  c #465561",
"S  c #4C5663",
"D  c #4C5B65",
"F  c #4E5E69",
"G  c #575961",
"H  c #5C5B61",
"J  c #55636D",
"K  c #5B626A",
"L  c #576670",
"P  c #596670",
"I  c #5C6973",
"U  c #64656D",
"Y  c #6C666C",
"T  c #6E686E",
"R  c #696E76",
"E  c #6C7077",
"W  c #64727A",
"Q  c #737377",
"!  c #72777C",
"~  c #72787D",
"^  c #8A3E31",
"/  c #9B5F51",
"(  c #A56252",
")  c #866A65",
"_  c #C9735D",
"`  c #6F7D86",
"'  c #737A81",
"]  c #76838C",
"[  c #78858D",
"{  c #7B888D",
"}  c #81898E",
"|  c #8B8C8B",
" . c #988481",
".. c #948E8D",
"X. c #99908F",
"o. c #848D91",
"O. c #8D8C90",
"+. c #869195",
"@. c #8B9497",
"#. c #8A959A",
"$. c #8D989D",
"%. c #939A9B",
"&. c #9C999B",
"*. c #A28D89",
"=. c #949EA4",
"-. c #A29FA2",
";. c #9CA4A5",
":. c #9CA5A9",
">. c #A5A5A4",
",. c #A9A7A9",
"<. c #A4ABAB",
"1. c #ACACAC",
"2. c #A5ADB3",
"3. c #ABB3B6",
"4. c #B5B4B2",
"5. c #B4BAB5",
"6. c #B4BBBB",
"7. c #B8BEBD",
"8. c #BFC4BF",
"9. c #BDC2C2",
"0. c #C3C6C4",
"q. c #C6CBC7",
"w. c #C1C7C9",
"e. c #C2C8C8",
"r. c #CACDCB",
"t. c #D1D3CD",
"y. c #CBCFD0",
"u. c #CED3D1",
"i. c #D3D7D4",
"p. c #D6D9D5",
"a. c #D7DBD9",
"s. c #DBDED9",
"d. c #E1E3DD",
"f. c #DFE2E2",
"g. c #E4E6E2",
"h. c #E6E8E4",
"j. c #E8EBE4",
"k. c #ECEDEB",
"l. c #EEF1EE",
"z. c #F1F2EE",
"x. c #F4F6F1",
"c. c #F6F9F3",
"v. c #F9FBF6",
"b. c #FAFCF8",
/* pixels */
"                                                                                ",
"                                                                                ",
"                                                                                ",
"                                                                                ",
"                                    .           X 1 a + .                       ",
"                                    o o X .   X O.) / m ,.O                     ",
"                                      e ,.i # >.z. .c _ ( b Y .                 ",
"                                  . q j.s.z -.l.>.C l.*.s k.c.Y .               ",
"                                  w h.d.m >.l.>.C z.4.x k.c.c.x.Y .             ",
"                              . > ' d.m -.z.>.C z.4.b k.c.c.c.c.c.T .           ",
"                            . * ;.E 8 -.z.>.G x.4.m y.i.c.c.g.c.c.1..           ",
"                            . < F y -.z.>.C x.6.m r.v I i.c.h.x.1.e X.O         ",
"                          & %.n - U l.>.8 a.4.e k.a.p - U i.c.1.7 ^ ..$         ",
"                          2 J 8 H L E 0 r.R a a &.c.i.d 3 3.1.q -.Q , T         ",
"                          O.z 9 W K * t x : j 1.a =.c.i.1.,.q ;.| 7 r 8 .       ",
"                          N ~ * t + 0 G [ %.;.A 1.a &.c.1.q ;.| q 5.0.: .       ",
"                          = F H + k o.o.3.x.f.<.A <.a T q ;.| q 5.d.a .         ",
"                            = 5 z r.h.c.:.3.x.d.<.M Q 0 ;.| q 5.j.a .           ",
"                            . x r.z.b.c.x.:.3.x.:.9 ; %.| q 5.j.z 9 O           ",
"                          . x t.z.b.c.v.c.x.:.#.I * } h w 5.j.z ! %.# .         ",
"                        . b t.z.v.0.h.v.c.c.u.L g ; V a 5.h.z ! 8.| @           ",
"                      . ; @.5.w.z.z.6.h.c.i.;.S i ; 6 8.j.a | 0.| @             ",
"                    . u <.6.f.:.$.l.z.6.r.;.] A + 4 S @.l M W | O               ",
"                    w 5.p.9.z.x.;.$.l.u.:.] S # - I [ - d ] b .                 ",
"                  w 7.l.c.h.7.l.x.;.@.:.] S % f * i 1 f 9 p O                   ",
"                x q.8.3.:.l.h.6.l.e.P [ S # = F ' * d +.& .                     ",
"              $ ..1.0.s.g.=.l.g.:.+.A D #     = D %.B Z                         ",
"              X X X + 6 a.f.=.u.$.` i #         . &                             ",
"            . X X + X X 6 p.2.$.] n #                                           ",
"            . X X X X X X H { ~ M O                                             ",
"              X X X X X X l ] j .                                               ",
"                X X X X X u J O                                                 ",
"                  X X X + : .                                                   ",
"                    . . .                                                       ",
"                                                                                ",
"                                                                                ",
"                                                                                ",
"                                                                                ",
"                                                                                ",
"                                                                                "
};
