/* XPM */
static char *cannon_down_xpm[] = {
/* columns rows colors chars-per-pixel */
"40 40 161 2 ",
"   c #000000",
".  c #070208",
"X  c #0C020D",
"o  c #0C0B0C",
"O  c #100711",
"+  c #110B12",
"@  c #131314",
"#  c #161418",
"$  c #1B151C",
"%  c #1B1A1C",
"&  c #36181B",
"*  c #1C1621",
"=  c #191824",
"-  c #1D1C29",
";  c #221B24",
":  c #221D28",
">  c #351C21",
",  c #1F202E",
"<  c #252127",
"1  c #26222B",
"2  c #2A242C",
"3  c #242532",
"4  c #2D2731",
"5  c #242A37",
"6  c #272E3C",
"7  c #2C2D3B",
"8  c #322B33",
"9  c #392D34",
"0  c #27313E",
"q  c #2E373C",
"w  c #353636",
"e  c #33333D",
"r  c #3A343C",
"t  c #62261D",
"y  c #431F20",
"u  c #76433B",
"i  c #2C3542",
"p  c #2F3A45",
"a  c #353A45",
"s  c #3B3D43",
"d  c #393C48",
"f  c #433C44",
"g  c #3B4247",
"h  c #36404D",
"j  c #3C4349",
"k  c #364554",
"l  c #3D4752",
"z  c #3D4E5B",
"x  c #40414B",
"c  c #4B444B",
"v  c #4E504F",
"b  c #434A53",
"n  c #4B4C55",
"m  c #534C54",
"M  c #4B525B",
"N  c #575157",
"B  c #52525A",
"V  c #585158",
"C  c #5D5D5D",
"Z  c #7A4D48",
"A  c #6A5455",
"S  c #705A59",
"D  c #445461",
"F  c #4B5A65",
"G  c #4D5E6A",
"H  c #505962",
"J  c #5C5D65",
"K  c #655F64",
"L  c #4F606A",
"P  c #55616B",
"I  c #556571",
"U  c #5B6975",
"Y  c #5F707B",
"T  c #656366",
"R  c #6A6B6B",
"E  c #616C74",
"W  c #6B6B71",
"Q  c #67747C",
"!  c #6F777D",
"~  c #717072",
"^  c #787577",
"/  c #72777B",
"(  c #73787D",
")  c #8F483A",
"_  c #945E52",
"`  c #B57263",
"'  c #687780",
"]  c #6E7C84",
"[  c #727E84",
"{  c #717F88",
"}  c #758087",
"|  c #7F8483",
" . c #76848D",
".. c #7B868D",
"X. c #7C888F",
"o. c #7D8A92",
"O. c #888387",
"+. c #838788",
"@. c #888588",
"#. c #818C8F",
"$. c #818D93",
"%. c #8E8B90",
"&. c #869197",
"*. c #8E9596",
"=. c #8A9499",
"-. c #8E999D",
";. c #979597",
":. c #909B9E",
">. c #9D9C9C",
",. c #A09E9D",
"<. c #AD9E98",
"1. c #BEA196",
"2. c #959EA1",
"3. c #9A9DA1",
"4. c #A09DA0",
"5. c #9DA4A5",
"6. c #9FA8AA",
"7. c #A3A5A4",
"8. c #A9A7A7",
"9. c #A9A8A7",
"0. c #A7A6A8",
"q. c #A0A8AB",
"w. c #AAADAB",
"e. c #ACB2AE",
"r. c #A5AEB3",
"t. c #ADB4B2",
"y. c #ADB4B9",
"u. c #B2B6B5",
"i. c #B3B8B7",
"p. c #B1B7B8",
"a. c #B9BEBC",
"s. c #C4BAB8",
"d. c #BBC0BC",
"f. c #BEC4C5",
"g. c #C7C6C5",
"h. c #CAC4C1",
"j. c #C4C9C5",
"k. c #C8CDC7",
"l. c #C5C9C9",
"z. c #CBCDCB",
"x. c #CCD0CB",
"c. c #D1D4CE",
"v. c #CED2D2",
"b. c #D3D5D3",
"n. c #D5D9D5",
"m. c #D9DCD5",
"M. c #D4D8D8",
"N. c #DBDDDB",
"B. c #DEE1DD",
"V. c #E1E4DE",
"C. c #E2E6E3",
"Z. c #E6E9E4",
"A. c #E8EBE6",
"S. c #ECEEEA",
"D. c #EEF1ED",
"F. c #F1F3EE",
"G. c #F1F2F1",
"H. c #F4F6F1",
"J. c #F6F8F3",
"K. c #F7F9F4",
"L. c #F8FAF5",
/* pixels */
"                                                                                ",
"                                                                                ",
"                                  . . . . . . .                                 ",
"                            . N c %.N.N.N.N.b.2 T $ .                           ",
"                          8 m s.) 4.K.J.J.J.S.y 1.r K $ .                       ",
"                        $ S t ` Z 4.K.J.F.F.S.> _ & u 7 o                       ",
"                        8 h.A z.>.4.K.J.S.A.S.r t.9 <.W o                       ",
"                        r G.^ z.>.4.L.L.K.L.S.r t.r k.O.o                       ",
"                      . r F.^ z.>.4.=.X.o.&.n.r t.r z.@.o .                     ",
"                  . # l f F.^ z.,.4.M = = e b.r t.r z.@.a 2 $                   ",
"                  . 8.B.c F.^ z.>.4.q.=.=.2.B.r t.r z.@.( z.$                   ",
"                  . 8.V.c F.^ z.>.4.J.J.J.J.S.r t.r x.@./ x.$                   ",
"                  . 8.V.c F.^ z.>.r V N N N m r t.r x.@.( x.$                   ",
"                  . 9.Z.c F.^ g.;.~ w.w.w.w.7.r e.r x.@.+.c.$                   ",
"                  . b U f F.^ / J 5 F F F G k 1 G 8 x.@.b P $                   ",
"                  . / -.f F.^ 3.T n j.c.c.c.P 2 ..r x.@.P &.$                   ",
"                  . b L 4 -.n i 8 u.F.H.H.G.o.3 6 1 &.B h F $                   ",
"                  o s D < } d : ! =.&.$.$.$.G k 3 ; ] x 0 y.0.                  ",
"                    T ..2 ' a * #.M.H.H.G.G.t.D 3 * Y d H t.>.                  ",
"                    v E * i - : c.K.L.J.J.J.t. .e + i - b a.7.                  ",
"                      | J B a 2 c.J.L.K.J.K.u. .e 1 B B *.G.C                   ",
"                      w F F z 4 c.J.C.N.B.N.t. .e p F F [ R @                   ",
"                        @ # % 2 n.J.N.n.n.n.t. .e < s l.i..                     ",
"                              < m.L.L.K.K.K.i...e +                             ",
"                              < m.f...{ { { Q  .e +                             ",
"                              < 5.p.C.A.A.A.=.D e .                             ",
"                              # { n.A.A.A.A.6.I ,                               ",
"                              ; a.b.x.z.z.z.-. .7                               ",
"                              1 d.G.D.S.S.S.u.{ a .                             ",
"                              @ j.v.y.r.r.r.$.] q                               ",
"                              # 6.l.S.D.S.S.:.U q                               ",
"                              % n.b.2 O O O W X.g                               ",
"                              % w.8 X X X X X B j                               ",
"                              . ; X X X X X X O $                               ",
"                                $ X X X X X X + #                               ",
"                                + # X X X X X <                                 ",
"                                  ; % $ $ % 2 @                                 ",
"                                            o                                   ",
"                                                                                ",
"                                                                                "
};
