/* XPM */
static char *cannon_diag1_xpm[] = {
/* columns rows colors chars-per-pixel */
"40 40 146 2 ",
"   c #000000",
".  c #070408",
"X  c #0B030C",
"o  c #0B080B",
"O  c #0F0511",
"+  c #0F0810",
"@  c #120A13",
"#  c #161717",
"$  c #19151D",
"%  c #1B1621",
"&  c #171F26",
"*  c #1B1B24",
"=  c #1E1D2A",
"-  c #221A25",
";  c #182027",
":  c #222323",
">  c #23212D",
",  c #29242D",
"<  c #232532",
"1  c #202A33",
"2  c #2D2B35",
"3  c #252B39",
"4  c #2C2C38",
"5  c #362F36",
"6  c #322E38",
"7  c #24313B",
"8  c #2B313E",
"9  c #303232",
"0  c #37333C",
"q  c #3A3139",
"w  c #482525",
"e  c #41363B",
"r  c #2E3745",
"t  c #343A47",
"y  c #3D3942",
"u  c #423D44",
"i  c #35414E",
"p  c #3C434E",
"a  c #3E4B54",
"s  c #3E4D58",
"d  c #474147",
"f  c #43424B",
"g  c #4A444B",
"h  c #454849",
"j  c #424650",
"k  c #434C59",
"l  c #534B52",
"z  c #5D4D51",
"x  c #4C5050",
"c  c #46515D",
"v  c #4B535D",
"b  c #555255",
"n  c #575058",
"m  c #595559",
"M  c #5F595F",
"N  c #465661",
"B  c #4D5B65",
"V  c #4E5E69",
"C  c #545C64",
"Z  c #5A5D64",
"A  c #505F69",
"S  c #635E64",
"D  c #53616C",
"F  c #576570",
"G  c #5D6A75",
"H  c #696165",
"J  c #67626A",
"K  c #696369",
"L  c #786866",
"P  c #626A73",
"I  c #686A71",
"U  c #636F78",
"Y  c #6D7077",
"T  c #61717B",
"R  c #68747B",
"E  c #71767B",
"W  c #74787E",
"Q  c #8E4235",
"!  c #92594E",
"~  c #9C5A4D",
"^  c #89655F",
"/  c #8D7977",
"(  c #C9725B",
")  c #98827F",
"_  c #6E7C86",
"`  c #757F87",
"'  c #797F83",
"]  c #768087",
"[  c #74838B",
"{  c #7A868D",
"}  c #818181",
"|  c #8C8686",
" . c #858689",
".. c #8C8B8B",
"X. c #838D92",
"o. c #879297",
"O. c #859199",
"+. c #8C9599",
"@. c #8E999E",
"#. c #929696",
"$. c #9A9192",
"%. c #96969A",
"&. c #949C9C",
"*. c #9C9A9A",
"=. c #A09D9F",
"-. c #959FA3",
";. c #A19EA0",
":. c #97A1A5",
">. c #9AA3A4",
",. c #9CA6AB",
"<. c #A4A9A7",
"1. c #A9A9A7",
"2. c #A9A6A9",
"3. c #A4AAA9",
"4. c #ACACAC",
"5. c #ACB3B4",
"6. c #AEB6B9",
"7. c #B0B6B6",
"8. c #B5BCBB",
"9. c #B9BEBA",
"0. c #BBC1BB",
"q. c #C1C0BF",
"w. c #BCC1C1",
"e. c #C2C7C2",
"r. c #C1C7C9",
"t. c #C5CBCA",
"y. c #CACECD",
"u. c #CCD1CE",
"i. c #D1D3CD",
"p. c #D2D6D4",
"a. c #D5D9D7",
"s. c #D8DBD6",
"d. c #DDDFDB",
"f. c #DFE1DC",
"g. c #E1E2DE",
"h. c #DEE1E1",
"j. c #E3E5E1",
"k. c #E6E9E5",
"l. c #E9EBE5",
"z. c #EAECE8",
"x. c #EEF1ED",
"c. c #F1F3EE",
"v. c #F4F5F1",
"b. c #F6F9F3",
"n. c #FAFBF6",
"m. c #FAFCF8",
/* pixels */
"                                                                                ",
"                                                                                ",
"                                                                                ",
"                                                                                ",
"                                                                                ",
"                                                                                ",
"                                                      . . X                     ",
"                                                  . * X X X X                   ",
"                                                . C d X X X X X                 ",
"                                              . a [ g X X X X X X               ",
"                                            o s R { F o X X X O X .             ",
"                                          o k _ @.,.s.5 X X X X X .             ",
"                            # .         O r _ +.y.-.h.s.5 O X X X               ",
"                        b x -.A &     O c N X.-.j.x.-.h.d.q.2...$               ",
"                    . # o.p $ E A ; + c [ F w.v.8.k.c.,.6.w.y.m                 ",
"                  X t 7 i > i % f % c [ ,.+.-.v.v.8.k.m.c.0.h                   ",
"                X j { p % ` G * + c [ >.u.x.@.:.v.c.0.s.9.h                     ",
"              . } R c u +.B 6 X k [ >.t.8.c.c.@.:.j.8.5.g .                     ",
"            o ) e.#.y g.e.0 ; t N :.u.n.l.8.c.c.r.6.o., X                       ",
"          o } q.' u j.0.u v = i D u.b.b.n.z.0.n.c.s.m o                         ",
"          @ #.] u j.9.u p X.- D O.>.v.v.b.b.n.c.p.m X                           ",
"          X 8 u j.9.u } &.> 3 :.v.6.:.v.b.m.c.i.b .                             ",
"          . q g.9.u } 3.0 Y c 3.f.v.6.,.v.k.u.b < ;                             ",
"          q j.9.u } 3.u K h 3.c 3.f.c.8.O.o.l X C D &                           ",
"        % w.0.y ] 1.0 ;.n.;.u 4.N >.-. .Z y O 8 $ W v                           ",
"      . 4 Q e ] <.y ;.7.i.b.=.u 4.a = g 3 $ C T 8 u #..                         ",
"        H w L 3.y =.6.2 i p.b.=.u d P y.y I D I 2 D 9                           ",
"        @ | Q q =.b.a.U % i p.c.u 2.d.y *.x.I % a &.:                           ",
"        o $.w =.v.k.b.a.G p y.n 1.c.S *.c.4.q V 1                               ",
"          . =.b.b.j.v.b.a.y.z 1.v.S *.x.4.6 U >.> .                             ",
"          . K b.b.b.b.b.c.n 1.v.S *.z.4.g g.] , .                               ",
"            . H b.b.b.x.n 2.v.S *.v.4.g s.l.h .                                 ",
"              . J v.v.l ) c.S *.x.4.d a.z.g .                                   ",
"                . K n ~ ( z / z.4.@ t 1.d .                                     ",
"                    o 2.M ! ^ %.@ . . X .                                       ",
"                      . X d < @                                                 ",
"                                                                                ",
"                                                                                ",
"                                                                                ",
"                                                                                "
};
