/* XPM */
static char *cannon_up_xpm[] = {
/* columns rows colors chars-per-pixel */
"40 40 140 2 ",
"   c #000000",
".  c #070208",
"X  c #0C030C",
"o  c #0B0A0B",
"O  c #0E0C10",
"+  c #130B14",
"@  c #141115",
"#  c #171118",
"$  c #1C171D",
"%  c #1E181F",
"&  c #35181B",
"*  c #1C1621",
"=  c #1B1824",
"-  c #1D1C29",
";  c #241C25",
":  c #221E29",
">  c #341C21",
",  c #252427",
"<  c #25222D",
"1  c #2A232D",
"2  c #232A2F",
"3  c #2B2B2C",
"4  c #242532",
"5  c #2C2731",
"6  c #242B34",
"7  c #2C2B34",
"8  c #272E3C",
"9  c #2C2D3A",
"0  c #332B34",
"q  c #382C33",
"w  c #2F3436",
"e  c #27313E",
"r  c #2E3439",
"t  c #34323D",
"y  c #3A343C",
"u  c #61261D",
"i  c #431F20",
"p  c #75433B",
"a  c #2C3542",
"s  c #343944",
"d  c #3A3C46",
"f  c #423B44",
"g  c #36404C",
"h  c #364554",
"j  c #40414A",
"k  c #4B444C",
"l  c #50484F",
"z  c #434A54",
"x  c #4B4C55",
"c  c #544F55",
"v  c #4B525B",
"b  c #51525A",
"n  c #585158",
"m  c #7A4D48",
"M  c #6A5454",
"N  c #705A59",
"B  c #435360",
"V  c #4C5A65",
"C  c #4D5C69",
"Z  c #5C5D65",
"A  c #525F6A",
"S  c #635E63",
"D  c #4F606A",
"F  c #55606B",
"G  c #556571",
"H  c #5B6975",
"J  c #646466",
"K  c #646F77",
"L  c #6A6B71",
"P  c #716E72",
"I  c #67747B",
"U  c #6F767C",
"Y  c #777477",
"T  c #787577",
"R  c #73777B",
"E  c #7C7F7E",
"W  c #8F483B",
"Q  c #935D51",
"!  c #B57262",
"~  c #6E7B83",
"^  c #717E86",
"/  c #758087",
"(  c #75838C",
")  c #7B868C",
"_  c #7C888F",
"`  c #7D8A91",
"'  c #878487",
"]  c #838688",
"[  c #888488",
"{  c #818D93",
"}  c #859196",
"|  c #8B9396",
" . c #879198",
".. c #8B949A",
"X. c #8E999D",
"o. c #959396",
"O. c #979D9D",
"+. c #9C9B9C",
"@. c #A09E9D",
"#. c #AD9E98",
"$. c #BDA095",
"%. c #959EA1",
"&. c #9D9CA0",
"*. c #A09DA0",
"=. c #9CA4A5",
"-. c #9EA7A9",
";. c #A4A6A4",
":. c #A9A7A7",
">. c #A0A8AB",
",. c #AAADAA",
"<. c #ADB3AF",
"1. c #A5AEB3",
"2. c #ADB4B2",
"3. c #B1B6B5",
"4. c #B9BEBC",
"5. c #C4BAB8",
"6. c #BEC4C4",
"7. c #C5C6C5",
"8. c #CAC4C0",
"9. c #C6CBC6",
"0. c #C3C9C9",
"q. c #CBCDCA",
"w. c #CED1CB",
"e. c #D1D4CE",
"r. c #CDD1D1",
"t. c #D2D5D3",
"y. c #D4D8D4",
"u. c #D9DCD5",
"i. c #DBDDDB",
"p. c #DEE1DD",
"a. c #E1E4DE",
"s. c #E2E6E2",
"d. c #E6E9E4",
"f. c #E8EBE7",
"g. c #ECEEEA",
"h. c #EEF0EE",
"j. c #F1F3EF",
"k. c #F4F6F1",
"l. c #F6F8F3",
"z. c #F8FAF5",
/* pixels */
"                                                                                ",
"                                                                                ",
"                                                                                ",
"                                  . . . . . . .                                 ",
"                                . X X X X X X X                                 ",
"                              . X X X X X X X X o                               ",
"                              O + X X X X X X ; @                               ",
"                              r b X X X X X 0 ,.3                               ",
"                              r ) L + + + 3 e.t.3                               ",
"                              2 G %.g.g.g.g.0.-.,                               ",
"                              2 ~ { 1.1.1.1.r.7.,                               ",
"                              8 ^ 2.g.g.g.h.k.4.3                               ",
"                              9 ( X.q.r.q.r.r.4.5                               ",
"                            . - G -.s.s.d.f.y.^ #                               ",
"                              t B  .f.f.f.s.3.=.,                               ",
"                              s ( I ^ ^ ^ ) 6.u.;                               ",
"                            . r ( 3.z.z.z.z.l.y.,                               ",
"                        @ O . t ( 2.y.y.y.i.l.y.0 . . .                         ",
"                      w V V s t ( 1.i.p.i.s.l.e.3 z V A 3                       ",
"                    o | v v 4 9 ( 3.l.l.z.z.l.e.1 d v Z O.                      ",
"                    J x - a + a ( 3.l.l.l.z.z.r.< - a * K x                     ",
"                    O.V d K * 4 B 2.k.k.k.k.y.` ; s I 1 ) E                     ",
"                    w e j ~ ; 6 h C } ` ` }  .U - d / < C O.O                   ",
"                  . D g b { < 8 6 ` j.k.l.h.2.0 a c X.5 D z @                   ",
"                  . ..F ' w.y ) 1 A e.e.e.7.x S O.T j.f O.R +                   ",
"                  . F z ' w.7 C : h C C V V 8 Z R T k.f H z #                   ",
"                  . w.] ' q.y <.y ;.,.,.,.,.P o.7.T j.l d.:.+                   ",
"                  X w.R [ q.y 2.y c c n n n y +.q.T j.f a.:.#                   ",
"                  . w.R ' q.y 3.t g.l.l.l.k.*.@.q.Y j.k a.:.@                   ",
"                  X w.R ' q.y <.t p.%.|  .>.*.@.q.Y j.k p.:.@                   ",
"                  + 3 s ' q.y 2.t y.t = = v *.@.q.T j.f z ; #                   ",
"                      # ' 9.y <.y y. ._ _ ..&.@.q.T h.f %                       ",
"                        ' q.y <.y g.l.l.z.z.*.+.q.T k.f                         ",
"                      . L #.q 2.y g.d.f.l.l.&.+.7.M 8.y                         ",
"                        8 p & Q > g.h.j.l.l.@.m ! u N :                         ",
"                        @ S q $.i g.l.l.l.l.*.W 5.c y O                         ",
"                          o ; P q t.i.i.i.i.o.c S $ o                           ",
"                                  # # # + # #                                   ",
"                                                                                ",
"                                                                                "
};
