/* XPM */
static char *bomb_xpm[] = {
/* columns rows colors chars-per-pixel */
"40 40 140 2 ",
"   c #000000",
".  c #0B0703",
"X  c #030609",
"o  c #080609",
"O  c #040809",
"+  c #0B0C0D",
"@  c #100B05",
"#  c #0F100D",
"$  c #171006",
"%  c #0B0D10",
"&  c #0F1113",
"*  c #121314",
"=  c #141619",
"-  c #181C1F",
";  c #221912",
":  c #231E1A",
">  c #291B18",
",  c #28201D",
"<  c #161E20",
"1  c #1A1E21",
"2  c #1E2225",
"3  c #1D2429",
"4  c #1E282A",
"5  c #232527",
"6  c #222629",
"7  c #232A2D",
"8  c #2B2C2D",
"9  c #302720",
"0  c #342B22",
"q  c #30302E",
"w  c #272E33",
"e  c #2A2F32",
"r  c #302F35",
"t  c #273133",
"y  c #2B3235",
"u  c #2E363B",
"i  c #2E383A",
"p  c #373737",
"a  c #3F3B30",
"s  c #32363C",
"d  c #33393D",
"f  c #3B3C3D",
"g  c #412C19",
"h  c #663C0A",
"j  c #41322D",
"k  c #474038",
"l  c #4E453C",
"z  c #6A4827",
"x  c #75522C",
"c  c #69543F",
"v  c #7E5F33",
"b  c #7A5B39",
"n  c #2E3842",
"m  c #363C41",
"M  c #3A3D42",
"N  c #3E4245",
"B  c #444546",
"V  c #424846",
"C  c #434749",
"Z  c #45494A",
"A  c #4D4D4D",
"S  c #504C4D",
"D  c #4E4F52",
"F  c #4F5150",
"G  c #525353",
"H  c #555559",
"J  c #57585B",
"K  c #675644",
"L  c #785D40",
"P  c #7D6348",
"I  c #656465",
"U  c #6B6C6C",
"Y  c #6E6E70",
"T  c #747475",
"R  c #7E7E7E",
"E  c #88741E",
"W  c #875C3A",
"Q  c #8C6E52",
"!  c #9B7753",
"~  c #A97546",
"^  c #AA7D53",
"/  c #807E7F",
"(  c #FB8501",
")  c #FB8B00",
"_  c #FC8E0C",
"`  c #FE9504",
"'  c #FA9513",
"]  c #F99E12",
"[  c #FB971B",
"{  c #FF9B1B",
"}  c #FFA101",
"|  c #FEB302",
" . c #FFAE1F",
".. c #FBA51C",
"X. c #E0B711",
"o. c #DA8F32",
"O. c #D79237",
"+. c #F89E2E",
"@. c #F8A120",
"#. c #F7A22C",
"$. c #F8AB2B",
"%. c #FCB42C",
"&. c #FCB735",
"*. c #FFB935",
"=. c #FFD90C",
"-. c #E5C32C",
";. c #FECF37",
":. c #FAD735",
">. c #FBD738",
",. c #B78757",
"<. c #A7A05C",
"1. c #BDA656",
"2. c #FDBE71",
"3. c #FCC642",
"4. c #F9C349",
"5. c #FEDB42",
"6. c #FFDD4B",
"7. c #FCD354",
"8. c #FEDE55",
"9. c #FEE54A",
"0. c #FDE15C",
"q. c #FED561",
"w. c #FEDA60",
"e. c #FDE466",
"r. c #FEE26B",
"t. c #FFEA75",
"y. c #7E8283",
"u. c #848484",
"i. c #878883",
"p. c #89898B",
"a. c #8F9190",
"s. c #959597",
"d. c #A3A3A4",
"f. c #A7A8AA",
"g. c #B9B9B9",
"h. c #F7D6A1",
"j. c #FFD6A2",
"k. c #FFE2A6",
"l. c #FFF8B4",
"z. c #FCF1DB",
/* pixels */
"                                                            X                   ",
"                                                                                ",
"                                                          X                     ",
"                                                o.O.    _                       ",
"                                              ` | ) +.4...' X                   ",
"                                              ] 5.3.&.w.q.%.} _ 2.              ",
"                                              ' r.t.t.0.6.9.5. .(               ",
"                                            ) %.r.8.e.>.=.-.<.1.v     X         ",
"                                        ( ( ` 7.r.:.0.;.X.E > a                 ",
"                                    l.j.{ { [ @.7.r.r.*.h 9 ,.x ,               ",
"                                  X             #.7.$.k.u.= : j ! 0             ",
"                          = * = = = = = = H     z.#.h.          ; W :           ",
"                          6 6 5 p f 8 7 = o q A       y.y i.    @ ^ $           ",
"                        2 d C Z A A A S f 2 =   G J H r 2 e D M . ~ .   X       ",
"                  X - 7 d A A A A A D A A B s -   % & 7 n k z z b g             ",
"                o e m d A A A A A A A A A A N u 1 u N d l P Q L b               ",
"                2 m d A A A A A A A A A A A A f d M Z N K c y 3 %               ",
"            X X 7 d N A A A A A A A A A A A A A d V G G M s m & *               ",
"            + 7 d u N A A A A A A A A A A A A A A p U I J C * & +               ",
"          * X e d u N A A A A A A A A A A A A A A A A Y i.G + #                 ",
"          + 8 s s u N A A A A A A A A A A A A A A A A T f                       ",
"          * 6 s d u N A A A A A A A A A A A A A A A U i.8                       ",
"          # 2 u s s N A A A A A A A A A A A A A A A T f.B                       ",
"          & 2 i d u f B G A A A A A A A A A A A A I T g.G                       ",
"          * 5 t s s u d Z A A A A A A A A A A A I / s.p.5                       ",
"          X = 4 e u s s d A A A A A A A A A A A u.R g.f 5                       ",
"              2 7 t s s d A A A A A A A A A A A u.a.d.8                         ",
"            o = 4 t u u s f A A A A A A A A A A T d.F                           ",
"                < 7 t s s s s s A A A U U U U U d s + o                         ",
"                = 7 7 w d u u s d d d d M d m M s %                             ",
"                  1 7 7 t d d s s u u u u u s d d                               ",
"                    1 7 7 w e u d d d d d d u & X                               ",
"                      O = 7 7 t t t t t t 7 & X                                 ",
"                          O O X X O X X X                                       ",
"                                                                                ",
"                                                                                ",
"                                                                                ",
"                                                                                ",
"                                                                                ",
"                                                                                "
};
