/* XPM */
static char *coin_xpm[] = {
/* columns rows colors chars-per-pixel */
"40 40 169 2 ",
"   c #000000",
".  c #010000",
"X  c #000100",
"o  c #010100",
"O  c #010101",
"+  c #030000",
"@  c #020100",
"#  c #020001",
"$  c #000200",
"%  c #000300",
"&  c #000201",
"*  c #000002",
"=  c #010002",
"-  c #000102",
";  c #000103",
":  c #010103",
">  c #030002",
",  c #020003",
"<  c #000203",
"1  c #040001",
"2  c #040003",
"3  c #000004",
"4  c #000005",
"5  c #010005",
"6  c #00081D",
"7  c #000A1C",
"8  c #000B1C",
"9  c #000B1D",
"0  c #020A1D",
"q  c #01091E",
"w  c #00091F",
"e  c #02081E",
"r  c #000A1E",
"t  c #000B1E",
"y  c #000B1F",
"u  c #020A1F",
"i  c #000C1D",
"p  c #010C1E",
"a  c #000C1F",
"s  c #050720",
"d  c #010920",
"f  c #030921",
"g  c #000A20",
"h  c #000B21",
"j  c #020A21",
"k  c #010822",
"l  c #000922",
"z  c #020923",
"x  c #000A22",
"c  c #000A23",
"v  c #000B23",
"b  c #010C22",
"n  c #000A25",
"m  c #000C24",
"M  c #EB9D07",
"N  c #E99D09",
"B  c #EB9D09",
"V  c #EB9C0B",
"C  c #E89E0B",
"Z  c #EC9C09",
"A  c #EC9E08",
"S  c #EE9C0A",
"D  c #EC9E0A",
"F  c #E99D0C",
"G  c #E79F15",
"H  c #E79F17",
"J  c #E89F15",
"K  c #E89E17",
"L  c #EA9E17",
"P  c #E59F19",
"I  c #E69E18",
"U  c #E79F19",
"Y  c #E79E1B",
"T  c #E99F18",
"R  c #E89E19",
"E  c #E99F1A",
"W  c #EB9E1A",
"Q  c #E89F1C",
"!  c #E99F1C",
"~  c #E5A017",
"^  c #E8A016",
"/  c #E6A118",
"(  c #E6A01A",
")  c #E8A018",
"_  c #E8A01A",
"`  c #FBDB14",
"'  c #F9DB17",
"]  c #FBDB16",
"[  c #FBDB17",
"{  c #FED917",
"}  c #FCDA16",
"|  c #FCDA17",
" . c #FDDB17",
".. c #FEDA16",
"X. c #FFDB17",
"o. c #F8DC16",
"O. c #F9DC16",
"+. c #FADD17",
"@. c #FCDC15",
"#. c #FCDC17",
"$. c #F9DB19",
"%. c #FBDA19",
"&. c #F9DB1B",
"*. c #FED919",
"=. c #FDDB18",
"-. c #FCDA19",
";. c #FFDA18",
":. c #FCD91B",
">. c #FED81B",
",. c #FCDB1A",
"<. c #FDDB1A",
"1. c #FFDA1A",
"2. c #F9DD18",
"3. c #FADC18",
"4. c #FBDD19",
"5. c #FADE19",
"6. c #FADC1A",
"7. c #FBDD1B",
"8. c #FBDF1A",
"9. c #FCDC18",
"0. c #FDDD18",
"q. c #FDDD19",
"w. c #FDDC1B",
"e. c #FEDC1B",
"r. c #FCDE1A",
"t. c #FDDF1B",
"y. c #FFD91C",
"u. c #FDDA1C",
"i. c #FCDB1C",
"p. c #FDDA1E",
"a. c #FCDB1E",
"s. c #FADC1C",
"d. c #FADD1D",
"f. c #FBDD1D",
"g. c #FADF1C",
"h. c #FBDF1C",
"j. c #FBDE1E",
"k. c #FDDC1D",
"l. c #FEDD1C",
"z. c #FCDE1C",
"x. c #FDDF1D",
"c. c #FFDE1D",
"v. c #FEDD1E",
"b. c #FCDE1E",
"n. c #FCDF1F",
"m. c #FDDF1F",
"M. c #FFDE1F",
"N. c #FAE019",
"B. c #FAE01A",
"V. c #FBE11B",
"C. c #FCE01A",
"Z. c #FDE01A",
"A. c #FCE01B",
"S. c #FCE01D",
"D. c #FEE01E",
"F. c #FBDE20",
"G. c #FCDD20",
"H. c #FEDD20",
"J. c #FCDF21",
"K. c #FEFEFC",
"L. c #FFFEFC",
"P. c #FEFFFD",
"I. c #FFFFFD",
"U. c #FFFDFE",
"Y. c #FEFEFE",
"T. c #FEFEFF",
"R. c #FFFEFF",
"E. c #FEFFFF",
"W. c #FFFFFF",
/* pixels */
"                                                                                ",
"                                                                                ",
"                                                                                ",
"      3                     7 h h h h h h h h h h 7                     3       ",
"                            h 7 h h h h h h h h i h                             ",
"                  h 7 i n 7 S.S.S.S.S.S.S.S.S.S.n.j.7 n 7 h h                   ",
"                  h 7 7 h h A.9.j.j.j.j.j.j.j.j.9.9.h m 7 7 h                   ",
"              s h 9.,.,.$.,.L.L.L.L.L.L.L.L.L.L.L.L.9.j.9.n.j.h s               ",
"              7 7 ,.,.$.,.$.L.L.L.L.L.L.L.L.L.L.L.L.n.j.j.A.n.i n               ",
"          7   F.n.L.L.L.L.L.#.j.9.9.9.,.$.,.[ 9.,.} L.L.L.V S 4.4.h 7           ",
"          7 7 n.n.L.L.L.L.L.,.} ,.9.,.y.9.[ ,.$.,.,.L.L.L.V V n.A.7 h           ",
"          7 h G.G.L.L.} ,.} 9.$.,.} 9.,.[ ,.[ ,.,.4.,.$.} V S j.j.7 h           ",
"          h 7 j.n.L.L.,.,.} } 4.L.L.L.L.L.L.! _ #.$.4.9.,.V F A.9.7 h           ",
"          7 n G.n.L.L.[ } j.,.,.L.L.L.L.L.L.K _ 9.,.} ,.[ S V 9.n.7 7           ",
"      h 7 #.G.L.L.9.$.4.,.,.9.9.L.L.,.$.} } R R [ ,.y.#.9.$.4.V M 4.j.h 7       ",
"      7 h y.S.L.L.j.,.,.4.,.} 9.L.L.,.,.,.[ _ K n.o.,.,.,.,.,.V F n.j.h h       ",
"      7 h ,.n.L.L.9.9.,.9.,.,.9.L.L.,.9.,.9.U _ $.,.,.9.,.9.9.V V 4.9.h h       ",
"      7 h ,.n.L.L.9.9.,.9.,.,.9.L.L.,.9.,.9.U _ $.,.,.9.,.9.9.V V 4.n.h h       ",
"      7 h ,.n.L.L.9.9.,.9.,.,.9.L.L.,.9.,.9.U _ $.,.,.9.,.9.9.V V 4.9.h h       ",
"      7 h ,.n.L.L.9.9.,.9.,.,.9.L.L.,.9.,.9.U _ $.,.,.9.,.9.9.V V 4.n.h h       ",
"      7 h ,.n.L.L.9.9.,.9.,.,.9.L.L.,.9.,.9.U _ $.,.,.9.,.9.9.V V 4.n.h h       ",
"      7 h ,.n.L.L.9.9.,.9.,.,.9.L.L.,.9.,.9.U _ $.,.,.9.,.9.9.V V 4.n.h h       ",
"      7 h ,.n.L.L.9.9.,.9.,.,.9.L.L.,.9.,.9.U _ $.,.,.9.,.9.9.V V 4.n.h h       ",
"      7 h ,.n.L.L.9.9.,.9.,.,.9.L.L.,.9.,.9.U _ $.,.,.9.,.9.9.V V 4.n.h h       ",
"      7 h [ n.L.L.$.9.$.,.o.,.,.L.L.,.9.,.,.U R #.,.,.j.#.,.,.V S V.9.h h       ",
"      h h ,.n.L.L.4.[ ,.,.,.9.[ L.L.[ ,.4.,.H K 4.,.4.,.9.4.4.M S G.9.7 h       ",
"      7 h n.j.L.L.} ,.$.y.,.4.9.L.L.,.} 9.} _ _ ,.y.9.9.,.,.[ V S j.j.h 7 2     ",
"          h i ,.4.L.L.n.} y.} ,.L.L.U K _ R R U 9.} 9.,.9.~ U V.j.7 7           ",
"          h 7 ,.,.L.L.9.#.,.4.,.L.L._ _ U ( R _ [ $.,.4.} R R 9.n.7 7           ",
"3         h h 9.9.R K U ! _ 9.,.[ 9.$.o.,.,.[ ,.} ,.H ! H ^ U S.V.h 7           ",
"          7 h 4.9.~ _ R R ~ } 9.,.4.,.,.y.[ y.o.,.,.R _ _ U R 4.n.h 7   2       ",
"              7 7 y.} } $.,.R _ ( R R R K H _ ! ( K A.4.j.n.j.7 h               ",
"              s h } ,.y.} 9.U U U U U U U U U U R U 9.4.F.S.9.h s               ",
"                  h 7 h 7 7 9.,.,.,.,.,.,.,.,.,.,.9.7 7 h 7 h   3               ",
"                  h i 7 h n ,.#.9.9.9.9.9.9.9.9.#.9.h h 7 7 7                   ",
"                            h h h h h h h h h h h h                             ",
"      3         3           7 h h h h h h h h h h 7                     3       ",
"                                                                                ",
"                          3                         3                           ",
"                                                                                "
};
