/* XPM */
static char *asteroid_xpm[] = {
/* columns rows colors chars-per-pixel */
"40 40 47 1 ",
"  c #000000",
". c #070707",
"X c #0B0B0B",
"o c #0C0C0C",
"O c #101010",
"+ c #161616",
"@ c #1C1C1C",
"# c #1D1D1D",
"$ c #222222",
"% c #242424",
"& c #282828",
"* c #2C2C2C",
"= c #323232",
"- c #343434",
"; c #393939",
": c #3C3C3C",
"> c #404040",
", c #444444",
"< c #484848",
"1 c #4C4C4C",
"2 c #505050",
"3 c #565656",
"4 c #585858",
"5 c #5C5C5C",
"6 c #606060",
"7 c #646464",
"8 c #6F6F6F",
"9 c #717171",
"0 c #777777",
"q c #7B7B7B",
"w c #7F7F7F",
"e c #818181",
"r c #838383",
"t c #8B8B8B",
"y c #8F8F8F",
"u c #909090",
"i c #979797",
"p c #9B9B9B",
"a c #9F9F9F",
"s c #A3A3A3",
"d c #A7A7A7",
"f c #AFAFAF",
"g c #B3B3B3",
"h c #B7B7B7",
"j c #BBBBBB",
"k c #BFBFBF",
"l c #C3C3C3",
/* pixels */
"                                        ",
"                                        ",
"                                        ",
"                 o@+@o                  ",
"                 1fwl*                  ",
"             X;;uglles3                 ",
"            $388dlllf8,$                ",
"           =5epsjfdll054-@X             ",
"       o@@+edplllspllpuuy2=o            ",
"       1lllllllllllllllllwg4            ",
"       1lll5>7lllllllllllllhe           ",
"      #:qllr9ellpdd7llllllllgq          ",
"      :5qlseeeee7eu7lllllllgdl=X        ",
"     +7yig9997>>>488fjfpslldsly;o       ",
"     dllfe:>>>>>>>::wfe::lllllll5       ",
"     dueew>>>>>>>>>>eweweegllll5$       ",
"     dyeq1>#OOOO=>>>wewuggjspll5=$      ",
"   o<9weq7>%@@@#=157weeespspdls973-     ",
"   @g29eew12221227eeewewew0yffewrue     ",
"   Oeeewweweeeweeeeewewewe17wewepfw     ",
"   Oeewweeweewewesfwewewweee9>>>>=      ",
"   X210wtfwsfffffhjfe42222221>>>>*      ",
"   o57ysdlpjlllllllje2>>>>>25775>@      ",
"   +yyfllllllllllllf91>>>>:30wew>       ",
"   #llllllllllllllfe>>>>>>>>2eew>       ",
"   Oeeflllllpyllyeww>>>>>>>>>>we>       ",
"   Oeetyuuugjhllfpwe>>&OO;>>>>29:       ",
"   o45754>>epdllsyew7<*@@:>>>>>4=       ",
"   .-:>;% X<9eggyweww422222<>>==@       ",
"     ;:$  ;>>1weweweeeeeewe5>>          ",
"       @:;>>>>>>9eewlllllee7=           ",
"       XOO71>>>>124wuuyuyw5*X           ",
"          ;:>>>>>=*7575755=O            ",
"           #;>>>>%O>:=====o             ",
"            @:>>>>>>>O                  ",
"             X>>O#>>                    ",
"              OO..oO                    ",
"                                        ",
"                                        ",
"                                        "
};
