/* XPM */
static char *cursor_xpm[] = {
/* columns rows colors chars-per-pixel */
"32 32 4 1 ",
"  c #000000",
". c #0C1427",
"X c #A9A9A9",
"o c #FFFFFF",
/* pixels */
"              ....              ",
"             ......             ",
"             ..Xo..             ",
"           ....Xo....           ",
"        .......Xo.......        ",
"       ....oo..Xo..XX....       ",
"      ...oo....Xo....Xo...      ",
"     ..Xo......Xo......oo..     ",
"    ...X...  ..Xo..  ...o...    ",
"    ..X...   ......   ...o..    ",
"    ..X..     ....     ..o..    ",
"   ..X..                ..o..   ",
"   ..X..                ..o..   ",
" .........    ....    ......... ",
"...........  ......  ...........",
"..XXooooo..  ..Xo..  ..Xoooooo..",
"..XXooooo..  ..Xo..  ..Xoooooo..",
"...........  ......  ...........",
" .........    ....    ......... ",
"   ..X..                ..o..   ",
"   ..X..                ..o..   ",
"    ..X..     ....     ..o..    ",
"    ..X...   ......   ...o..    ",
"    ...X...  ..Xo..  ...o...    ",
"     ..Xo......Xo......oo..     ",
"      ...oo....Xo....Xo...      ",
"       ....oo..Xo..XX....       ",
"        .......Xo.......        ",
"           ....Xo....           ",
"             ..Xo..             ",
"             ......             ",
"              ....              "
};
