/* XPM */
static char *laser_xpm[] = {
/* columns rows colors chars-per-pixel */
"15 15 11 1 ",
"  c #00FF00",
". c #09FF09",
"X c #23FE23",
"o c #24FE24",
"O c #25FE25",
"+ c #26FE26",
"@ c #30FE30",
"# c #31FE31",
"$ c #32FE32",
"% c #33FE33",
"& c #000000",
/* pixels */
"&&&&&%+o+%&&&&&",
"&&&$.     .$&&&",
"&&O         O&&",
"&@           @&",
"&.           .&",
"#             #",
"O             O",
"X             X",
"O             O",
"#             #",
"&.           .&",
"&@           @&",
"&&O         O&&",
"&&&$.     .$&&&",
"&&&&&%+o+%&&&&&"
};
