/* XPM */
static char *leaderboard_xpm[] = {
/* columns rows colors chars-per-pixel */
"55 55 221 2 ",
"   c #000000",
".  c #010C1E",
"X  c #030618",
"o  c #05121E",
"O  c #060E28",
"+  c #031423",
"@  c #02132C",
"#  c #041A2C",
"$  c #0B1B2B",
"%  c #091527",
"&  c #131C2E",
"*  c #1B192C",
"=  c #021533",
"-  c #0B1733",
";  c #041C33",
":  c #0B1C34",
">  c #0C1D3B",
",  c #071D3A",
"<  c #131C33",
"1  c #111F3A",
"2  c #1B1D33",
"3  c #0B212E",
"4  c #17252F",
"5  c #0E2433",
"6  c #062539",
"7  c #0C233B",
"8  c #08273A",
"9  c #132334",
"0  c #1B2333",
"q  c #152934",
"w  c #13233C",
"e  c #19243B",
"r  c #142A3E",
"t  c #1B2B3D",
"y  c #1B2933",
"u  c #25363C",
"i  c #202938",
"p  c #0C2543",
"a  c #0C2944",
"s  c #152541",
"d  c #192642",
"f  c #142B43",
"g  c #1B2C43",
"h  c #152C4B",
"j  c #1C2D4B",
"k  c #192648",
"l  c #1A3243",
"z  c #1D324A",
"x  c #13344A",
"c  c #1A3853",
"v  c #212C49",
"b  c #212E47",
"n  c #223146",
"m  c #23344C",
"M  c #2B3B4A",
"N  c #26374A",
"B  c #343C4A",
"V  c #233453",
"C  c #243B53",
"Z  c #2A3B56",
"A  c #2C3D5B",
"S  c #263A58",
"D  c #303B52",
"F  c #313F61",
"G  c #1E4557",
"H  c #32434A",
"J  c #39414B",
"K  c #2B425D",
"L  c #2E4A5D",
"P  c #264457",
"I  c #32425B",
"U  c #384959",
"Y  c #2B4A63",
"T  c #314464",
"R  c #334C64",
"E  c #394B67",
"W  c #2B5164",
"Q  c #2C536A",
"!  c #335266",
"~  c #35546A",
"^  c #3A536C",
"/  c #335A6B",
"(  c #3B596C",
")  c #3C5D73",
"_  c #375771",
"`  c #3C6274",
"'  c #3C6A7C",
"]  c #3A6478",
"[  c #41494E",
"{  c #47585F",
"}  c #485665",
"|  c #545D6B",
" . c #425C75",
".. c #475A78",
"X. c #41657A",
"o. c #4A697D",
"O. c #576675",
"+. c #5D747D",
"@. c #55676F",
"#. c #636B76",
"$. c #627279",
"%. c #A7781B",
"&. c #A97D27",
"*. c #AE8226",
"=. c #AD822B",
"-. c #B1852B",
";. c #B88B2B",
":. c #BC912D",
">. c #AB8534",
",. c #A9873A",
"<. c #BB8E33",
"1. c #B48A36",
"2. c #BC9132",
"3. c #C49434",
"4. c #CB9437",
"5. c #D6AA37",
"6. c #FAAE3B",
"7. c #F3AA3A",
"8. c #E6BE3A",
"9. c #E6BC3A",
"0. c #FAB43A",
"q. c #EAA939",
"w. c #EDC638",
"e. c #F3CA3B",
"r. c #FCCC3B",
"t. c #F6C73A",
"y. c #FCD235",
"u. c #FCD33B",
"i. c #FEDA3B",
"p. c #FCD637",
"a. c #A78B48",
"s. c #AB9255",
"d. c #B38F44",
"f. c #979269",
"g. c #959778",
"h. c #8F977F",
"j. c #A89A6A",
"k. c #A79D75",
"l. c #FDD74A",
"z. c #FCD851",
"x. c #FDE577",
"c. c #3B6B81",
"v. c #446E85",
"b. c #5A6C87",
"n. c #4B7285",
"m. c #497589",
"M. c #5A7789",
"N. c #4F7C90",
"B. c #606C83",
"V. c #637582",
"C. c #677884",
"Z. c #717C86",
"A. c #51818E",
"S. c #538191",
"D. c #5C8B9D",
"F. c #598698",
"G. c #74868C",
"H. c #648E9C",
"J. c #6B8194",
"K. c #788694",
"L. c #7F9097",
"P. c #79979B",
"I. c #6E8B95",
"U. c #5C8CA2",
"Y. c #578EA2",
"T. c #5B92A5",
"R. c #5493A5",
"E. c #4F91A1",
"W. c #638EA2",
"Q. c #6592A2",
"!. c #6B95A5",
"~. c #6A98AA",
"^. c #7097A9",
"/. c #7B99A3",
"(. c #949A84",
"). c #929883",
"_. c #828A99",
"`. c #869498",
"'. c #8A9682",
"]. c #9DA289",
"[. c #9BA596",
"{. c #A5A487",
"}. c #8792A2",
"|. c #949CAA",
" X c #8DA6A8",
".X c #9AA4AB",
"XX c #9AABB4",
"oX c #9DB4B8",
"OX c #8AA6B9",
"+X c #A7B5BA",
"@X c #FDE897",
"#X c #96B2C6",
"$X c #A6BCC7",
"%X c #B1BCC9",
"&X c #A9C3C7",
"*X c #B9C8CB",
"=X c #A6C1D2",
"-X c #B7CBD5",
";X c #BDD7DB",
":X c #BDD8E4",
">X c #C7D8DD",
",X c #C4C8D1",
"<X c #FDF6D9",
"1X c #C6DAE3",
"2X c #D4DBE5",
"3X c #D7D9E4",
"4X c #CBE3EB",
"5X c #C5E1E5",
"6X c #D5E5EC",
"7X c #DCE9EE",
"8X c #D5E6E7",
"9X c #DDEDF6",
"0X c #DFF1F8",
"qX c #E5F6FB",
"wX c #E9F6FC",
"eX c #E6F8FC",
"rX c #EBFAFD",
"tX c #E3F2F5",
"yX c #F4FEFD",
"uX c #FAFDFE",
"iX c #E5EDF8",
/* pixels */
"                                                                                                              ",
"                                                                                                              ",
"                                                                                                              ",
"                                                                                                              ",
"                                                                                                              ",
"                                                                                                              ",
"                                                            X                                                 ",
"                                % 2 } _.}.|.|.|.`._._.K.Z.C.#.|.|.|.`._.} 2 %                                 ",
"                            * 2 | XX3XuXuXyXuXuXyXyXyXyXrXiX2XuXuXuXuXuX3XXX| 0                               ",
"                          * B _.2X2X.X|..X*X*X+X+X,X>X*X%X+X}.+X*X*X.X|..X2X2XK.J                             ",
"                        2 O.%XrX3X#.0 y y J U B u H [ J M i & B [ J y y 0 #.3XwX%XO.&                         ",
"                      t C.2XuX8XV.& 9 0 % . . & % X X o + + & & O . O 0 3 < V.8XuX>XC.i                       ",
"                    B _.6XtX%XB.n 9 d g < < 9 e < w g d e 0 e 0 w < $ g d 9 n B.%XwX6X_.D                     ",
"                * N J.9X7X/.N @ > d j m j g m d s k A K D d 1 d m g m V g d > @ N }.7X9XJ.N *                 ",
"              * B K.K.1XoXM X < C ^ ^ R  .R ^ o.R c R  . .L C o.^ !  .R ^ ! R < X M oX1XK.K.D 2               ",
"              | -X9XG.U U M t U eXqXeXeXeXeXwXeXeXeXeXeXeXeXeXeXeXwXeXeXeXeXeXo.t M U U J.9X-X}               ",
"              Z.eX0X} $ w g n ( qX&.=.-.=.*.=.*.=.*.=.=.=.-.*.=.-.=.=.-.=.-.>.U.n g 5 $ } 0XeXZ.              ",
"              G.rXeXH $ g E b.b.eX*.^.^.!.eX&.q.e.w.e.e.e.w.e.w.e.;.s.!.^.eXk.M.b.E g $ H eXrXG.              ",
"              $.rXeXu $ r j j ! qX1.U.g Q eX=.0.u.u.i.i.u.i.l.x.i.<.j.m.A eX{.X.j j r # u eXrX$.              ",
"              | >X+Xu $ : j E ` eX1.D.l X.eX=.0.u.u.u.u.u.y.z.<Xi.:.j.N.: wX{.n.E d : $ u +X>X|               ",
"              @.8XoXu + w w z X.eX1.U.t ) eX=.0.u.u.u.u.u.u.l.<Xi.<.k.m.g eX{.n.b w w + u +X8X@.              ",
"              C.7X+X4 + w w : ( eX1.U.< ! eX=.6.u.u.u.u.u.y.l.<Xi.2.j.m.e eX{.v.: w w + 4 +X7XC.              ",
"              G.tX-Xq + : - - U eX1.D.H.! eX&.6.u.u.u.u.u.y.z.<Xi.<.j.n.D.eX{.) - - : + q *X0XK.              ",
"              _.tX6XH + @ - O : Q.U.d.eX( eX&.0.r.u.u.u.u.y.z.<Xi.<.k.n.eX,.!.g O - @ + H 6XtX_.              ",
"              L.qXtX@.9 @ : s g C  .(.`.eXeX=.0.u.u.u.u.u.y.l.@Xi.2.s.eXeXf.!.V s , @ 9 @.tXqX`.              ",
"              L.eXeX{ 9 d V A I K R o.P.,.>.>.6.r.u.u.u.u.i.u.y.i.2.,.,.[.v.R T Z V s 9 { eXeXL.              ",
"              G.0X8Xq + I ..^ z f L o.H.H.[.%.3.6.0.u.u.u.u.i.8.3.*.j.H.W.R f z ^ ..I o q 8X0XG.              ",
"              $.4X&Xq # m  .^ K C C A P X./.].>.4.q.r.u.u.u.e.4.&.k. X) K S C K ^  .m + q &X5XV.              ",
"              +.4XXX5 # z T T K C C R P z L S.a.>.3.6.t.u.u.9.,.=.Q./ A R C C K T T z $ 5 XX4X+.              ",
"              +.4X X3 + : , > 7 : w r @ : : Y P.s.-.<.8.u.3.<.].!.W.: @ s 6 : 7 , , : + 3  X5X+.              ",
"              +.;XoX9 + @ = = @ # @ @ @ @ O : H.'.eX&.8.u.-.f./.z @ @ @ @ @ @ @ @ = @ + 9 oX>X+.              ",
"              V.;X-XN # w V j g z g 7 t b w $ 5 ! qX%.8.u.*.(.! $ 9 j g 7 d z g j V w # N *X;XM.              ",
"              V.4X;X} q f A S s m E I g s Z t U L eX%.8.u.*.(.o.t Z q g I E C s A A d q } :X4XV.              ",
"              V.5X;X} t C T Z d r m N @ : v > wXeXeX&.w.y.-.g.^.d j : @ N V w d Z T C g ( ;X5XM.              ",
"              V.1X-XP 5 z h s h V j @ : z d C eXs.=.>.8.u.1.-.(.H.~ n : @ g C g s h z 5 P -X1XV.              ",
"              V.1X&Xl # g h s 7 h w @ g C g eXj.>.<.7.t.u.e.5.a.s.!.A f @ 7 d 7 s j d # l &X>X+.              ",
"              M.:X$Xf ; j ^ F > 7 j f C g ; qX,.3.5.t.r.i.i.w.2.%.!.m C r j 7 > F ^ z # f $X;XM.              ",
"              O.:X=XP 7 h T A s V A f m q r eXd.7.0.i.u.u.u.u.9.&.!.l m f A V s A T f 7 P =X:XO.              ",
"              H OX#XM.C a p > V Z g s : g U wX,.;.:.:.:.2.:.:.;.%.!.N : s g Z V > p h V M.#XOXI               ",
"              & m o.J.X.Q c a V m > v b e M ) (.h.).).h.).h.(.).g.Q.g v v 1 m z a c W X.J.o.N                 ",
"                  # P M.!.m.Y x 6 = d n w % I ^ ~ ) ~ ! ~ ^ ~ _ o.g w n d = 7 x W m.~.N.P @                   ",
"                    w L N.D.A.o.G ; ; ; 1 - w - : w f 7 r w : - 1 - w ; ; ; G o.A.D.N.L q                     ",
"                      r / F.~.Q.F./ 6 a 6 r d f 8 6 8 a 6 6 f f d r > a 6 / F.Q.~.F./ r                       ",
"                        9 W ' S.Q.S.] W W X.X._ Q ] G W ~ ! / / ' ' W W ] S.Q.S.' W <                         ",
"                            l X.W.!.W.D.Y.U.Q.U.F.D.D.!.W.F.W.U.T.T.D.F.W.!.Q.X.x                             ",
"                              t W ` v.m.Y.T.E.T.T.T.~.!.Q.!.~.T.E.R.Y.m.v.) ! t                               ",
"                                < 7 x P ' v.' ' X.m.` W L ` ] ' c.v.' G x 7 -                                 ",
"                                    % : t g r t t g 9 - : 9 9 t t g t : %                                     ",
"                                                                                                              ",
"                                                                                                              ",
"                                                                                                              ",
"                                                                                                              ",
"                                                                                                              ",
"                                                                                                              ",
"                                                                                                              "
};
