/* XPM */
static char *leaderboard_selected_xpm[] = {
/* columns rows colors chars-per-pixel */
"55 55 232 2 ",
"   c #000000",
".  c #030709",
"X  c #050A0D",
"o  c #060E11",
"O  c #080E11",
"+  c #01071A",
"@  c #091115",
"#  c #0B151A",
"$  c #0D191E",
"%  c #051116",
"&  c #040F28",
"*  c #031423",
"=  c #0E1C22",
"-  c #02132B",
";  c #051A2A",
":  c #0A1B2B",
">  c #081426",
",  c #101E25",
"<  c #131C2E",
"1  c #021533",
"2  c #041D34",
"3  c #0B1B33",
"4  c #0C1D3A",
"5  c #0B1835",
"6  c #131C34",
"7  c #101E3A",
"8  c #0D212C",
"9  c #112027",
"0  c #12242B",
"q  c #15282F",
"w  c #1B252F",
"e  c #0C233C",
"r  c #0A2538",
"t  c #132432",
"y  c #162A33",
"u  c #192C35",
"i  c #13233C",
"p  c #19243B",
"a  c #172D39",
"s  c #192E3A",
"d  c #192435",
"f  c #1A323D",
"g  c #173037",
"h  c #26363C",
"j  c #202731",
"k  c #0C2644",
"l  c #152541",
"z  c #192642",
"x  c #142B43",
"c  c #1B2B44",
"v  c #1C2D4A",
"b  c #192949",
"n  c #1C3541",
"m  c #1E3A45",
"M  c #1D324B",
"N  c #1F3D4A",
"B  c #12334D",
"V  c #1B3853",
"C  c #212D49",
"Z  c #222E47",
"A  c #23344D",
"S  c #213D4B",
"D  c #273848",
"F  c #243452",
"G  c #243B54",
"H  c #2D3D5A",
"J  c #293B56",
"K  c #343C4E",
"L  c #313F62",
"P  c #0A1C40",
"I  c #1D4557",
"U  c #1F414D",
"Y  c #22414E",
"T  c #28424F",
"R  c #34424A",
"E  c #234453",
"W  c #244659",
"Q  c #2B425D",
"!  c #264A5B",
"~  c #294C5E",
"^  c #264855",
"/  c #36485B",
"(  c #2A4E61",
")  c #2B4963",
"_  c #344D64",
"`  c #374966",
"'  c #2B5264",
"]  c #2D5669",
"[  c #2E596D",
"{  c #275263",
"}  c #3A546C",
"|  c #325A6D",
" . c #365469",
".. c #2F5D71",
"X. c #315E73",
"o. c #3C5971",
"O. c #326175",
"+. c #3D6275",
"@. c #35647B",
"#. c #36697E",
"$. c #3C687D",
"%. c #2F6275",
"&. c #424D54",
"*. c #445764",
"=. c #425C75",
"-. c #475A79",
";. c #426479",
":. c #49697D",
">. c #55676F",
",. c #646B78",
"<. c #A7781B",
"1. c #A97D27",
"2. c #AD822B",
"3. c #AE8226",
"4. c #B1852B",
"5. c #B88B2B",
"6. c #BC912D",
"7. c #AB8534",
"8. c #A9873A",
"9. c #BB8E33",
"0. c #B48A36",
"q. c #BC9132",
"w. c #C49434",
"e. c #CB9437",
"r. c #D6AA37",
"t. c #F7AC3B",
"y. c #E6BD3A",
"u. c #FAB43A",
"i. c #EAA939",
"p. c #EDC638",
"a. c #F7CA3B",
"s. c #FCD33B",
"d. c #FEDA3B",
"f. c #FCD436",
"g. c #A78B48",
"h. c #AB9255",
"j. c #B38F44",
"k. c #959778",
"l. c #949370",
"z. c #A89A6A",
"x. c #A79D75",
"c. c #FDD74A",
"v. c #FCD851",
"b. c #FDE577",
"n. c #376B83",
"m. c #396D85",
"M. c #396E88",
"N. c #356780",
"B. c #397085",
"V. c #456D84",
"C. c #497488",
"Z. c #57798E",
"A. c #4C7D92",
"S. c #55728B",
"D. c #616B85",
"F. c #667282",
"G. c #538295",
"H. c #558499",
"J. c #5C8B9D",
"K. c #598698",
"L. c #52828E",
"P. c #638E9D",
"I. c #698095",
"U. c #79959D",
"Y. c #758897",
"T. c #5D8CA2",
"R. c #578EA2",
"E. c #5892A5",
"W. c #618DA1",
"Q. c #6593A3",
"!. c #6C95A5",
"~. c #6D9AAC",
"^. c #6C97A8",
"/. c #7797A4",
"(. c #7CA4B3",
"). c #949A84",
"_. c #929883",
"`. c #86938E",
"'. c #9CA390",
"]. c #A5A487",
"[. c #8395A2",
"{. c #839AA2",
"}. c #8B9BA4",
"|. c #899AA7",
" X c #929DAA",
".X c #959FA5",
"XX c #8DA1A6",
"oX c #8CA3AD",
"OX c #87A4AD",
"+X c #9AA3AC",
"@X c #89AAB8",
"#X c #91A7B2",
"$X c #9CA4B2",
"%X c #93AAB4",
"&X c #99ADB9",
"*X c #8DB1BE",
"=X c #9CB2BB",
"-X c #9AB1B7",
";X c #A5B5BB",
":X c #A0AEB9",
">X c #FDE897",
",X c #8FB3C1",
"<X c #93B4C2",
"1X c #9BBAC6",
"2X c #A4B9C4",
"3X c #B0BBC6",
"4X c #B1BCD0",
"5X c #A3C2CC",
"6X c #A8C4C8",
"7X c #B9C8CB",
"8X c #A9C6D3",
"9X c #B5CCD5",
"0X c #BAD5D9",
"qX c #BDD7E4",
"wX c #9EC0CC",
"eX c #C7DADD",
"rX c #CBD0D8",
"tX c #FDF6D9",
"yX c #C6DBE4",
"uX c #D5DBE5",
"iX c #CAE4EB",
"pX c #D5E7EA",
"aX c #DCEBF6",
"sX c #DFF3FA",
"dX c #E5F6FB",
"fX c #E8F6FC",
"gX c #E6F8FC",
"hX c #EBFAFD",
"jX c #E3F3F5",
"kX c #FAFDFE",
"lX c #F4FDFD",
"zX c #E3EDF6",
/* pixels */
"        . . X X O @ # $ = 9 9 q y u s f f n n n n n n n n n n n n f f s s u y q 9 , = $ # @ O X . . .         ",
"        . X O @ # $ = 9 q y u f n n m N N Y E E Y E E E E E E Y E U N N m m n s u q 9 9 = # # @ X X .         ",
"      X X O @ # = 9 0 y s f m N Y E E ! ~ ~ ~ ~ ' ' ' ' ' ' ' ' ( ~ ! ! E E S m n f u q 9 = $ # @ O X . .     ",
"  . X X O # $ = 9 q u f m S E W ~ ( ] ] [ X.X.X.O.X.X.O.O.O.O.X...[ | ] ' ' ~ ! E S m f y q 9 = # @ O X X     ",
"  X X @ # $ = 0 y s n S E ~ ' ] [ X.@.#.n.n.m.m.m.m.m.m.m.m.m.m.n.n.#.@.@.X.[ ] ( ! E S n s y 9 = $ # O X . . ",
"X X @ # $ , 0 u f m Y ! ( ] ..@.#.m.m.m.m.m.m.m.m.m.m.m.m.m.C.m.m.M.m.m.m.m.@.O.| ] ~ W S m f y 0 , $ # @ X . ",
"X @ # $ , 0 a n N E ~ ] X.@.n.n.A.H.(.8X8X9X9X8X5X5X2X1X<X*X8X8X9X9X5X8X(.K.A.m.#.O.[ ' ! E m f u 0 , $ # O X ",
"O @ $ , 0 a n S E ( [ O.#.m.G.H.2X=X[. X X$X$X$X X|.|.}.}.}.}.+X$X$X X X[.=X2XH.m.m.#.X.] ~ E N n u 0 , $ @ o ",
"@ $ = 0 u n N ^ ' [ O.n.m.H.2X=X}.$XuXkXkXlXkXkXlXlXlXlXhXzXuXkXkXkXkXkXuX$X[.=X!.m.M.n.O.[ ( W S n u 0 = # @ ",
"# , 0 y n S ^ ' | @.n.m.K.;XoX`.uXuX+X.X+X7X7X;X;XrXrX7X3X;X[.;X7X7X+X.X+XuXuX X X*XH.m.n.O.[ ' E S f y 9 = # ",
"$ 9 t f N E ( [ @.m.M.J.;X[.;XhXuX,.w u u R &.K h R &.R K s < K &.R u j w ,.uXhX3X[.2XJ.m.m.@.| ' E m s t , $ ",
"= 0 u m E ( [ O.B.m.^.&X[.eXkXpXF.< t t > + * t > + + # > > < < * + > t 8 6 F.pXkXyX[.%X^.m.n.O.[ ~ Y n s 0 = ",
"9 q f N ! ] O.n.H.Q. X|.pXfX4XD.Z 7 c c 3 6 t p 6 i c z p d p d i 6 3 c s t Z D.4XfXpX XoX!.H.n.O.] ^ S f y 9 ",
"9 a m E ( ..@.K.;XoX|.aXaX[.A - 4 c c A C c A z l b H Q J z 7 z A c v F c c 4 - A [.aXzX|.oX;XK.N.[ ~ E m u 9 ",
"q f S ^ ] O.K.<X|.Y.Y.yX:XK + 6 G _ } _ =._  .:._ V _ =.=.Q G :.} _ =._ }  .) 6 + K -XyXY.Y.XX=XH.O.] W N f t ",
"y n S ~ X.#.(.[.9XaXI./ / D s _ fXgXgXgXgXgXfXgXgXgXgXgXgXgXdXgXgXfXdXgXgXgXgX:.s D / / I.aX9X[.(.#...~ Y n y ",
"u m E ' X.n.1X}.gXsX*.: i c A o.dX1.2.4.2.3.2.3.1.3.2.2.2.4.3.2.2.2.2.2.2.4.7.T.Z c t : *.sXhX}.1Xn.O.' E m u ",
"s m E ] O.m.1X}.hXgXR : c ` D.S.gX3.^.^.^.gX1.i.p.p.a.a.a.p.p.p.a.5.h.!.^.gXx.Z.D.` c : R gXhX}.1Xm.O.] E m s ",
"f S ! [ #.m.@X}.hXgXh : i v v  .dX0.T.c ] gX2.u.s.s.d.d.s.d.c.b.d.9.z.C.H gX].;.b v i : h gXhX}.@Xm.#.[ ! N f ",
"f S ! [ n.m.(.{.eX;Xh ; 3 c ` +.gX0.J.n ;.gX2.u.s.s.s.s.s.f.v.tXd.6.z.Z.3 hX].V.` c 3 : h ;XeX}.(.m.#.[ ! S f ",
"f S ~ [ n.m.@X{.pX-Xh * i i M ;.gX0.T.s o.gX2.u.s.s.s.s.s.s.c.tXd.9.x.C.c gX].C.c i i * h -XpX{.@Xm.#...~ S n ",
"n Y ( X.n.m.<X{.pX;Xw * i 7 3 o.gX0.T.6  .gX2.t.s.s.s.s.s.f.c.tXd.q.z.C.p gX].V.4 i i * w ;XpX{.<Xm.n.X.~ Y n ",
"n E ( X.n.m.1X}.jX9Xy * 3 5 3 / gX0.J.P. .hX1.t.s.s.s.s.s.f.v.tXd.9.z.C.J.gX].o.5 5 3 * w 7XjX}.1Xm.n.X.( Y n ",
"n E ' X.n.m.wX XjXpXR * - 5 & 3 Q.T.j.gXo.gX1.u.s.s.s.s.s.f.v.tXd.9.x.C.gX8.!.c - 5 - * R pXjX X1Xm.m.X.( E n ",
"n E ( X.m.m.5XXXdXjX>.t - 5 l c G =.).`.gXgX2.u.s.s.s.s.s.f.c.>Xd.q.h.gXgXl.!.F i 4 - t >.jXdXXX5Xm.n.X.( Y f ",
"n E ( X.m.m.5XXXhXgX*.t z F H / Q _ :.U.8.7.7.t.s.s.s.s.s.s.s.f.d.q.8.8.'.V.` ) J F l 0 *.gXgXXX5Xm.n.X.( E n ",
"n E ~ X.m.m.1X}.sXpXy * Q -.} M x ~ :.P.P.'.<.w.t.u.s.s.s.s.d.y.w.3.z.P.W._ x M } -.Q % y pXsX}.1Xm.n.X.( E n ",
"n E ( X.m.m.<X{.iX6Xy ; A =.} Q G G H E ;./.'.7.e.i.a.s.s.s.a.e.1.x.XXo.Q G G Q } =.A * y 6XiX{.<Xm.n.X.( Y n ",
"n E ( X.m.m.*X{.iX%Xt ; M ) ) Q G G ` Q M ~ G.g.7.w.t.a.s.s.y.8.2.Q.| H ` G G Q ) ) v : t %XiX{.*Xm.n.X.( Y n ",
"n E ( X.n.m.,X{.iXoX8 * 3 4 4 e 3 i i - 3 3 ) U.h.3.9.y.s.w.9.).!.W.3 - l r 3 e 4 4 3 * 8 oXiX{.*Xm.n.X.( Y n ",
"n Y ' X.m.m.<X{.eX=Xt * - 1 1 - ; - - - - & 3 P._.gX1.y.s.4.l./.M - - - - - - - 1 1 - * t =XyX{.*Xm.n.X.( Y n ",
"n Y ( ..m.m.<X{.0X9XD ; i F v c M c e p Z i : 8  .dX<.y.s.3.). .: t v c e c M c v F i ; D 7X0X{.<Xm.n...( Y n ",
"n S ~ [ n.m.1X[.iXyX*.y x Q J z A ` Q c l J p / ~ gX<.y.s.3.).:.s J i c / ` F l H Q x y *.qXyX[.1Xm.n.[ ~ Y n ",
"f S ~ [ n.m.,X{.yXeX} f G ) H z i A A - 3 C 4 fXgXgX1.p.f.4.l./.c v 5 - D F i z H ) G s *.eXiX{.<Xm.n.[ ~ S f ",
"f S ! [ #.m.,X{.yX9XT 8 M b l v F v - 3 M c G gXh.4.7.y.s.0.4.).P. .A 3 - c G c e v M r Y 9XeX{.<Xm.#.[ ! S f ",
"s S ! [ @.m.,X{.0X6Xn - c v l e b i - c J c gXz.7.9.i.a.s.a.r.g.h.!.H z - e x e l b c ; n 6XyX|.<Xm.@.] ! m f ",
"s m E ' @.m.<X{.qX2Xx 2 M } L 4 e v z G c 2 dX8.w.r.a.s.d.d.p.q.<.!.A G i v e 4 L } M 2 x 5XqX/.<Xm.O.' E m s ",
"u m E ( X.n.*X/.qX8XQ e k ) H z F H z A i i gXj.t.u.s.s.s.s.s.y.1.!.n A x H F l L ` x e W 8XqX/.@Xn.X.( E n y ",
"y n S ~ | @.~.|.@X<XS.G k k P F J c l 5 c / fX8.5.6.6.6.q.6.6.5.<.!.D 3 l c J F 4 k k F S.<X@X|.~.@.[ ! S f y ",
"t f D W ] O.G.=XoX/.I.;.' V k F A 4 C Z p K o.).k._._.k._.k._._.l.Q.c C C 7 A M k V ) ;.I.U.oX@Xn.X.' E N g 0 ",
"9 y n Y ( | #.H.!.1X{.Z.!.C.) B e - c Z i > L o.} o.}  . .} } o.:.z i C c 1 r B ( C.!.Z.{.1XQ.M.@.| ~ Y n y 0 ",
"9 q f N E ' X.n.m.J.%X/.G.W.A.:.I r 2 2 i : i 3 3 e x e i i 4 5 7 5 i 2 2 2 U :.A.T.Z./.%XJ.M.#...' E m s t = ",
"= 9 y m E ! [ O.n.M.J.%X/.K.~.Q.K.| r e 3 i x x r r r r r r x x x i 4 e r | K.Q.~.H./.%XJ.m.n.O.] ! Y f y 9 $ ",
"$ , 0 s m E ( [ O.n.m.J.=X/.!.G.Q.G.O.{ { $.$.X.[ +.I { | ' | | $.$.{ ( X.L.Q.G.!./.&XJ.m.n.%.[ ~ E m u 0 , # ",
"# = 9 y f S E ( [ @.n.m.H.(.OXU.Q.!.W.J.J.R.E.T.H.J.J.^.P.K.W.T.E.R.J.J.W.!.Q.!.OX(.K.m.n.O.[ ( E m f q 9 $ # ",
"@ # = 9 y f N E ( [ O.n.m.m.Q.#X/.+.V.A.R.E.R.E.E.E.^.Q.P.!.~.E.R.E.R.A.V.+./.#XQ.M.M.#.O.[ ~ E m f y 9 = # @ ",
"O @ $ = 0 u f S E ~ ] X.@.m.M.W.:X%XOXW $.V.#.#.$.C.+.' ( +.+.$.n.V.$.W OX%X=XW.m.m.#.X.' ~ E m f y 9 = # @ X ",
"X O # $ = 0 y f m E ! ' [ @.n.M.H.J.;X=X%X#X#X#X#X#X&X=X=X-X-X#X%X#X%X=X2XJ.H.m.n.@.[ ' ! Y m f y 9 = $ @ X . ",
". X O @ $ = 9 y f m S W ( ] X.@.n.m.G.H.J.W.T.T.J.J.J.H.H.H.J.J.J.T.J.H.G.m.#.@.X.[ ' ^ Y m f y 0 = $ @ O X . ",
"  . X O @ $ = 9 y s n S E ! ' ] X.O.@.n.m.m.m.m.m.m.m.M.M.m.m.m.m.m.n.n.#.O.[ [ ' ! E S n s t 9 = # @ O X .   ",
"  . . X O @ # = 9 t u f m Y E ! ( ] [ ..X.O.@.@.@.@.#.#.#.#.#.@.O.O.O...[ ' ' ! E N m f u 0 9 = # @ O X .     ",
"      . X O @ # $ , 9 y u n m S E E ! ~ ' ' ' ] ] [ [ [ [ [ ] ] ' ' ' ~ ! E E S m f u y 9 = $ # @ X X .       ",
"      . . X O O @ # = 9 0 y a f n m S Y E E E ! ! ! ! ! ! ! ! W E E E E S N n f a y 0 9 = # @ @ X X . .       ",
"        . . . X O @ # $ = 9 0 q y s f n n m m S N N N N N N N m m m n n f a u y 0 9 = $ # @ O X . .           ",
"            . . X X @ # # $ = , 9 0 q y u u a a s f s f f f s s a a y y t 0 9 , = $ # @ @ X X . .             "
};
